<svg width="22" height="14" viewBox="0 0 22 14" fill="none" xmlns="http://www.w3.org/2000/svg">
<path d="M11.2632 0.736847C7.21115 0.736847 3.53658 2.95374 0.825121 6.55455C0.603866 6.84956 0.603866 7.2617 0.825121 7.55671C3.53658 11.1619 7.21115 13.3788 11.2632 13.3788C15.3152 13.3788 18.9897 11.1619 21.7012 7.56105C21.9224 7.26604 21.9224 6.8539 21.7012 6.55889C18.9897 2.95374 15.3152 0.736847 11.2632 0.736847ZM11.5538 11.5089C8.86406 11.6781 6.64283 9.46124 6.81202 6.76713C6.95085 4.5459 8.75126 2.7455 10.9725 2.60667C13.6623 2.43747 15.8835 4.65436 15.7143 7.34847C15.5711 9.56536 13.7707 11.3658 11.5538 11.5089ZM11.4193 9.45256C9.97033 9.54367 8.77295 8.35062 8.86839 6.90162C8.94215 5.70424 9.91393 4.73679 11.1113 4.6587C12.5603 4.5676 13.7577 5.76064 13.6623 7.20964C13.5842 8.41136 12.6124 9.37881 11.4193 9.45256Z" fill="white"/>
</svg>
