<svg width="29" height="23" viewBox="0 0 29 23" fill="none" xmlns="http://www.w3.org/2000/svg">
<path d="M15.7774 16.5343C15.4421 16.8498 15.4421 17.3607 15.7774 17.6754C16.1127 17.991 16.6555 17.991 16.9899 17.6754L22.9056 12.1069C23.084 11.939 23.1603 11.7155 23.1482 11.4959C23.1603 11.2756 23.0839 11.0529 22.9056 10.885L16.9899 5.31732C16.6555 5.00176 16.1118 5.00176 15.7774 5.31732C15.4421 5.63287 15.4421 6.14372 15.7774 6.45843L20.2731 10.6897H1.76372C1.2904 10.6897 0.90625 11.0513 0.90625 11.4968C0.90625 11.9422 1.2904 12.3038 1.76372 12.3038H20.2731L15.7774 16.5343ZM24.9155 0.198303H7.76603C5.87188 0.198303 4.33614 1.6437 4.33614 3.42643V6.65457H6.05108V3.42643C6.05108 2.53547 6.81853 1.81237 7.76603 1.81237H24.9155C25.863 1.81237 26.6304 2.53547 26.6304 3.42643V19.5671C26.6304 20.4581 25.863 21.1812 24.9155 21.1812H7.76603C6.81853 21.1812 6.05108 20.4589 6.05108 19.5671V16.339H4.33614V19.5671C4.33614 21.3498 5.87188 22.7952 7.76603 22.7952H24.9155C26.8096 22.7952 28.3454 21.3498 28.3454 19.5671V3.42643C28.3454 1.6437 26.8096 0.198303 24.9155 0.198303Z" fill="white"/>
</svg>
