<svg width="105" height="97" viewBox="0 0 105 97" fill="none" xmlns="http://www.w3.org/2000/svg">
<path fill-rule="evenodd" clip-rule="evenodd" d="M40.0725 69.6172C45.9962 70.0941 55.8395 63.3112 58.6083 71.1233V45.2271C58.6083 45.2271 55.7971 43.9065 53.9744 44.1594C52.1517 44.4123 49.8791 44.9665 47.176 44.9665C44.4728 44.9665 42.4609 42.8947 40.8274 42.8947C40.4373 42.9008 40.0489 42.9487 39.6689 43.0376L40.0725 69.6172Z" fill="url(#paint0_linear)" stroke="#2B2A29" stroke-width="0.57" stroke-miterlimit="22.93"/>
<path fill-rule="evenodd" clip-rule="evenodd" d="M58.5985 71.1233C55.8374 63.3112 45.9961 70.0961 40.0627 69.6172L39.6649 43.0492C39.4062 43.1071 39.1474 43.1766 38.8926 43.2539L39.3019 70.6869C44.6464 71.1175 49.8616 66.1263 56.575 68.7851C57.4284 69.1152 58.5985 71.1233 58.5985 71.1233Z" fill="#EAEBEB" stroke="#2B2A29" stroke-width="0.57" stroke-miterlimit="22.93"/>
<path fill-rule="evenodd" clip-rule="evenodd" d="M39.3175 70.685L38.9082 43.2519C38.5394 43.3658 38.1919 43.4933 37.8926 43.6111L38.3116 71.6909C43.6561 72.1215 49.827 67.1458 56.5404 69.8045C57.3765 70.1366 58.5987 71.3125 58.5987 71.3125V71.1194C58.5987 71.1194 57.4286 69.1114 56.5926 68.7812C49.8791 66.1244 44.662 71.1156 39.3175 70.685Z" fill="#D8D9D9" stroke="#2B2A29" stroke-width="0.57" stroke-miterlimit="22.93"/>
<path fill-rule="evenodd" clip-rule="evenodd" d="M61.1783 71.7836C59.9773 74.3883 62.889 72.5887 60.9273 76.0623C60.5952 76.6415 61.1783 82.3316 61.1783 83.3608C61.1783 85.6391 58.1257 83.3608 57.78 86.0041C57.7434 86.2937 53.1094 91.8544 51.8659 89.6533C50.7345 87.651 49.3192 93.0515 48.3422 93.0515C45.7356 93.0515 47.7089 93.6887 46.8323 95.4419C46.2762 96.554 44.1929 95.9883 43.687 95.0557C42.0323 92.0321 37.7362 95.0326 35.7591 95.8107C30.2601 97.9771 32.8628 92.6963 32.8628 90.9025C32.8628 87.0197 37.016 89.1938 37.016 87.5043C37.016 85.5291 34.197 87.6472 32.4863 87.5043C30.6656 87.3518 27.0105 82.6618 24.9368 84.7355C24.039 85.6333 26.9603 87.2456 24.1819 87.2456C23.5852 87.2456 20.913 88.2477 21.7915 85.6102C22.3939 83.9516 22.0483 83.5307 21.5251 82.1752C21.0578 80.9627 20.4979 84.2567 20.0171 84.5637C19.3915 84.9633 18.1828 83.1658 17.9434 82.741C17.2889 81.5825 14.551 82.0787 14.6745 83.6832C14.7209 84.2934 12.9117 84.6255 12.4753 84.6255C10.9809 84.6255 11.703 82.4629 9.96526 83.0538C8.99985 83.3801 8.91875 84.7162 7.76606 83.745C6.82768 82.9553 7.01111 81.6211 7.01111 80.4761C7.01111 78.5453 9.32809 80.536 8.26807 77.3328C7.13468 73.9345 12.6452 76.014 9.71425 73.3089C8.0943 71.8145 7.01111 71.6658 7.01111 68.9086C7.51505 61.6951 1.58551 63.9676 0.9773 59.9824C0.784218 58.7544 2.88881 58.2215 3.61673 57.5303C4.57055 56.6247 2.59726 52.6839 2.17055 51.7378C0.946407 49.0463 3.6399 49.6641 5.25985 49.6641C7.963 49.6641 5.8893 44.8371 5.8893 44.1323C5.8893 40.9948 9.76059 41.5682 10.2259 40.1722C10.056 38.4113 8.0132 35.7101 9.66019 35.7101C13.8288 35.7101 16.4026 35.3993 14.7518 31.3735C14.1976 30.0219 12.7804 29.6473 11.9868 28.3556C11.3226 27.2763 10.0753 24.0518 9.03267 23.3355C7.84715 22.511 6.26774 22.6308 6.26774 24.4032C6.26774 27.6045 1.80369 23.1733 2.55864 22.3295C3.03362 21.7966 5.37763 20.1767 5.37763 19.9585C5.37763 18.9525 4.87562 18.1146 4.87562 16.8151C3.98165 14.8843 1.82686 13.5829 3.55494 10.9068C4.08592 10.0843 4.73853 8.99339 5.31585 8.2674C6.8605 6.325 5.37957 1.03842 9.59068 1.03842C16.1246 1.03842 8.48046 9.46064 14.0528 9.46064C15.5434 9.46064 20.3415 8.70377 20.7778 9.71165C21.6506 11.7236 25.6049 11.0323 28.1323 11.0323C30.959 7.95847 37.6204 8.78486 41.8991 8.32919C42.3065 8.28671 44.9671 7.87352 45.2934 7.69974C46.0484 7.30199 46.8555 4.78421 47.9966 3.92886C48.9408 3.21252 50.385 1.86481 51.642 2.04245C52.1594 2.11582 54.9668 2.34365 54.5382 3.0484C52.7078 6.02379 51.891 8.54737 55.7334 10.7176C58.4674 12.2623 55.7083 14.5792 58.4365 16.3749C61.3327 18.271 60.6994 18.7266 60.6994 22.1674C62.6129 35.1791 62.9353 48.6061 63.8312 61.6005C64.0089 64.2959 65.1249 71.6562 61.1783 71.7836Z" fill="#2B2A29" stroke="#2B2A29" stroke-width="0.57" stroke-miterlimit="22.93"/>
<path fill-rule="evenodd" clip-rule="evenodd" d="M62.3736 71.3434C61.1726 73.948 64.0843 72.1485 62.1226 75.6221C61.7905 76.2013 62.3736 81.8914 62.3736 82.9206C62.3736 85.1989 59.321 82.9206 58.9753 85.5638C58.9387 85.8535 54.3047 91.4142 53.0613 89.2131C51.9298 87.2108 50.5145 92.6113 49.5375 92.6113C46.9309 92.6113 48.9042 93.2485 48.0276 95.0017C47.4715 96.1138 45.3882 95.5481 44.8823 94.6155C43.2276 91.5919 38.9315 94.5923 36.9544 95.3705C31.4554 97.5368 34.0581 92.2561 34.0581 90.4623C34.0581 86.5795 38.2113 88.7536 38.2113 87.0641C38.2113 85.0889 35.3923 87.207 33.6816 87.0641C31.8609 86.9116 28.2058 82.2216 26.1321 84.2953C25.2343 85.1931 28.1556 86.8054 25.3772 86.8054C24.7806 86.8054 22.1083 87.8074 22.9868 85.17C23.5892 83.5114 23.2436 83.0905 22.7204 81.735C22.2531 80.5225 21.6932 83.8165 21.2124 84.1235C20.5868 84.5231 19.3781 82.7255 19.1387 82.3008C18.4842 81.1423 15.7463 81.6385 15.8698 83.243C15.9162 83.8531 14.107 84.1852 13.6706 84.1852C12.1762 84.1852 12.8983 82.0227 11.1606 82.6135C10.1952 82.9399 10.1141 84.276 8.96137 83.3048C8.02299 82.5151 8.20642 81.1809 8.20642 80.0359C8.20642 78.1051 10.5234 80.0958 9.46338 76.8925C8.32999 73.4943 13.8405 75.5738 10.9096 72.8687C9.28961 71.3743 8.20642 71.2256 8.20642 68.4684C8.71036 61.2548 2.78082 63.5274 2.17261 59.5422C1.97953 58.3142 4.08412 57.7813 4.81204 57.0901C5.76587 56.1845 3.79257 52.2437 3.36586 51.2976C2.14172 48.6061 4.83521 49.2239 6.45517 49.2239C9.15831 49.2239 7.08461 44.3969 7.08461 43.6921C7.08461 40.5546 10.9559 41.128 11.4212 39.732C11.2513 37.9711 9.20851 35.2699 10.8555 35.2699C15.0241 35.2699 17.5979 34.959 15.9471 30.9333C15.3929 29.5817 13.9757 29.2052 13.1821 27.9154C12.5179 26.8361 11.2706 23.6116 10.228 22.8953C9.04246 22.0708 7.46305 22.1906 7.46305 23.963C7.46305 27.1643 2.999 22.7331 3.75395 21.8893C4.24245 21.3449 6.5826 19.7191 6.5826 19.5009C6.5826 18.495 6.08059 17.657 6.08059 16.3575C5.18662 14.4267 3.03183 13.1254 4.75991 10.4493C5.29088 9.62672 5.9435 8.53581 6.52081 7.80982C8.06547 5.86742 6.58453 0.580841 10.7956 0.580841C17.3295 0.580841 9.68543 9.00307 15.2578 9.00307C16.7484 9.00307 21.5464 8.24619 21.9828 9.25408C22.8555 11.266 26.8099 10.5748 29.3373 10.5748C32.164 7.50089 38.8253 8.32728 43.104 7.87161C43.5114 7.82913 46.1721 7.41594 46.4984 7.24216C47.2534 6.84441 48.0604 4.32663 49.2015 3.47128C50.1457 2.75494 51.59 1.40723 52.8469 1.58487C53.3644 1.65824 56.1718 1.88607 55.7432 2.59082C53.8934 5.5778 53.069 8.10717 56.919 10.2774C59.6531 11.8221 56.8939 14.139 59.6222 15.9347C62.5184 17.8308 61.8851 18.2864 61.8851 21.7272C63.7985 34.7389 64.121 48.1658 65.0169 61.1602C65.2042 63.8557 66.3183 71.2256 62.3736 71.3434Z" fill="url(#paint1_linear)" stroke="#2B2A29" stroke-width="0.57" stroke-miterlimit="22.93"/>
<path fill-rule="evenodd" clip-rule="evenodd" d="M59.3066 52.319L53.7516 51.2126C52.651 51.23 51.7435 52.1066 52.3498 53.2438C52.5661 53.6474 53.0159 53.8521 53.4427 53.9525C53.7361 54.022 54.0451 53.9814 54.3386 54.049C56.5416 54.5549 58.6945 55.25 60.6601 56.3949C61.6081 56.9472 62.8013 58.0091 62.1313 59.2352C61.6293 60.1523 60.3067 60.4497 59.3761 60.6389C58.1461 60.8899 56.4412 60.832 55.3329 61.5251C55.0375 61.7182 54.9719 62.4152 55.1553 62.7087C55.4333 63.1567 56.3756 63.0678 56.6999 63.0794C57.8913 63.1219 58.6095 63.0794 59.6792 63.6413C60.5956 64.1111 61.3821 64.7994 61.9692 65.6455L61.9247 65.6667C61.1249 64.7317 60.0994 64.0166 58.9455 63.5892C57.7542 63.1547 56.5339 63.6143 55.3252 63.2938C54.5027 63.0775 54.5954 61.9847 54.8773 61.4035C55.0491 61.0501 55.6226 60.8937 55.9431 60.8088L60.5249 59.7604C61.1833 59.4939 61.9325 59.0421 61.6834 58.2273C61.2972 56.9472 59.2911 56.3293 58.2079 55.9219L53.8076 54.7364C52.6993 54.5742 51.6142 54.0992 51.4732 52.8615C51.3381 51.678 51.9636 50.7183 53.1627 50.4731C54.0103 50.2993 59.7448 50.4017 59.7448 51.8903C59.7449 51.9475 59.7335 52.004 59.7113 52.0566C59.6892 52.1093 59.6567 52.157 59.6159 52.1969C59.5751 52.2368 59.5267 52.2682 59.4736 52.2892C59.4204 52.3101 59.3636 52.3203 59.3066 52.319Z" fill="#009746" stroke="#2B2A29" stroke-width="0.57" stroke-miterlimit="22.93"/>
<path fill-rule="evenodd" clip-rule="evenodd" d="M50.791 54.4043C50.791 54.4043 53.8089 57.3276 54.9075 57.9551C55.7233 58.3943 56.5753 58.7626 57.4543 59.0556L57.8404 64.8481L54.4769 66.2634C54.4769 66.2634 57.4929 66.2943 58.6089 66.2634C59.7249 66.2943 62.7408 66.2634 62.7408 66.2634L59.3774 64.8481L59.7635 59.0556C60.6418 58.7625 61.4932 58.3942 62.3083 57.9551C63.4089 57.3256 66.4248 54.4043 66.4248 54.4043H50.791Z" fill="#FBD4A5" stroke="#2B2A29" stroke-width="0.57" stroke-miterlimit="22.93"/>
<path fill-rule="evenodd" clip-rule="evenodd" d="M31.0947 75.1858H32.1702V79.617H34.2555V75.1858H35.3309V79.617H35.775V81.6733H34.8811V80.5148H31.0967V75.1858H31.0947ZM36.5242 75.1858H40.7585V80.511H39.683V76.0797H37.5977V80.511H36.5223V75.1858H36.5242ZM41.8745 75.1858H42.9499V77.4525C43.1306 77.4513 43.3042 77.3824 43.4365 77.2595C43.5985 77.0001 43.7281 76.7219 43.8227 76.4311C44.0454 75.8545 44.2693 75.496 44.4946 75.3557C44.7186 75.2147 45.0738 75.1452 45.5739 75.1452H45.7303V75.9407H45.5778C45.4128 75.9301 45.2476 75.9579 45.0951 76.0218C44.9902 76.0789 44.9042 76.1655 44.8479 76.2709C44.7386 76.4931 44.645 76.7228 44.568 76.9582C44.5129 77.1188 44.4417 77.2734 44.3556 77.4197C44.2508 77.5669 44.1116 77.6863 43.9501 77.7673C44.1886 77.8343 44.3979 77.979 44.5448 78.1785C44.7418 78.4528 44.9137 78.7442 45.0584 79.0493L45.7844 80.509H44.5216L43.8922 79.142C43.8825 79.1227 43.8632 79.0841 43.8304 79.03C43.8188 79.0107 43.7725 78.9277 43.6972 78.779C43.6157 78.5957 43.5004 78.4293 43.3573 78.2886C43.236 78.2135 43.0943 78.1778 42.9519 78.1862V80.5187H41.8706V75.1858H41.8745ZM48.4644 80.511V75.1858H50.1886C50.6163 75.1688 51.0446 75.196 51.4668 75.2668C51.7764 75.3469 52.0491 75.531 52.2391 75.7882C52.4554 76.0894 52.5642 76.4545 52.548 76.825C52.5574 77.1103 52.4964 77.3934 52.3704 77.6495C52.2621 77.8598 52.1044 78.0407 51.9109 78.1766C51.7439 78.2961 51.5549 78.3814 51.3548 78.4276C50.9859 78.4873 50.6124 78.5132 50.2388 78.5048H49.5379V80.5129L48.4644 80.511ZM49.5398 76.0874V77.5973H50.1191C50.4048 77.6135 50.6914 77.5855 50.9686 77.5143C51.1047 77.4639 51.2219 77.3729 51.3046 77.2537C51.3863 77.1316 51.4288 76.9874 51.4262 76.8405C51.4321 76.6648 51.3706 76.4935 51.2544 76.3616C51.1418 76.2365 50.9899 76.1534 50.8238 76.1261C50.5677 76.0943 50.3095 76.0821 50.0515 76.0894L49.5398 76.0874ZM53.1659 79.0976L54.1525 78.9779C54.1672 79.1948 54.2574 79.3997 54.4074 79.5571C54.477 79.6241 54.5593 79.6764 54.6496 79.7107C54.7398 79.7451 54.8361 79.7609 54.9326 79.7571C55.0291 79.7533 55.1238 79.73 55.211 79.6887C55.2983 79.6474 55.3763 79.5888 55.4404 79.5166C55.5919 79.3362 55.6692 79.105 55.6567 78.8698C55.6691 78.6473 55.5951 78.4287 55.4501 78.2596C55.3875 78.1876 55.31 78.1301 55.223 78.0911C55.136 78.0521 55.0415 78.0325 54.9461 78.0337C54.7871 78.0378 54.6293 78.0631 54.4769 78.109L54.5889 77.2788C54.8145 77.3004 55.0399 77.2362 55.2203 77.0992C55.2921 77.0361 55.349 76.9578 55.3867 76.8699C55.4245 76.7821 55.4422 76.6869 55.4385 76.5914C55.4441 76.5134 55.433 76.4352 55.406 76.3619C55.379 76.2885 55.3367 76.2218 55.2819 76.166C55.2271 76.1103 55.1611 76.0669 55.0882 76.0387C55.0153 76.0105 54.9373 75.9982 54.8592 76.0025C54.7765 76.0009 54.6942 76.0162 54.6176 76.0474C54.5409 76.0786 54.4714 76.1251 54.4132 76.184C54.2783 76.3284 54.1983 76.5157 54.1873 76.713L53.247 76.5547C53.2932 76.2802 53.3937 76.0177 53.5424 75.7824C53.682 75.5839 53.8729 75.4271 54.0946 75.3286C54.3437 75.2155 54.6147 75.1588 54.8882 75.1626C55.1119 75.1527 55.3352 75.1905 55.5432 75.2733C55.7513 75.3562 55.9393 75.4823 56.095 75.6434C56.2128 75.7591 56.3066 75.8969 56.3708 76.049C56.4351 76.2011 56.4687 76.3645 56.4695 76.5296C56.4695 76.9969 56.2121 77.3695 55.6972 77.6475C55.9855 77.7031 56.2448 77.8591 56.429 78.0878C56.614 78.3221 56.711 78.6138 56.7032 78.9122C56.7061 79.1361 56.6621 79.3582 56.574 79.564C56.4858 79.7699 56.3556 79.955 56.1915 80.1074C55.8551 80.4111 55.4219 80.5855 54.969 80.5997C54.516 80.6138 54.0728 80.4667 53.7181 80.1846C53.4006 79.9071 53.2028 79.5176 53.1659 79.0976Z" fill="#C2292D"/>
<path d="M24.7516 17.8636H22.6123V54.3406H24.7516V17.8636Z" stroke="#2B2A29" stroke-width="0.57" stroke-miterlimit="22.93"/>
<path d="M35.2341 17.8636H33.0947V54.3406H35.2341V17.8636Z" stroke="#2B2A29" stroke-width="0.57" stroke-miterlimit="22.93"/>
<path d="M58.6533 21.3873H35.2344V23.5266H58.6533V21.3873Z" stroke="#2B2A29" stroke-width="0.57" stroke-miterlimit="22.93"/>
<path d="M36.1129 21.3873C36.5991 21.3873 36.9933 20.828 36.9933 20.1381C36.9933 19.4482 36.5991 18.8889 36.1129 18.8889C35.6266 18.8889 35.2324 19.4482 35.2324 20.1381C35.2324 20.828 35.6266 21.3873 36.1129 21.3873Z" stroke="#2B2A29" stroke-width="0.57" stroke-miterlimit="22.93"/>
<path d="M42.3355 21.3873C42.8218 21.3873 43.216 20.828 43.216 20.1381C43.216 19.4482 42.8218 18.8889 42.3355 18.8889C41.8493 18.8889 41.4551 19.4482 41.4551 20.1381C41.4551 20.828 41.8493 21.3873 42.3355 21.3873Z" stroke="#2B2A29" stroke-width="0.57" stroke-miterlimit="22.93"/>
<path d="M48.5582 21.3873C49.0444 21.3873 49.4386 20.828 49.4386 20.1381C49.4386 19.4482 49.0444 18.8889 48.5582 18.8889C48.0719 18.8889 47.6777 19.4482 47.6777 20.1381C47.6777 20.828 48.0719 21.3873 48.5582 21.3873Z" stroke="#2B2A29" stroke-width="0.57" stroke-miterlimit="22.93"/>
<path d="M56.227 19.1399H54.4668V21.3865H56.227V19.1399Z" stroke="#2B2A29" stroke-width="0.57" stroke-miterlimit="22.93"/>
<path d="M55.3473 19.2576C55.8325 19.2576 56.2258 18.6983 56.2258 18.0084C56.2258 17.3185 55.8325 16.7592 55.3473 16.7592C54.8621 16.7592 54.4688 17.3185 54.4688 18.0084C54.4688 18.6983 54.8621 19.2576 55.3473 19.2576Z" stroke="#2B2A29" stroke-width="0.57" stroke-miterlimit="22.93"/>
<path d="M58.5738 20.4779C59.0601 20.4779 59.4543 19.9186 59.4543 19.2287C59.4543 18.5387 59.0601 17.9794 58.5738 17.9794C58.0876 17.9794 57.6934 18.5387 57.6934 19.2287C57.6934 19.9186 58.0876 20.4779 58.5738 20.4779Z" stroke="#2B2A29" stroke-width="0.57" stroke-miterlimit="22.93"/>
<path d="M44.9108 28.4348H43.2754V33.343H44.9108V28.4348Z" stroke="#2B2A29" stroke-width="0.57" stroke-miterlimit="22.93"/>
<path d="M47.9928 28.4348H46.3574V33.343H47.9928V28.4348Z" stroke="#2B2A29" stroke-width="0.57" stroke-miterlimit="22.93"/>
<path d="M51.3541 28.4348H49.7188V33.343H51.3541V28.4348Z" stroke="#2B2A29" stroke-width="0.57" stroke-miterlimit="22.93"/>
<path d="M54.4391 28.4348H52.8037V33.343H54.4391V28.4348Z" stroke="#2B2A29" stroke-width="0.57" stroke-miterlimit="22.93"/>
<path d="M57.7995 28.4348H56.1641V33.343H57.7995V28.4348Z" stroke="#2B2A29" stroke-width="0.57" stroke-miterlimit="22.93"/>
<path d="M38.4645 28.4348H36.8291V33.343H38.4645V28.4348Z" stroke="#2B2A29" stroke-width="0.57" stroke-miterlimit="22.93"/>
<path d="M41.5475 28.4348H39.9121V33.343H41.5475V28.4348Z" stroke="#2B2A29" stroke-width="0.57" stroke-miterlimit="22.93"/>
<path d="M40.8263 37.2432H37.6211V44.534H40.8263V37.2432Z" stroke="#2B2A29" stroke-width="0.57" stroke-miterlimit="22.93"/>
<path fill-rule="evenodd" clip-rule="evenodd" d="M41.7059 35.4843H36.709V39.2551H37.6203V37.2432H40.8274V39.2551H41.7059V35.4843Z" fill="#FDFDFD" stroke="#2B2A29" stroke-width="0.57" stroke-miterlimit="22.93"/>
<path d="M39.2237 37.2432H37.6211V44.534H39.2237V37.2432Z" stroke="#2B2A29" stroke-width="0.57" stroke-miterlimit="22.93"/>
<path d="M40.8263 37.2432H37.6211V40.2611H40.8263V37.2432Z" stroke="#2B2A29" stroke-width="0.57" stroke-miterlimit="22.93"/>
<path d="M40.8263 37.2432H37.6211V38.7512H40.8263V37.2432Z" stroke="#2B2A29" stroke-width="0.57" stroke-miterlimit="22.93"/>
<path d="M47.2061 37.2432H44.001V44.534H47.2061V37.2432Z" stroke="#2B2A29" stroke-width="0.57" stroke-miterlimit="22.93"/>
<path fill-rule="evenodd" clip-rule="evenodd" d="M48.0878 35.4843H43.0908V39.2551H44.0022V37.2432H47.2073V39.2551H48.0878V35.4843Z" fill="#FDFDFD" stroke="#2B2A29" stroke-width="0.57" stroke-miterlimit="22.93"/>
<path d="M45.6036 37.2432H44.001V44.534H45.6036V37.2432Z" stroke="#2B2A29" stroke-width="0.57" stroke-miterlimit="22.93"/>
<path d="M47.2061 37.2432H44.001V40.2611H47.2061V37.2432Z" stroke="#2B2A29" stroke-width="0.57" stroke-miterlimit="22.93"/>
<path d="M47.2061 37.2432H44.001V38.7512H47.2061V37.2432Z" stroke="#2B2A29" stroke-width="0.57" stroke-miterlimit="22.93"/>
<path d="M53.586 37.2432H50.3809V44.534H53.586V37.2432Z" stroke="#2B2A29" stroke-width="0.57" stroke-miterlimit="22.93"/>
<path fill-rule="evenodd" clip-rule="evenodd" d="M54.4677 35.4843H49.4707V39.2551H50.3821V37.2432H53.5872V39.2551H54.4677V35.4843Z" fill="#FDFDFD" stroke="#2B2A29" stroke-width="0.57" stroke-miterlimit="22.93"/>
<path d="M51.9834 37.2432H50.3809V44.534H51.9834V37.2432Z" stroke="#2B2A29" stroke-width="0.57" stroke-miterlimit="22.93"/>
<path d="M53.586 37.2432H50.3809V40.2611H53.586V37.2432Z" stroke="#2B2A29" stroke-width="0.57" stroke-miterlimit="22.93"/>
<path d="M53.586 37.2432H50.3809V38.7512H53.586V37.2432Z" stroke="#2B2A29" stroke-width="0.57" stroke-miterlimit="22.93"/>
<path d="M60.2491 37.2432H57.0439V44.534H60.2491V37.2432Z" stroke="#2B2A29" stroke-width="0.57" stroke-miterlimit="22.93"/>
<path fill-rule="evenodd" clip-rule="evenodd" d="M61.1307 35.4843H56.1338V39.2551H57.0451V37.2432H60.2503V39.2551H61.1307V35.4843Z" fill="#FDFDFD" stroke="#2B2A29" stroke-width="0.57" stroke-miterlimit="22.93"/>
<path d="M58.6465 37.2432H57.0439V44.534H58.6465V37.2432Z" stroke="#2B2A29" stroke-width="0.57" stroke-miterlimit="22.93"/>
<path d="M60.2491 37.2432H57.0439V40.2611H60.2491V37.2432Z" stroke="#2B2A29" stroke-width="0.57" stroke-miterlimit="22.93"/>
<path d="M60.2491 37.2432H57.0439V38.7512H60.2491V37.2432Z" stroke="#2B2A29" stroke-width="0.57" stroke-miterlimit="22.93"/>
<path fill-rule="evenodd" clip-rule="evenodd" d="M42.1465 26.3689H36.2285V29.574H36.829V28.4348H38.4644V29.574H39.9106V28.4348H41.5479V29.574H42.1465V26.3689Z" fill="#FDFDFD" stroke="#2B2A29" stroke-width="0.57" stroke-miterlimit="22.93"/>
<path fill-rule="evenodd" clip-rule="evenodd" d="M48.5957 26.3689H42.6777V29.574H43.2763V28.4348H44.9117V29.574H46.3598V28.4348H47.9952V29.574H48.5957V26.3689Z" fill="#FDFDFD" stroke="#2B2A29" stroke-width="0.57" stroke-miterlimit="22.93"/>
<path fill-rule="evenodd" clip-rule="evenodd" d="M55.042 26.3689H49.124V29.574H49.7226V28.4348H51.3599V29.574H52.8061V28.4348H54.4415V29.574H55.042V26.3689Z" fill="#FDFDFD" stroke="#2B2A29" stroke-width="0.57" stroke-miterlimit="22.93"/>
<path fill-rule="evenodd" clip-rule="evenodd" d="M61.4893 26.3689H55.5713V29.574H56.1718V28.4348H57.8072V29.574H59.2553V28.4348H60.8907V29.574H61.4893V26.3689Z" fill="#FDFDFD" stroke="#2B2A29" stroke-width="0.57" stroke-miterlimit="22.93"/>
<path d="M26.7231 28.0042H25.4971V33.4723H26.7231V28.0042Z" stroke="#2B2A29" stroke-width="0.57" stroke-miterlimit="22.93"/>
<path fill-rule="evenodd" clip-rule="evenodd" d="M28.3066 28.0042H29.5327V33.4723H28.3066V28.0042Z" stroke="#2B2A29" stroke-width="0.57" stroke-miterlimit="22.93"/>
<path d="M32.3423 28.0042H31.1162V33.4723H32.3423V28.0042Z" stroke="#2B2A29" stroke-width="0.57" stroke-miterlimit="22.93"/>
<path fill-rule="evenodd" clip-rule="evenodd" d="M33.094 25.9923H24.751V29.574H25.4963V28.0023H26.7223V29.574H28.3056V28.0023H29.5317V29.574H31.115V28.0023H32.341V29.574H33.094V25.9923Z" fill="#FDFDFD" stroke="#2B2A29" stroke-width="0.57" stroke-miterlimit="22.93"/>
<path d="M31.0832 16.5951H26.6211V25.9924H31.0832V16.5951Z" stroke="#2B2A29" stroke-width="0.57" stroke-miterlimit="22.93"/>
<path d="M33.094 18.6996H24.751V25.9904H33.094V18.6996Z" stroke="#2B2A29" stroke-width="0.57" stroke-miterlimit="22.93"/>
<path d="M35.2341 54.3406H22.6123V56.7927H35.2341V54.3406Z" stroke="#2B2A29" stroke-width="0.57" stroke-miterlimit="22.93"/>
<path d="M47.8561 53.8386H35.2344V56.2907H47.8561V53.8386Z" stroke="#2B2A29" stroke-width="0.57" stroke-miterlimit="22.93"/>
<path d="M33.094 35.7353H24.751V39.3189H33.094V35.7353Z" stroke="#2B2A29" stroke-width="0.57" stroke-miterlimit="22.93"/>
<path fill-rule="evenodd" clip-rule="evenodd" d="M25.7725 37.4962H27.7747V43.2887H25.7725V37.4962ZM30.3292 37.4962H32.3083V43.2172H30.3292V37.4962Z" stroke="#2B2A29" stroke-width="0.57" stroke-miterlimit="22.93"/>
<path d="M28.601 47.2062H24.751V54.3406H28.601V47.2062Z" stroke="#2B2A29" stroke-width="0.57" stroke-miterlimit="22.93"/>
<path d="M33.0952 47.2062H29.2451V54.3406H33.0952V47.2062Z" stroke="#2B2A29" stroke-width="0.57" stroke-miterlimit="22.93"/>
<path d="M26.676 47.2062H24.751V54.3406H26.676V47.2062Z" stroke="#2B2A29" stroke-width="0.57" stroke-miterlimit="22.93"/>
<path d="M31.1701 47.2062H29.2451V54.3406H31.1701V47.2062Z" stroke="#2B2A29" stroke-width="0.57" stroke-miterlimit="22.93"/>
<path d="M28.601 49.4691H24.751V54.3406H28.601V49.4691Z" stroke="#2B2A29" stroke-width="0.57" stroke-miterlimit="22.93"/>
<path d="M33.0952 49.4691H29.2451V54.3406H33.0952V49.4691Z" stroke="#2B2A29" stroke-width="0.57" stroke-miterlimit="22.93"/>
<path d="M94.5349 17.8636H92.3955V54.3406H94.5349V17.8636Z" stroke="#2B2A29" stroke-width="0.57" stroke-miterlimit="22.93"/>
<path d="M84.0524 17.8636H81.9131V54.3406H84.0524V17.8636Z" stroke="#2B2A29" stroke-width="0.57" stroke-miterlimit="22.93"/>
<path d="M81.916 21.3873H58.4971V23.5266H81.916V21.3873Z" stroke="#2B2A29" stroke-width="0.57" stroke-miterlimit="22.93"/>
<path d="M81.0347 21.3873C81.521 21.3873 81.9152 20.828 81.9152 20.1381C81.9152 19.4482 81.521 18.8889 81.0347 18.8889C80.5485 18.8889 80.1543 19.4482 80.1543 20.1381C80.1543 20.828 80.5485 21.3873 81.0347 21.3873Z" stroke="#2B2A29" stroke-width="0.57" stroke-miterlimit="22.93"/>
<path d="M74.8121 21.3873C75.2984 21.3873 75.6925 20.828 75.6925 20.1381C75.6925 19.4482 75.2984 18.8889 74.8121 18.8889C74.3258 18.8889 73.9316 19.4482 73.9316 20.1381C73.9316 20.828 74.3258 21.3873 74.8121 21.3873Z" stroke="#2B2A29" stroke-width="0.57" stroke-miterlimit="22.93"/>
<path d="M68.5885 21.3873C69.0747 21.3873 69.4689 20.828 69.4689 20.1381C69.4689 19.4482 69.0747 18.8889 68.5885 18.8889C68.1022 18.8889 67.708 19.4482 67.708 20.1381C67.708 20.828 68.1022 21.3873 68.5885 21.3873Z" stroke="#2B2A29" stroke-width="0.57" stroke-miterlimit="22.93"/>
<path d="M62.6792 19.1399H60.9189V21.3865H62.6792V19.1399Z" stroke="#2B2A29" stroke-width="0.57" stroke-miterlimit="22.93"/>
<path d="M61.7994 19.2576C62.2857 19.2576 62.6799 18.6983 62.6799 18.0084C62.6799 17.3185 62.2857 16.7592 61.7994 16.7592C61.3131 16.7592 60.9189 17.3185 60.9189 18.0084C60.9189 18.6983 61.3131 19.2576 61.7994 19.2576Z" stroke="#2B2A29" stroke-width="0.57" stroke-miterlimit="22.93"/>
<path d="M58.5738 20.4779C59.0601 20.4779 59.4543 19.9186 59.4543 19.2287C59.4543 18.5387 59.0601 17.9794 58.5738 17.9794C58.0876 17.9794 57.6934 18.5387 57.6934 19.2287C57.6934 19.9186 58.0876 20.4779 58.5738 20.4779Z" stroke="#2B2A29" stroke-width="0.57" stroke-miterlimit="22.93"/>
<path fill-rule="evenodd" clip-rule="evenodd" d="M74.8117 21.3874C75.2982 21.3874 75.6921 20.8274 75.6921 20.1381C75.6921 20.1381 76.7232 20.2771 78.0535 20.3312C78.7603 20.388 79.4715 20.3227 80.1562 20.1381C80.1562 20.8274 80.5423 21.3874 81.0366 21.3874H62.6803V19.1418C62.6803 19.1418 64.225 19.7075 65.4453 20.0223C66.2038 20.2059 67.0002 20.1554 67.7294 19.8775C67.7164 19.9644 67.71 20.0522 67.7101 20.1401C67.7101 20.8294 68.0963 21.3893 68.5906 21.3893C69.0849 21.3893 69.471 20.8294 69.471 20.1401C69.4714 20.0697 69.4675 19.9994 69.4594 19.9296C70.2102 20.205 70.9988 20.3633 71.7977 20.3988C72.5454 20.3703 73.2794 20.189 73.9544 19.8659C73.94 19.9578 73.9329 20.0508 73.9331 20.1439C73.9331 20.8332 74.3193 21.3932 74.8136 21.3932L74.8117 21.3874ZM42.3353 21.3874C41.8487 21.3874 41.4549 20.8274 41.4549 20.1381C41.4549 20.1381 40.4238 20.2771 39.0935 20.3312C38.3867 20.388 37.6754 20.3227 36.9908 20.1381C36.9908 20.8274 36.6046 21.3874 36.1104 21.3874H54.4647V19.1418C54.4647 19.1418 52.9201 19.7075 51.6998 20.0223C50.9412 20.2059 50.1449 20.1554 49.4156 19.8775C49.4286 19.9644 49.435 20.0522 49.4349 20.1401C49.4349 20.8294 49.0488 21.3893 48.5545 21.3893C48.0602 21.3893 47.674 20.8294 47.674 20.1401C47.6737 20.0697 47.6776 19.9994 47.6856 19.9296C46.9343 20.2052 46.145 20.3635 45.3455 20.3988C44.599 20.3698 43.8664 20.1884 43.1926 19.8659C43.207 19.9578 43.2141 20.0508 43.2138 20.1439C43.2138 20.8332 42.8277 21.3932 42.3334 21.3932L42.3353 21.3874ZM58.5735 16.4811C58.4943 16.4657 58.2395 16.458 57.5868 16.7534C57.0717 16.9905 56.6029 17.3174 56.2024 17.7188C56.219 17.8158 56.2274 17.9139 56.2275 18.0123C56.2396 18.2276 56.1999 18.4426 56.1119 18.6394C56.0239 18.8363 55.8901 19.0092 55.7217 19.1437H56.2275V21.3912H60.9194V19.1418H61.4253C61.2568 19.0072 61.123 18.8343 61.035 18.6375C60.947 18.4407 60.9074 18.2256 60.9194 18.0104C60.9196 17.912 60.928 17.8138 60.9445 17.7169C60.544 17.3155 60.0752 16.9885 59.5601 16.7515C58.9075 16.456 58.6527 16.4638 58.5735 16.4792V16.4811ZM58.5503 20.476C58.0753 20.4586 57.695 19.8968 57.695 19.2268C57.695 18.5568 58.0811 17.9968 58.5503 17.9775H58.5986C59.0736 17.9949 59.4539 18.5568 59.4539 19.2268C59.4539 19.8968 59.0678 20.4567 58.5986 20.476H58.5503Z" fill="#D8D9D9" stroke="#2B2A29" stroke-width="0.57" stroke-miterlimit="22.93"/>
<path d="M73.8717 28.4348H72.2363V33.343H73.8717V28.4348Z" stroke="#2B2A29" stroke-width="0.57" stroke-miterlimit="22.93"/>
<path d="M70.7877 28.4348H69.1523V33.343H70.7877V28.4348Z" stroke="#2B2A29" stroke-width="0.57" stroke-miterlimit="22.93"/>
<path d="M67.4274 28.4348H65.792V33.343H67.4274V28.4348Z" stroke="#2B2A29" stroke-width="0.57" stroke-miterlimit="22.93"/>
<path d="M64.3463 28.4348H62.7109V33.343H64.3463V28.4348Z" stroke="#2B2A29" stroke-width="0.57" stroke-miterlimit="22.93"/>
<path d="M60.984 28.4348H59.3486V33.343H60.984V28.4348Z" stroke="#2B2A29" stroke-width="0.57" stroke-miterlimit="22.93"/>
<path d="M80.319 28.4348H78.6836V33.343H80.319V28.4348Z" stroke="#2B2A29" stroke-width="0.57" stroke-miterlimit="22.93"/>
<path d="M77.235 28.4348H75.5996V33.343H77.235V28.4348Z" stroke="#2B2A29" stroke-width="0.57" stroke-miterlimit="22.93"/>
<path d="M79.5255 37.2432H76.3203V44.534H79.5255V37.2432Z" stroke="#2B2A29" stroke-width="0.57" stroke-miterlimit="22.93"/>
<path fill-rule="evenodd" clip-rule="evenodd" d="M75.4404 35.4843H80.4374V39.2551H79.526V37.2432H76.3209V39.2551H75.4404V35.4843Z" fill="#FDFDFD" stroke="#2B2A29" stroke-width="0.57" stroke-miterlimit="22.93"/>
<path d="M79.5254 37.2432H77.9229V44.534H79.5254V37.2432Z" stroke="#2B2A29" stroke-width="0.57" stroke-miterlimit="22.93"/>
<path d="M79.5255 37.2432H76.3203V40.2611H79.5255V37.2432Z" stroke="#2B2A29" stroke-width="0.57" stroke-miterlimit="22.93"/>
<path d="M79.5255 37.2432H76.3203V38.7512H79.5255V37.2432Z" stroke="#2B2A29" stroke-width="0.57" stroke-miterlimit="22.93"/>
<path d="M73.1466 37.2432H69.9414V44.534H73.1466V37.2432Z" stroke="#2B2A29" stroke-width="0.57" stroke-miterlimit="22.93"/>
<path fill-rule="evenodd" clip-rule="evenodd" d="M69.0605 35.4843H74.0575V39.2551H73.1462V37.2432H69.941V39.2551H69.0605V35.4843Z" fill="#FDFDFD" stroke="#2B2A29" stroke-width="0.57" stroke-miterlimit="22.93"/>
<path d="M73.1465 37.2432H71.5439V44.534H73.1465V37.2432Z" stroke="#2B2A29" stroke-width="0.57" stroke-miterlimit="22.93"/>
<path d="M73.1466 37.2432H69.9414V40.2611H73.1466V37.2432Z" stroke="#2B2A29" stroke-width="0.57" stroke-miterlimit="22.93"/>
<path d="M73.1466 37.2432H69.9414V38.7512H73.1466V37.2432Z" stroke="#2B2A29" stroke-width="0.57" stroke-miterlimit="22.93"/>
<path d="M66.7647 37.2432H63.5596V44.534H66.7647V37.2432Z" stroke="#2B2A29" stroke-width="0.57" stroke-miterlimit="22.93"/>
<path fill-rule="evenodd" clip-rule="evenodd" d="M62.6797 35.4843H67.6766V39.2551H66.7653V37.2432H63.5582V39.2551H62.6797V35.4843Z" fill="#FDFDFD" stroke="#2B2A29" stroke-width="0.57" stroke-miterlimit="22.93"/>
<path d="M66.7657 37.2432H65.1631V44.534H66.7657V37.2432Z" stroke="#2B2A29" stroke-width="0.57" stroke-miterlimit="22.93"/>
<path d="M66.7647 37.2432H63.5596V40.2611H66.7647V37.2432Z" stroke="#2B2A29" stroke-width="0.57" stroke-miterlimit="22.93"/>
<path d="M66.7647 37.2432H63.5596V38.7512H66.7647V37.2432Z" stroke="#2B2A29" stroke-width="0.57" stroke-miterlimit="22.93"/>
<path d="M60.1007 37.2432H56.8955V44.534H60.1007V37.2432Z" stroke="#2B2A29" stroke-width="0.57" stroke-miterlimit="22.93"/>
<path fill-rule="evenodd" clip-rule="evenodd" d="M56.0186 35.4843H61.0155V39.2551H60.1042V37.2432H56.8971V39.2551H56.0186V35.4843Z" fill="#FDFDFD" stroke="#2B2A29" stroke-width="0.57" stroke-miterlimit="22.93"/>
<path d="M60.1036 37.2432H58.501V44.534H60.1036V37.2432Z" stroke="#2B2A29" stroke-width="0.57" stroke-miterlimit="22.93"/>
<path d="M60.1007 37.2432H56.8955V40.2611H60.1007V37.2432Z" stroke="#2B2A29" stroke-width="0.57" stroke-miterlimit="22.93"/>
<path d="M60.1007 37.2432H56.8955V38.7512H60.1007V37.2432Z" stroke="#2B2A29" stroke-width="0.57" stroke-miterlimit="22.93"/>
<path fill-rule="evenodd" clip-rule="evenodd" d="M75 26.3689H80.918V29.574H80.3194V28.4348H78.684V29.574H77.2359V28.4348H75.6005V29.574H75V26.3689Z" fill="#FDFDFD" stroke="#2B2A29" stroke-width="0.57" stroke-miterlimit="22.93"/>
<path fill-rule="evenodd" clip-rule="evenodd" d="M68.5518 26.3689H74.4697V29.574H73.8692V28.4348H72.2338V29.574H70.7876V28.4348H69.1522V29.574H68.5518V26.3689Z" fill="#FDFDFD" stroke="#2B2A29" stroke-width="0.57" stroke-miterlimit="22.93"/>
<path fill-rule="evenodd" clip-rule="evenodd" d="M62.1055 26.3689H68.0234V29.574H67.4229V28.4348H65.7875V29.574H64.3414V28.4348H62.704V29.574H62.1055V26.3689Z" fill="#FDFDFD" stroke="#2B2A29" stroke-width="0.57" stroke-miterlimit="22.93"/>
<path fill-rule="evenodd" clip-rule="evenodd" d="M55.6572 26.3689H61.5752V29.574H60.9766V28.4348H59.3412V29.574H57.8931V28.4348H56.2577V29.574H55.6572V26.3689Z" fill="#FDFDFD" stroke="#2B2A29" stroke-width="0.57" stroke-miterlimit="22.93"/>
<path d="M91.6499 28.0042H90.4238V33.4723H91.6499V28.0042Z" stroke="#2B2A29" stroke-width="0.57" stroke-miterlimit="22.93"/>
<path fill-rule="evenodd" clip-rule="evenodd" d="M88.8403 28.0042H87.6143V33.4723H88.8403V28.0042Z" stroke="#2B2A29" stroke-width="0.57" stroke-miterlimit="22.93"/>
<path d="M86.0327 28.0042H84.8066V33.4723H86.0327V28.0042Z" stroke="#2B2A29" stroke-width="0.57" stroke-miterlimit="22.93"/>
<path fill-rule="evenodd" clip-rule="evenodd" d="M84.0527 25.9923H92.3958V29.574H91.6505V28.0023H90.4244V29.574H88.8412V28.0023H87.6151V29.574H86.0318V28.0023H84.8058V29.574H84.0527V25.9923Z" fill="#FDFDFD" stroke="#2B2A29" stroke-width="0.57" stroke-miterlimit="22.93"/>
<path d="M90.5246 16.5951H86.0625V25.9924H90.5246V16.5951Z" stroke="#2B2A29" stroke-width="0.57" stroke-miterlimit="22.93"/>
<path d="M92.3958 18.6996H84.0527V25.9904H92.3958V18.6996Z" stroke="#2B2A29" stroke-width="0.57" stroke-miterlimit="22.93"/>
<path d="M94.5348 54.3406H81.9131V56.7927H94.5348V54.3406Z" stroke="#2B2A29" stroke-width="0.57" stroke-miterlimit="22.93"/>
<path d="M81.9128 53.8386H69.291V56.2907H81.9128V53.8386Z" stroke="#2B2A29" stroke-width="0.57" stroke-miterlimit="22.93"/>
<path d="M92.3958 35.7353H84.0527V39.3189H92.3958V35.7353Z" stroke="#2B2A29" stroke-width="0.57" stroke-miterlimit="22.93"/>
<path fill-rule="evenodd" clip-rule="evenodd" d="M91.3747 37.4962H89.3686V43.2887H91.3805V37.4962H91.3747ZM86.818 37.4962H84.8389V43.2172H86.818V37.4962Z" stroke="#2B2A29" stroke-width="0.57" stroke-miterlimit="22.93"/>
<path d="M92.3969 47.2062H88.5469V54.3406H92.3969V47.2062Z" stroke="#2B2A29" stroke-width="0.57" stroke-miterlimit="22.93"/>
<path d="M87.9028 47.2062H84.0527V54.3406H87.9028V47.2062Z" stroke="#2B2A29" stroke-width="0.57" stroke-miterlimit="22.93"/>
<path d="M92.3957 47.2062H90.4707V54.3406H92.3957V47.2062Z" stroke="#2B2A29" stroke-width="0.57" stroke-miterlimit="22.93"/>
<path d="M87.9035 47.2062H85.9785V54.3406H87.9035V47.2062Z" stroke="#2B2A29" stroke-width="0.57" stroke-miterlimit="22.93"/>
<path d="M92.3969 49.4691H88.5469V54.3406H92.3969V49.4691Z" stroke="#2B2A29" stroke-width="0.57" stroke-miterlimit="22.93"/>
<path d="M87.9028 49.4691H84.0527V54.3406H87.9028V49.4691Z" stroke="#2B2A29" stroke-width="0.57" stroke-miterlimit="22.93"/>
<path fill-rule="evenodd" clip-rule="evenodd" d="M38.3141 71.6909L37.8931 43.6149C37.3139 43.8427 36.9277 44.0358 36.9277 44.0358V72.9788H39.6309C39.6309 72.9788 44.7862 72.1311 47.5472 70.8105C50.3083 69.4898 53.7065 69.3643 55.3419 70.0555C56.9773 70.7468 58.5934 71.3125 58.5934 71.3125C58.5934 71.3125 57.3732 70.1347 56.5352 69.8045C49.8275 67.1458 43.6586 72.1215 38.3141 71.6909Z" fill="#C2292D" stroke="#2B2A29" stroke-width="0.57" stroke-miterlimit="22.93"/>
<path fill-rule="evenodd" clip-rule="evenodd" d="M77.1257 69.0515C71.2019 69.5284 61.3586 62.7454 58.5898 70.5575V44.6614C58.5898 44.6614 61.4011 43.3407 63.2238 43.5936C65.0465 43.8466 67.3094 44.4104 70.0126 44.4104C72.7157 44.4104 74.7276 42.3386 76.3611 42.3386C76.7513 42.3447 77.1396 42.3926 77.5196 42.4815L77.1257 69.0515Z" fill="url(#paint2_linear)" stroke="#2B2A29" stroke-width="0.57" stroke-miterlimit="22.93"/>
<path fill-rule="evenodd" clip-rule="evenodd" d="M58.5967 70.5575C61.3577 62.7454 71.1991 69.5303 77.1325 69.0515L77.5303 42.4815C77.789 42.5394 78.0477 42.6089 78.3026 42.6862L77.8933 70.1192C72.5488 70.5498 67.3336 65.5586 60.6202 68.2174C59.7687 68.5495 58.5967 70.5575 58.5967 70.5575Z" fill="#EAEBEB" stroke="#2B2A29" stroke-width="0.57" stroke-miterlimit="22.93"/>
<path fill-rule="evenodd" clip-rule="evenodd" d="M77.8778 70.1193L78.2872 42.6862C78.6559 42.8001 79.0035 42.9276 79.3028 43.0453L78.8838 71.1252C73.5393 71.5558 67.3684 66.5801 60.6549 69.2388C59.8189 69.5709 58.5967 70.7468 58.5967 70.7468V70.5537C58.5967 70.5537 59.7668 68.5457 60.6028 68.2155C67.3182 65.5587 72.5333 70.5499 77.8778 70.1193Z" fill="#D8D9D9" stroke="#2B2A29" stroke-width="0.57" stroke-miterlimit="22.93"/>
<path fill-rule="evenodd" clip-rule="evenodd" d="M78.8848 71.1252L79.3038 43.0453C79.8831 43.2731 80.2692 43.4662 80.2692 43.4662V72.413H77.5661C77.5661 72.413 72.4108 71.5654 69.6497 70.2447C66.8887 68.924 63.4904 68.7985 61.855 69.4898C60.2196 70.181 58.6035 70.7467 58.6035 70.7467C58.6035 70.7467 59.8238 69.5689 60.6618 69.2388C67.3694 66.58 73.5365 71.5557 78.8848 71.1252Z" fill="#C2292D" stroke="#2B2A29" stroke-width="0.57" stroke-miterlimit="22.93"/>
<path fill-rule="evenodd" clip-rule="evenodd" d="M39.9749 68.926C45.8986 69.4029 55.742 62.6199 58.5107 70.432V44.5359C58.5107 44.5359 55.6995 43.2152 53.8768 43.4681C52.0541 43.7211 49.7873 44.2849 47.0842 44.2849C44.381 44.2849 42.3691 42.2131 40.7356 42.2131C40.3455 42.2192 39.9571 42.2671 39.5771 42.356L39.9749 68.926Z" fill="url(#paint3_linear)" stroke="#2B2A29" stroke-width="0.57" stroke-miterlimit="22.93"/>
<path fill-rule="evenodd" clip-rule="evenodd" d="M58.4999 70.4301C55.7388 62.618 45.8974 69.4029 39.964 68.924L39.5663 42.356C39.3075 42.4139 39.0488 42.4834 38.7939 42.5607L39.2033 69.9937C44.5478 70.4243 49.7629 65.4331 56.4764 68.0919C57.3298 68.424 58.4999 70.4301 58.4999 70.4301Z" fill="#EAEBEB" stroke="#2B2A29" stroke-width="0.57" stroke-miterlimit="22.93"/>
<path fill-rule="evenodd" clip-rule="evenodd" d="M39.2189 69.9938L38.8096 42.5607C38.4408 42.6746 38.0932 42.8021 37.7939 42.9199L38.2129 70.9998C43.5574 71.4303 49.7283 66.4546 56.4418 69.1133C57.2778 69.4454 58.5 70.6213 58.5 70.6213V70.4282C58.5 70.4282 57.33 68.4202 56.4939 68.09C49.7863 65.4332 44.5634 70.4244 39.2189 69.9938Z" fill="#D8D9D9" stroke="#2B2A29" stroke-width="0.57" stroke-miterlimit="22.93"/>
<path fill-rule="evenodd" clip-rule="evenodd" d="M59.2098 51.6278L53.649 50.5214C52.5485 50.5388 51.641 51.4154 52.2472 52.5527C52.4635 52.9562 52.9134 53.1609 53.3401 53.2613C53.6336 53.3308 53.9425 53.2902 54.236 53.3578C56.4391 53.8637 58.5919 54.5588 60.5575 55.7038C61.5055 56.256 62.6988 57.3179 62.0288 58.544C61.5268 59.4611 60.2042 59.7585 59.2735 59.9477C58.0436 60.1987 56.3387 60.1408 55.2304 60.8339C54.9349 61.027 54.8693 61.724 55.0527 62.0175C55.3308 62.4655 56.273 62.3767 56.5974 62.3882C57.7887 62.4307 58.507 62.3883 59.5766 62.9501C60.4946 63.4199 61.2825 64.109 61.8704 64.9562L61.826 64.9775C61.0262 64.0424 60.0007 63.3273 58.8468 62.8999C57.6555 62.4655 56.4352 62.925 55.2265 62.6045C54.404 62.3882 54.4967 61.2954 54.7786 60.7142C54.9504 60.3609 55.5238 60.2045 55.8444 60.1195L60.4262 59.0711C61.0846 58.8047 61.8338 58.3528 61.5847 57.538C61.1985 56.2579 59.1924 55.64 58.1092 55.2326L53.7031 54.0413C52.5948 53.8791 51.5097 53.4042 51.3687 52.1665C51.2336 50.9829 51.8592 50.0233 53.0582 49.7781C53.9078 49.6043 59.6404 49.7066 59.6404 51.1953C59.6409 51.2521 59.6301 51.3084 59.6087 51.361C59.5872 51.4135 59.5556 51.4613 59.5155 51.5016C59.4754 51.5418 59.4278 51.5737 59.3753 51.5954C59.3228 51.617 59.2666 51.6281 59.2098 51.6278Z" fill="#009746" stroke="#2B2A29" stroke-width="0.57" stroke-miterlimit="22.93"/>
<path fill-rule="evenodd" clip-rule="evenodd" d="M50.6904 53.7131C50.6904 53.7131 53.7083 56.6364 54.8069 57.2658C55.6221 57.705 56.4735 58.0732 57.3518 58.3664L57.7379 64.1589L54.3744 65.5722C54.3744 65.5722 57.3904 65.6031 58.5064 65.5722C59.6224 65.6031 62.6383 65.5722 62.6383 65.5722L59.2748 64.1589L59.661 58.3664C60.5399 58.0733 61.392 57.7051 62.2078 57.2658C63.3083 56.6364 66.3243 53.7151 66.3243 53.7151L50.6904 53.7131Z" fill="#FBD4A5" stroke="#2B2A29" stroke-width="0.57" stroke-miterlimit="22.93"/>
<path fill-rule="evenodd" clip-rule="evenodd" d="M38.2135 70.9997L37.7945 42.9198C37.2153 43.1477 36.8291 43.3407 36.8291 43.3407V72.2876H39.5322C39.5322 72.2876 44.6875 71.4399 47.4486 70.1193C50.2097 68.7986 53.6079 68.6731 55.2433 69.3643C56.8787 70.0555 58.4948 70.6213 58.4948 70.6213C58.4948 70.6213 57.2745 69.4435 56.4366 69.1133C49.7289 66.4546 43.558 71.4303 38.2135 70.9997Z" fill="#C2292D" stroke="#2B2A29" stroke-width="0.57" stroke-miterlimit="22.93"/>
<path fill-rule="evenodd" clip-rule="evenodd" d="M35.2344 23.5266H58.4949V21.3873H56.2282H54.4673H48.5589H42.3359H36.1129H35.2344V23.5266Z" fill="#F7EEC4" stroke="#2B2A29" stroke-width="0.57" stroke-miterlimit="22.93"/>
<path fill-rule="evenodd" clip-rule="evenodd" d="M58.4969 23.5344H35.2344V53.8483H36.8312V43.3427C36.8312 43.3427 37.144 43.1863 37.6228 42.9893V39.2551H36.7114V35.4843H41.7084V39.2551H40.828V42.2151C41.749 42.2614 42.7877 42.9256 44.0022 43.4894V39.2551H43.0909V35.4843H48.0878V39.2551H47.2074V44.2753C48.2699 44.2623 49.3304 44.1778 50.3816 44.0223V39.2551H49.4703V35.4843H54.4672V39.2551H53.5868V43.5029L53.8648 43.4624C54.7858 43.335 55.9598 43.6091 56.8962 43.9123V39.2551H56.0158V35.4843H61.1286V39.2551H60.2481V44.0262C61.0522 43.7492 61.8928 43.5924 62.7427 43.5609C62.9055 43.5609 63.068 43.5718 63.2293 43.5937L63.5575 43.642V39.2551H62.6771V35.4843H63.3992C63.3413 34.7699 63.2808 34.0555 63.2177 33.341H62.7061V28.4348V29.576H62.1056V26.3708H62.5033C62.3926 25.4208 62.2729 24.4754 62.1442 23.5344H58.4969ZM55.6586 26.3766H61.5765V29.5817H60.9857V33.343H59.3503V28.4348V29.576H57.8172V28.4348V33.343H56.1586V29.576H55.5794V26.3708L55.6586 26.3766ZM49.1266 26.3766H55.0446V29.5817H54.4441V28.4406V33.343H52.8087V29.576H51.3664V28.4348V33.343H49.731V29.576H49.1363V26.3708L49.1266 26.3766ZM42.6796 26.3766H48.5976V29.5817H47.9971V33.343H46.3617V29.576H44.9155V33.343H43.2801V29.576H42.6796V26.3708V26.3766ZM36.2326 26.3766H42.1506V29.5817H41.5501V33.343H39.9147V29.576H38.4685V33.343H36.8331V29.576H36.2326V26.3766Z" fill="#F7EEC4" stroke="#2B2A29" stroke-width="0.57" stroke-miterlimit="22.93"/>
<path fill-rule="evenodd" clip-rule="evenodd" d="M58.6514 21.3873V23.5344H62.1442C62.0618 22.9307 61.9769 22.3276 61.8893 21.7252C61.8893 21.6119 61.8893 21.5019 61.8893 21.395H58.6514V21.3873Z" fill="#F7EEC4" stroke="#2B2A29" stroke-width="0.57" stroke-miterlimit="22.93"/>
<path fill-rule="evenodd" clip-rule="evenodd" d="M62.1436 23.5344C62.2723 24.4805 62.3933 25.4279 62.5065 26.3766H68.0268V29.5817H67.4321V33.343H65.7928V28.4348V29.576H64.3447V33.343H63.2209C63.284 34.0561 63.3445 34.7705 63.4024 35.4862H67.6792V39.2571H66.7679V44.1652C67.8192 44.3186 68.8797 44.4005 69.9421 44.4104V39.2551H69.0617V35.4843H74.0567V39.2551H73.1492V43.5918C74.3637 43.0222 75.4025 42.3618 76.3235 42.3387V39.2494H75.443V35.4843H80.44V39.2551H79.5209V43.1342C79.9708 43.3272 80.2623 43.4663 80.2623 43.4663V53.8483H81.9093V23.5344H62.1436ZM68.5558 26.3766H74.4738V29.5817H73.8733V33.343H72.2379V29.576H70.7917V33.343H69.1563V29.576H68.5558V26.3708V26.3766ZM75.0028 26.3766H80.9208V29.5817H80.3203V33.343H78.6849V29.576H77.2387V33.343H75.6033V29.576H75.0028V26.3766Z" fill="#F7EEC4" stroke="#2B2A29" stroke-width="0.57" stroke-miterlimit="22.93"/>
<path fill-rule="evenodd" clip-rule="evenodd" d="M81.9131 23.5267V53.8386V54.3406H84.0524V49.4691V47.2062V39.3188V35.7352V29.574V25.9923V18.6996V17.8636H81.9131V20.1381V21.3873V23.5267Z" fill="#F7EEC4" stroke="#2B2A29" stroke-width="0.57" stroke-miterlimit="22.93"/>
<path d="M86.0627 18.6996H84.0527V25.9904H86.0627V18.6996Z" fill="#F7EEC4" stroke="#2B2A29" stroke-width="0.57" stroke-miterlimit="22.93"/>
<path d="M90.5246 18.6996H86.0625V25.9904H90.5246V18.6996Z" fill="#F7EEC4" stroke="#2B2A29" stroke-width="0.57" stroke-miterlimit="22.93"/>
<path d="M92.3964 18.6996H90.5273V25.9904H92.3964V18.6996Z" fill="#F7EEC4" stroke="#2B2A29" stroke-width="0.57" stroke-miterlimit="22.93"/>
<path d="M90.5246 16.5951H86.0625V18.7016H90.5246V16.5951Z" fill="#F7EEC4" stroke="#2B2A29" stroke-width="0.57" stroke-miterlimit="22.93"/>
<path fill-rule="evenodd" clip-rule="evenodd" d="M92.3955 18.6996V25.9923V29.574V35.7352V39.3188V47.2062V49.4691V54.3406H94.5349V17.8636H92.3955V18.6996Z" fill="#F7EEC4" stroke="#2B2A29" stroke-width="0.57" stroke-miterlimit="22.93"/>
<path fill-rule="evenodd" clip-rule="evenodd" d="M90.4244 33.4723V29.574H88.8412V33.4723H87.6151V29.574H86.0318V33.4723H84.8058V29.574H84.0527V35.7352H92.3958V29.574H91.6505V33.4723H90.4244Z" fill="#F7EEC4" stroke="#2B2A29" stroke-width="0.57" stroke-miterlimit="22.93"/>
<path fill-rule="evenodd" clip-rule="evenodd" d="M33.094 35.7352V29.574H32.341V33.4723H31.115V29.574H29.5317V33.4723H28.3056V29.574H26.7223V33.4723H25.4963V29.574H24.751V35.7352H33.094Z" fill="#F7EEC4" stroke="#2B2A29" stroke-width="0.57" stroke-miterlimit="22.93"/>
<path fill-rule="evenodd" clip-rule="evenodd" d="M33.0947 29.574V35.7352V39.3188V47.2062V49.4691V54.3406H35.2341V53.8386V23.5267V21.3873V20.1381V17.8636H33.0947V18.6996V25.9923V29.574Z" fill="#F7EEC4" stroke="#2B2A29" stroke-width="0.57" stroke-miterlimit="22.93"/>
<path d="M33.094 18.6996H31.084V25.9904H33.094V18.6996Z" fill="#F7EEC4" stroke="#2B2A29" stroke-width="0.57" stroke-miterlimit="22.93"/>
<path d="M31.0832 18.6996H26.6211V25.9904H31.0832V18.6996Z" fill="#F7EEC4" stroke="#2B2A29" stroke-width="0.57" stroke-miterlimit="22.93"/>
<path d="M26.62 18.6996H24.751V25.9904H26.62V18.6996Z" fill="#F7EEC4" stroke="#2B2A29" stroke-width="0.57" stroke-miterlimit="22.93"/>
<path d="M31.0832 16.5951H26.6211V18.7016H31.0832V16.5951Z" fill="#F7EEC4" stroke="#2B2A29" stroke-width="0.57" stroke-miterlimit="22.93"/>
<path fill-rule="evenodd" clip-rule="evenodd" d="M24.7516 25.9923V18.6996V17.8636H22.6123V54.3406H24.7516V49.4691V47.2062V39.3188V35.7352V29.574V25.9923Z" fill="#F7EEC4" stroke="#2B2A29" stroke-width="0.57" stroke-miterlimit="22.93"/>
<path fill-rule="evenodd" clip-rule="evenodd" d="M30.3291 39.3188H27.7824V43.279H25.7724V39.3188H24.751V47.2062H26.676H28.601V49.4692V54.3406H29.244V49.4692V47.2062H31.169H33.094V39.3188H32.3082V43.2152H30.3291V39.3188Z" fill="#F7EEC4" stroke="#2B2A29" stroke-width="0.57" stroke-miterlimit="22.93"/>
<path fill-rule="evenodd" clip-rule="evenodd" d="M84.0527 39.3188V47.2062H85.9778H87.9028V49.4692V54.3406H88.5458V49.4692V47.2062H90.4708H92.3958V39.3188H91.3744V43.279H89.3625V39.3188H86.8177V43.2152H84.8366V39.3188H84.0527Z" fill="#F7EEC4" stroke="#2B2A29" stroke-width="0.57" stroke-miterlimit="22.93"/>
<path fill-rule="evenodd" clip-rule="evenodd" d="M33.0947 54.3406H31.1697H29.2447H28.6017H26.6767H24.7516H22.6123V56.7927H35.2341V56.2907V54.3406H33.0947Z" fill="#F7EEC4" stroke="#2B2A29" stroke-width="0.57" stroke-miterlimit="22.93"/>
<path fill-rule="evenodd" clip-rule="evenodd" d="M35.2344 54.3406V56.2907H36.8312V53.8386H35.2344V54.3406Z" fill="#F7EEC4" stroke="#2B2A29" stroke-width="0.57" stroke-miterlimit="22.93"/>
<path fill-rule="evenodd" clip-rule="evenodd" d="M81.9131 54.3406V56.2907V56.7927H94.5348V54.3406H92.3955H90.4705H88.5454H87.9025H85.9775H84.0524H81.9131Z" fill="#F7EEC4" stroke="#2B2A29" stroke-width="0.57" stroke-miterlimit="22.93"/>
<path d="M104.44 27.564H94.5352V56.7927H104.44V27.564Z" stroke="#2B2A29" stroke-width="0.57" stroke-miterlimit="22.93"/>
<path d="M104.44 27.564H94.5352V29.5759H104.44V27.564Z" fill="#D8D9D9" stroke="#2B2A29" stroke-width="0.57" stroke-miterlimit="22.93"/>
<path d="M100.647 34.1636H97.4414V41.4544H100.647V34.1636Z" stroke="#2B2A29" stroke-width="0.57" stroke-miterlimit="22.93"/>
<path d="M100.647 34.1636H99.0439V41.4544H100.647V34.1636Z" stroke="#2B2A29" stroke-width="0.57" stroke-miterlimit="22.93"/>
<path d="M100.647 34.1636H97.4414V37.1815H100.647V34.1636Z" stroke="#2B2A29" stroke-width="0.57" stroke-miterlimit="22.93"/>
<path d="M100.647 34.1636H97.4414V35.6716H100.647V34.1636Z" stroke="#2B2A29" stroke-width="0.57" stroke-miterlimit="22.93"/>
<path d="M101.799 39.1605H96.3623V42.0838H101.799V39.1605Z" fill="#FDFDFD" stroke="#2B2A29" stroke-width="0.57" stroke-miterlimit="22.93"/>
<path fill-rule="evenodd" clip-rule="evenodd" d="M99.4877 42.7132C102.222 42.7132 104.44 44.2965 104.44 46.2486V46.2949H94.5371V46.2486C94.5352 44.2965 96.7537 42.7132 99.4877 42.7132Z" stroke="#2B2A29" stroke-width="0.57" stroke-miterlimit="22.93"/>
<path fill-rule="evenodd" clip-rule="evenodd" d="M99.4871 43.1226C101.597 43.1226 103.31 44.3448 103.31 45.8527V45.8894H95.6641V45.8527C95.6641 44.3448 97.3767 43.1226 99.4871 43.1226Z" stroke="#2B2A29" stroke-width="0.57" stroke-miterlimit="22.93"/>
<path d="M100.647 48.9343H97.4414V54.3406H100.647V48.9343Z" stroke="#2B2A29" stroke-width="0.57" stroke-miterlimit="22.93"/>
<path d="M100.647 48.9343H99.0439V54.3406H100.647V48.9343Z" stroke="#2B2A29" stroke-width="0.57" stroke-miterlimit="22.93"/>
<path d="M100.647 48.9343H97.4414V51.9522H100.647V48.9343Z" stroke="#2B2A29" stroke-width="0.57" stroke-miterlimit="22.93"/>
<path d="M100.647 48.9343H97.4414V50.4423H100.647V48.9343Z" stroke="#2B2A29" stroke-width="0.57" stroke-miterlimit="22.93"/>
<path d="M104.44 55.5667H94.5352V56.7927H104.44V55.5667Z" stroke="#2B2A29" stroke-width="0.57" stroke-miterlimit="22.93"/>
<path fill-rule="evenodd" clip-rule="evenodd" d="M100.646 39.1624H101.805V42.0857H96.3636V39.1624H97.441V34.1635H100.646V39.1605V39.1624ZM99.4877 42.7132C102.222 42.7132 104.44 44.2965 104.44 46.2485V29.5759H94.5352V46.2485C94.5352 44.2965 96.7537 42.7132 99.4877 42.7132Z" fill="#F7EEC4" stroke="#2B2A29" stroke-width="0.57" stroke-miterlimit="22.93"/>
<path fill-rule="evenodd" clip-rule="evenodd" d="M104.44 46.2968H94.5371V55.5647H104.442V46.2968H104.44ZM100.648 48.9362V54.3425H97.443V48.9362H100.648Z" fill="#F7EEC4" stroke="#2B2A29" stroke-width="0.57" stroke-miterlimit="22.93"/>
<path fill-rule="evenodd" clip-rule="evenodd" d="M99.4877 43.1226C101.598 43.1226 103.311 44.3448 103.311 45.8527V45.8894H95.6647V45.8527C95.6647 44.3448 97.3773 43.1226 99.4877 43.1226ZM94.5371 46.2968H104.44V46.2505C104.44 44.2984 102.222 42.7151 99.4877 42.7151C96.7537 42.7151 94.5352 44.2984 94.5352 46.2505L94.5371 46.2968Z" fill="#F7EEC4" stroke="#2B2A29" stroke-width="0.57" stroke-miterlimit="22.93"/>
<path fill-rule="evenodd" clip-rule="evenodd" d="M103.31 45.8508C103.31 44.3428 101.597 43.1206 99.4871 43.1206C97.3767 43.1206 95.6641 44.3428 95.6641 45.8508V45.8875H103.308L103.31 45.8508Z" fill="#F7EEC4" stroke="#2B2A29" stroke-width="0.57" stroke-miterlimit="22.93"/>
<path d="M104.44 55.5667H94.5352V56.7927H104.44V55.5667Z" fill="#F7EEC4" stroke="#2B2A29" stroke-width="0.57" stroke-miterlimit="22.93"/>
<defs>
<linearGradient id="paint0_linear" x1="39.6747" y1="57.0129" x2="58.5987" y2="57.0129" gradientUnits="userSpaceOnUse">
<stop stop-color="white"/>
<stop offset="0.26" stop-color="#E6E7E8"/>
<stop offset="0.79" stop-color="#D1D3D4"/>
<stop offset="1" stop-color="white"/>
</linearGradient>
<linearGradient id="paint1_linear" x1="16.4336" y1="54.6939" x2="54.2912" y2="34.1346" gradientUnits="userSpaceOnUse">
<stop stop-color="#E6E7E8"/>
<stop offset="1" stop-color="white"/>
</linearGradient>
<linearGradient id="paint2_linear" x1="7812.97" y1="14249.7" x2="5957.48" y2="14249.6" gradientUnits="userSpaceOnUse">
<stop stop-color="white"/>
<stop offset="0.26" stop-color="#E6E7E8"/>
<stop offset="0.79" stop-color="#D1D3D4"/>
<stop offset="1" stop-color="white"/>
</linearGradient>
<linearGradient id="paint3_linear" x1="4074.71" y1="14231" x2="5930.39" y2="14231" gradientUnits="userSpaceOnUse">
<stop stop-color="white"/>
<stop offset="0.26" stop-color="#E6E7E8"/>
<stop offset="0.79" stop-color="#D1D3D4"/>
<stop offset="1" stop-color="white"/>
</linearGradient>
</defs>
</svg>
