<svg width="28" height="30" viewBox="0 0 28 30" fill="none" xmlns="http://www.w3.org/2000/svg">
<path d="M15.8854 25.5598C15.6716 25.862 15.3586 26.0815 15.0017 26.1801L13.2265 26.665C13.0872 26.7044 12.9434 26.7248 12.7983 26.7248C12.4713 26.7248 12.1551 26.6249 11.8885 26.4372C11.4972 26.1649 11.2516 25.7354 11.2128 25.2703L11.0569 23.4372C11.02 23.0612 11.1211 22.6845 11.3349 22.3817L11.4005 22.2875H5.06843C4.55752 22.2875 4.14332 21.8663 4.14332 21.3567C4.14332 20.8451 4.55752 20.4239 5.06843 20.4239H12.7328L14.4456 17.9775H5.06843C4.55752 17.9775 4.14332 17.5563 4.14332 17.0454C4.14332 16.5345 4.55752 16.1133 5.06843 16.1133L15.7645 16.0859L19.7755 10.3348V6.07634C19.7755 5.37646 19.234 4.81146 18.5361 4.81146H15.4655V7.24132C15.4655 8.38849 14.5277 9.2958 13.3824 9.2958H7.20689C6.05908 9.2958 5.15369 8.38786 5.15369 7.24132V4.81146H2.05003C1.35079 4.81146 0.785156 5.37709 0.785156 6.07634V27.8064C0.785156 28.5063 1.35142 29.1024 2.05003 29.1024H18.5348C19.2347 29.1024 19.7749 28.5056 19.7749 27.8064V20.0364L15.8854 25.5598ZM5.06843 11.802H15.5183C16.0279 11.802 16.4428 12.2226 16.4428 12.7335C16.4428 13.2444 16.0279 13.6656 15.5183 13.6656H5.06843C4.55752 13.6656 4.14332 13.2444 4.14332 12.7335C4.14332 12.2226 4.55752 11.802 5.06843 11.802Z" fill="white"/>
<path d="M7.22381 8.07355H13.3936C13.8606 8.07355 14.2404 7.69434 14.2404 7.22606V3.67766C14.2404 3.20937 13.8606 2.83016 13.3936 2.83016H12.464C12.4577 1.63718 11.488 0.670074 10.2925 0.670074C9.09631 0.670074 8.12793 1.63655 8.12093 2.83016H7.22381C6.75553 2.83016 6.37695 3.20937 6.37695 3.67766V7.22542C6.37695 7.69371 6.75553 8.07355 7.22381 8.07355ZM10.2931 1.87323C10.8244 1.87323 11.2551 2.3008 11.2609 2.8308H9.32346C9.32982 2.3008 9.7612 1.87323 10.2931 1.87323Z" fill="white"/>
<path d="M27.5801 6.38237C27.5515 6.22458 27.4618 6.08651 27.3307 5.99489L25.7859 4.91834C25.6815 4.84517 25.5613 4.81018 25.4429 4.81018C25.2546 4.81018 25.0669 4.89926 24.9518 5.06659L14.0088 20.7586L16.5366 22.5216L27.4809 6.83029C27.5712 6.69986 27.6075 6.53889 27.5801 6.38237Z" fill="white"/>
<path d="M12.2861 23.3208L12.4445 25.1634C12.4522 25.2697 12.5088 25.3645 12.5947 25.4255C12.6558 25.4675 12.7277 25.4917 12.7989 25.4917C12.8301 25.4917 12.8619 25.4873 12.8925 25.4783L14.6772 24.9897C14.758 24.9674 14.828 24.9178 14.8763 24.8497L15.5463 23.889L13.0165 22.1253L12.3466 23.086C12.2995 23.1541 12.2772 23.2374 12.2861 23.3208Z" fill="white"/>
</svg>
