<svg width="22" height="14" fill="none" xmlns="http://www.w3.org/2000/svg"><path d="M11.263.737C7.211.737 3.537 2.954.825 6.555a.84.84 0 0 0 0 1.002c2.712 3.605 6.386 5.822 10.438 5.822 4.052 0 7.727-2.217 10.438-5.818a.84.84 0 0 0 0-1.002C18.99 2.954 15.315.737 11.263.737zm.29 10.772a4.463 4.463 0 0 1-4.741-4.742 4.47 4.47 0 0 1 4.16-4.16 4.463 4.463 0 0 1 4.742 4.741 4.485 4.485 0 0 1-4.16 4.16zm-.134-2.056a2.398 2.398 0 0 1-2.55-2.551 2.412 2.412 0 0 1 2.242-2.243 2.398 2.398 0 0 1 2.551 2.55 2.412 2.412 0 0 1-2.243 2.244z" fill="#fff"/></svg>