<svg width="29" height="23" fill="none" xmlns="http://www.w3.org/2000/svg"><path d="M15.777 16.534a.773.773 0 0 0 0 1.141.895.895 0 0 0 1.213 0l5.916-5.568a.77.77 0 0 0 .242-.611.77.77 0 0 0-.242-.611L16.99 5.317a.895.895 0 0 0-1.213 0 .773.773 0 0 0 0 1.141l4.496 4.232H1.763c-.473 0-.857.361-.857.807 0 .445.384.807.858.807h18.51l-4.497 4.23zM24.916.198H7.766c-1.894 0-3.43 1.446-3.43 3.228v3.229h1.715V3.426c0-.89.768-1.614 1.715-1.614h17.15c.947 0 1.714.723 1.714 1.614v16.141c0 .891-.767 1.614-1.714 1.614H7.766c-.947 0-1.715-.722-1.715-1.614V16.34H4.336v3.228c0 1.783 1.536 3.228 3.43 3.228h17.15c1.894 0 3.43-1.445 3.43-3.228V3.427c0-1.783-1.536-3.229-3.43-3.229z" fill="#fff"/></svg>