<svg width="105" height="97" fill="none" xmlns="http://www.w3.org/2000/svg"><path fill-rule="evenodd" clip-rule="evenodd" d="M40.072 69.617c5.924.477 15.767-6.306 18.536 1.506V45.227s-2.81-1.32-4.634-1.068c-1.822.253-4.095.808-6.798.808-2.703 0-4.715-2.072-6.349-2.072a5.46 5.46 0 0 0-1.158.143l.404 26.58z" fill="url(#paint0_linear)" stroke="#2B2A29" stroke-width=".57" stroke-miterlimit="22.93"/><path fill-rule="evenodd" clip-rule="evenodd" d="M58.599 71.123c-2.762-7.812-12.603-1.027-18.536-1.506l-.398-26.568c-.259.058-.518.128-.772.205l.409 27.433c5.344.43 10.56-4.56 17.273-1.902.853.33 2.023 2.338 2.023 2.338z" fill="#EAEBEB" stroke="#2B2A29" stroke-width=".57" stroke-miterlimit="22.93"/><path fill-rule="evenodd" clip-rule="evenodd" d="M39.318 70.685l-.41-27.433a13.73 13.73 0 0 0-1.015.36l.419 28.079c5.344.43 11.515-4.545 18.228-1.886.837.332 2.059 1.507 2.059 1.507v-.193s-1.17-2.008-2.006-2.338c-6.714-2.657-11.931 2.335-17.276 1.904z" fill="#D8D9D9" stroke="#2B2A29" stroke-width=".57" stroke-miterlimit="22.93"/><path fill-rule="evenodd" clip-rule="evenodd" d="M61.178 71.784c-1.2 2.604 1.711.805-.25 4.278-.333.58.25 6.27.25 7.299 0 2.278-3.052 0-3.398 2.643-.037.29-4.67 5.85-5.914 3.65-1.132-2.003-2.547 3.398-3.524 3.398-2.606 0-.633.637-1.51 2.39-.556 1.112-2.64.546-3.145-.386-1.655-3.024-5.95-.023-7.928.755-5.499 2.166-2.896-3.115-2.896-4.909 0-3.882 4.153-1.708 4.153-3.398 0-1.975-2.819.143-4.53 0-1.82-.152-5.475-4.842-7.55-2.769-.897.898 2.024 2.51-.754 2.51-.597 0-3.269 1.003-2.39-1.635.602-1.658.256-2.08-.267-3.435-.467-1.212-1.027 2.082-1.508 2.389-.625.4-1.834-1.398-2.074-1.823-.654-1.159-3.392-.662-3.269.942.047.61-1.762.942-2.199.942-1.494 0-.772-2.162-2.51-1.571-.965.326-1.046 1.662-2.199.691-.938-.79-.755-2.124-.755-3.269 0-1.93 2.317.06 1.257-3.143-1.133-3.398 4.377-1.319 1.446-4.024-1.62-1.495-2.703-1.643-2.703-4.4.504-7.214-5.425-4.941-6.034-8.927-.193-1.228 1.912-1.76 2.64-2.452.954-.905-1.02-4.846-1.446-5.792-1.225-2.692 1.469-2.074 3.089-2.074 2.703 0 .63-4.827.63-5.532 0-3.137 3.87-2.564 4.336-3.96-.17-1.76-2.213-4.462-.566-4.462 4.169 0 6.743-.31 5.092-4.337-.554-1.351-1.972-1.726-2.765-3.017-.664-1.08-1.912-4.304-2.954-5.02-1.186-.825-2.765-.705-2.765 1.067 0 3.202-4.464-1.23-3.71-2.073.476-.533 2.82-2.153 2.82-2.371 0-1.006-.502-1.844-.502-3.144-.894-1.93-3.05-3.232-1.321-5.908.53-.823 1.184-1.914 1.76-2.64 1.545-1.942.065-7.229 4.276-7.229 6.534 0-1.11 8.423 4.462 8.423 1.49 0 6.288-.757 6.725.25.873 2.013 4.827 1.321 7.354 1.321C30.96 7.958 37.62 8.785 41.9 8.33c.407-.042 3.068-.455 3.394-.63.755-.397 1.563-2.915 2.704-3.77.944-.716 2.388-2.064 3.645-1.887.517.074 3.325.302 2.896 1.006-1.83 2.976-2.647 5.5 1.195 7.67 2.734 1.544-.025 3.861 2.704 5.657 2.896 1.896 2.262 2.352 2.262 5.792 1.914 13.012 2.236 26.44 3.132 39.433.178 2.696 1.294 10.056-2.653 10.184z" fill="#2B2A29" stroke="#2B2A29" stroke-width=".57" stroke-miterlimit="22.93"/><path fill-rule="evenodd" clip-rule="evenodd" d="M62.374 71.343c-1.201 2.605 1.71.805-.251 4.28-.332.578.25 6.268.25 7.298 0 2.278-3.052 0-3.398 2.643-.036.29-4.67 5.85-5.914 3.65-1.131-2.003-2.547 3.397-3.523 3.397-2.607 0-.634.638-1.51 2.39-.556 1.113-2.64.547-3.146-.386-1.654-3.023-5.95-.023-7.928.756-5.499 2.166-2.896-3.115-2.896-4.909 0-3.883 4.153-1.708 4.153-3.398 0-1.975-2.819.143-4.53 0-1.82-.152-5.475-4.842-7.549-2.769-.898.898 2.024 2.51-.755 2.51-.596 0-3.269 1.002-2.39-1.635.602-1.659.257-2.08-.267-3.435-.467-1.213-1.027 2.082-1.508 2.389-.625.4-1.834-1.398-2.073-1.823-.655-1.159-3.393-.663-3.27.942.047.61-1.762.942-2.198.942-1.495 0-.773-2.162-2.51-1.572-.966.327-1.047 1.663-2.2.692-.938-.79-.755-2.124-.755-3.27 0-1.93 2.317.06 1.257-3.142-1.133-3.399 4.378-1.32 1.447-4.024-1.62-1.495-2.704-1.643-2.704-4.4.504-7.214-5.425-4.942-6.033-8.927-.193-1.228 1.911-1.76 2.639-2.452.954-.906-1.02-4.846-1.446-5.792-1.224-2.692 1.47-2.074 3.09-2.074 2.702 0 .629-4.827.629-5.532 0-3.137 3.87-2.564 4.336-3.96-.17-1.76-2.212-4.462-.566-4.462 4.17 0 6.743-.311 5.092-4.337-.554-1.351-1.971-1.728-2.765-3.018-.664-1.079-1.911-4.303-2.954-5.02-1.186-.824-2.765-.704-2.765 1.068 0 3.201-4.464-1.23-3.709-2.074.488-.544 2.829-2.17 2.829-2.388 0-1.006-.502-1.844-.502-3.143-.894-1.931-3.05-3.233-1.321-5.909.53-.822 1.184-1.913 1.76-2.64C8.066 5.868 6.586.582 10.797.582c6.534 0-1.11 8.422 4.462 8.422 1.49 0 6.288-.757 6.725.251.872 2.012 4.827 1.32 7.354 1.32 2.827-3.073 9.488-2.247 13.767-2.702.407-.043 3.068-.456 3.394-.63.755-.398 1.562-2.915 2.704-3.77.944-.717 2.388-2.065 3.645-1.887.517.073 3.325.301 2.896 1.006-1.85 2.987-2.674 5.516 1.176 7.686 2.734 1.545-.025 3.862 2.703 5.658 2.896 1.896 2.263 2.351 2.263 5.792 1.913 13.012 2.236 26.439 3.132 39.433.187 2.696 1.301 10.066-2.643 10.183z" fill="url(#paint1_linear)" stroke="#2B2A29" stroke-width=".57" stroke-miterlimit="22.93"/><path fill-rule="evenodd" clip-rule="evenodd" d="M59.307 52.319l-5.555-1.106c-1.101.017-2.009.894-1.402 2.03.216.404.666.61 1.093.71.293.069.602.028.896.096 2.203.506 4.355 1.201 6.321 2.346.948.552 2.141 1.614 1.471 2.84-.502.917-1.824 1.215-2.755 1.404-1.23.25-2.935.193-4.043.886-.295.193-.361.89-.178 1.184.278.448 1.22.359 1.545.37 1.191.043 1.91 0 2.98.562a6.267 6.267 0 0 1 2.29 2.005l-.045.02a7.22 7.22 0 0 0-2.98-2.077c-1.19-.434-2.411.025-3.62-.295-.822-.216-.73-1.31-.448-1.89.172-.354.746-.51 1.066-.595l4.582-1.049c.658-.266 1.407-.718 1.158-1.533-.386-1.28-2.392-1.898-3.475-2.305l-4.4-1.186c-1.109-.162-2.194-.637-2.335-1.874-.135-1.184.49-2.144 1.69-2.389.847-.174 6.582-.071 6.582 1.417a.426.426 0 0 1-.271.4.43.43 0 0 1-.167.029z" fill="#009746" stroke="#2B2A29" stroke-width=".57" stroke-miterlimit="22.93"/><path fill-rule="evenodd" clip-rule="evenodd" d="M50.791 54.404s3.018 2.924 4.117 3.551c.815.44 1.667.808 2.546 1.1l.386 5.793-3.363 1.415s3.016.031 4.132 0c1.116.031 4.132 0 4.132 0l-3.364-1.415.386-5.792c.879-.293 1.73-.662 2.545-1.1 1.1-.63 4.117-3.552 4.117-3.552H50.79z" fill="#FBD4A5" stroke="#2B2A29" stroke-width=".57" stroke-miterlimit="22.93"/><path fill-rule="evenodd" clip-rule="evenodd" d="M31.095 75.186h1.075v4.431h2.085v-4.431h1.076v4.431h.444v2.056h-.894v-1.158h-3.784v-5.33h-.002zm5.43 0h4.233v5.325h-1.075V76.08h-2.085v4.431h-1.076v-5.325h.002zm5.35 0h1.075v2.266a.722.722 0 0 0 .486-.192c.163-.26.292-.538.387-.829.222-.576.446-.935.672-1.075.224-.141.579-.21 1.079-.21h.156v.795h-.152c-.165-.01-.33.017-.483.08a.612.612 0 0 0-.247.25 5.18 5.18 0 0 0-.28.687 2.57 2.57 0 0 1-.212.462 1.107 1.107 0 0 1-.406.347c.239.067.448.212.595.412.197.274.369.565.513.87l.726 1.46h-1.262l-.63-1.367c-.01-.02-.029-.058-.062-.112a5.245 5.245 0 0 1-.133-.251 1.599 1.599 0 0 0-.34-.49.693.693 0 0 0-.405-.103v2.333H41.87v-5.333h.003zm6.59 5.325v-5.325h1.724c.427-.017.856.01 1.278.08.31.08.582.265.772.522.216.301.325.666.309 1.037.01.285-.052.568-.178.825a1.532 1.532 0 0 1-1.015.777c-.37.06-.743.086-1.116.078h-.701v2.008l-1.074-.002zm1.075-4.424v1.51h.58c.285.017.571-.011.849-.083a.708.708 0 0 0 .336-.26.72.72 0 0 0 .121-.413.69.69 0 0 0-.172-.48.741.741 0 0 0-.43-.235 5.098 5.098 0 0 0-.773-.037l-.511-.002zm3.626 3.01l.987-.12a.93.93 0 0 0 .254.58.716.716 0 0 0 1.033-.04.93.93 0 0 0 .217-.647.863.863 0 0 0-.207-.61.657.657 0 0 0-.504-.226 1.83 1.83 0 0 0-.47.075l.113-.83a.902.902 0 0 0 .631-.18.642.642 0 0 0 .218-.508.55.55 0 0 0-.579-.588.61.61 0 0 0-.446.181.844.844 0 0 0-.226.529l-.94-.158a2.11 2.11 0 0 1 .295-.773c.14-.198.33-.355.553-.453.249-.113.52-.17.793-.166a1.582 1.582 0 0 1 1.207.48 1.25 1.25 0 0 1 .374.887c0 .467-.257.84-.772 1.117a1.242 1.242 0 0 1 1.006 1.265 1.604 1.604 0 0 1-.512 1.195 1.914 1.914 0 0 1-2.473.078 1.633 1.633 0 0 1-.552-1.087z" fill="#C2292D"/><path d="M24.752 17.864h-2.14V54.34h2.14V17.864zm10.482 0h-2.14V54.34h2.14V17.864zm23.419 3.523H35.234v2.14h23.42v-2.14z" stroke="#2B2A29" stroke-width=".57" stroke-miterlimit="22.93"/><path d="M36.113 21.387c.486 0 .88-.559.88-1.249 0-.69-.394-1.25-.88-1.25s-.88.56-.88 1.25.394 1.25.88 1.25zm6.223 0c.486 0 .88-.559.88-1.249 0-.69-.394-1.25-.88-1.25-.487 0-.88.56-.88 1.25s.393 1.25.88 1.25zm6.222 0c.486 0 .88-.559.88-1.249 0-.69-.394-1.25-.88-1.25s-.88.56-.88 1.25.394 1.25.88 1.25zm7.669-2.247h-1.76v2.247h1.76V19.14z" stroke="#2B2A29" stroke-width=".57" stroke-miterlimit="22.93"/><path d="M55.347 19.258c.486 0 .879-.56.879-1.25s-.393-1.249-.879-1.249c-.485 0-.878.56-.878 1.25s.393 1.249.878 1.249zm3.227 1.22c.486 0 .88-.56.88-1.25s-.394-1.249-.88-1.249-.88.56-.88 1.25.394 1.249.88 1.249zM44.91 28.435h-1.635v4.908h1.636v-4.908zm3.083 0h-1.636v4.908h1.636v-4.908zm3.361 0H49.72v4.908h1.635v-4.908zm3.086 0h-1.636v4.908h1.635v-4.908zm3.36 0h-1.636v4.908H57.8v-4.908zm-19.335 0h-1.636v4.908h1.636v-4.908zm3.082 0h-1.635v4.908h1.636v-4.908zm-.721 8.808h-3.205v7.291h3.205v-7.29z" stroke="#2B2A29" stroke-width=".57" stroke-miterlimit="22.93"/><path fill-rule="evenodd" clip-rule="evenodd" d="M41.706 35.484h-4.997v3.771h.911v-2.012h3.207v2.012h.879v-3.77z" fill="#FDFDFD" stroke="#2B2A29" stroke-width=".57" stroke-miterlimit="22.93"/><path d="M39.224 37.243H37.62v7.291h1.603v-7.29z" stroke="#2B2A29" stroke-width=".57" stroke-miterlimit="22.93"/><path d="M40.826 37.243h-3.205v3.018h3.205v-3.018z" stroke="#2B2A29" stroke-width=".57" stroke-miterlimit="22.93"/><path d="M40.826 37.243h-3.205v1.508h3.205v-1.508zm6.38 0h-3.205v7.291h3.205v-7.29z" stroke="#2B2A29" stroke-width=".57" stroke-miterlimit="22.93"/><path fill-rule="evenodd" clip-rule="evenodd" d="M48.088 35.484H43.09v3.771h.911v-2.012h3.205v2.012h.88v-3.77z" fill="#FDFDFD" stroke="#2B2A29" stroke-width=".57" stroke-miterlimit="22.93"/><path d="M45.604 37.243H44v7.291h1.603v-7.29z" stroke="#2B2A29" stroke-width=".57" stroke-miterlimit="22.93"/><path d="M47.206 37.243h-3.205v3.018h3.205v-3.018z" stroke="#2B2A29" stroke-width=".57" stroke-miterlimit="22.93"/><path d="M47.206 37.243h-3.205v1.508h3.205v-1.508zm6.38 0h-3.205v7.291h3.205v-7.29z" stroke="#2B2A29" stroke-width=".57" stroke-miterlimit="22.93"/><path fill-rule="evenodd" clip-rule="evenodd" d="M54.468 35.484H49.47v3.771h.911v-2.012h3.205v2.012h.88v-3.77z" fill="#FDFDFD" stroke="#2B2A29" stroke-width=".57" stroke-miterlimit="22.93"/><path d="M51.983 37.243h-1.602v7.291h1.602v-7.29z" stroke="#2B2A29" stroke-width=".57" stroke-miterlimit="22.93"/><path d="M53.586 37.243h-3.205v3.018h3.205v-3.018z" stroke="#2B2A29" stroke-width=".57" stroke-miterlimit="22.93"/><path d="M53.586 37.243h-3.205v1.508h3.205v-1.508zm6.664 0h-3.206v7.291h3.205v-7.29z" stroke="#2B2A29" stroke-width=".57" stroke-miterlimit="22.93"/><path fill-rule="evenodd" clip-rule="evenodd" d="M61.13 35.484h-4.996v3.771h.911v-2.012h3.205v2.012h.88v-3.77z" fill="#FDFDFD" stroke="#2B2A29" stroke-width=".57" stroke-miterlimit="22.93"/><path d="M58.647 37.243h-1.603v7.291h1.603v-7.29z" stroke="#2B2A29" stroke-width=".57" stroke-miterlimit="22.93"/><path d="M60.25 37.243h-3.206v3.018h3.205v-3.018z" stroke="#2B2A29" stroke-width=".57" stroke-miterlimit="22.93"/><path d="M60.25 37.243h-3.206v1.508h3.205v-1.508z" stroke="#2B2A29" stroke-width=".57" stroke-miterlimit="22.93"/><path fill-rule="evenodd" clip-rule="evenodd" d="M42.147 26.369h-5.919v3.205h.601v-1.14h1.635v1.14h1.447v-1.14h1.637v1.14h.599v-3.205zm6.449 0h-5.918v3.205h.598v-1.14h1.636v1.14h1.448v-1.14h1.635v1.14h.6v-3.205zm6.446 0h-5.918v3.205h.599v-1.14h1.637v1.14h1.446v-1.14h1.636v1.14h.6v-3.205zm6.448 0h-5.92v3.205h.6v-1.14h1.636v1.14h1.448v-1.14h1.636v1.14h.598v-3.205z" fill="#FDFDFD" stroke="#2B2A29" stroke-width=".57" stroke-miterlimit="22.93"/><path d="M26.723 28.004h-1.226v5.468h1.226v-5.468z" stroke="#2B2A29" stroke-width=".57" stroke-miterlimit="22.93"/><path clip-rule="evenodd" d="M28.307 28.004h1.226v5.468h-1.226v-5.468z" stroke="#2B2A29" stroke-width=".57" stroke-miterlimit="22.93"/><path d="M32.342 28.004h-1.226v5.468h1.226v-5.468z" stroke="#2B2A29" stroke-width=".57" stroke-miterlimit="22.93"/><path fill-rule="evenodd" clip-rule="evenodd" d="M33.094 25.992h-8.343v3.582h.745v-1.572h1.226v1.572h1.584v-1.572h1.226v1.572h1.583v-1.572h1.226v1.572h.753v-3.582z" fill="#FDFDFD" stroke="#2B2A29" stroke-width=".57" stroke-miterlimit="22.93"/><path d="M31.083 16.595h-4.462v9.397h4.462v-9.397z" stroke="#2B2A29" stroke-width=".57" stroke-miterlimit="22.93"/><path d="M33.094 18.7h-8.343v7.29h8.343V18.7zm2.14 35.64H22.612v2.453h12.622V54.34zm12.622-.501H35.234v2.452h12.622v-2.452zM33.094 35.735h-8.343v3.584h8.343v-3.584z" stroke="#2B2A29" stroke-width=".57" stroke-miterlimit="22.93"/><path clip-rule="evenodd" d="M25.773 37.496h2.002v5.793h-2.002v-5.793zm4.556 0h1.98v5.721h-1.98v-5.72z" stroke="#2B2A29" stroke-width=".57" stroke-miterlimit="22.93"/><path d="M28.601 47.206h-3.85v7.135h3.85v-7.135zm4.494 0h-3.85v7.135h3.85v-7.135z" stroke="#2B2A29" stroke-width=".57" stroke-miterlimit="22.93"/><path d="M26.676 47.206h-1.925v7.135h1.925v-7.135zm4.494 0h-1.925v7.135h1.925v-7.135z" stroke="#2B2A29" stroke-width=".57" stroke-miterlimit="22.93"/><path d="M28.601 49.47h-3.85v4.87h3.85v-4.87zm4.494 0h-3.85v4.87h3.85v-4.87zm61.44-31.606h-2.14V54.34h2.14V17.864zm-10.483 0h-2.139V54.34h2.14V17.864z" stroke="#2B2A29" stroke-width=".57" stroke-miterlimit="22.93"/><path d="M81.916 21.387H58.497v2.14h23.419v-2.14z" stroke="#2B2A29" stroke-width=".57" stroke-miterlimit="22.93"/><path d="M81.035 21.387c.486 0 .88-.559.88-1.249 0-.69-.394-1.25-.88-1.25s-.88.56-.88 1.25.394 1.25.88 1.25zm-6.223 0c.486 0 .88-.559.88-1.249 0-.69-.394-1.25-.88-1.25s-.88.56-.88 1.25.394 1.25.88 1.25zm-6.224 0c.487 0 .88-.559.88-1.249 0-.69-.393-1.25-.88-1.25-.486 0-.88.56-.88 1.25s.394 1.25.88 1.25zM62.68 19.14h-1.761v2.247h1.76V19.14z" stroke="#2B2A29" stroke-width=".57" stroke-miterlimit="22.93"/><path d="M61.8 19.258c.486 0 .88-.56.88-1.25s-.394-1.249-.88-1.249c-.487 0-.881.56-.881 1.25s.394 1.249.88 1.249zm-3.226 1.22c.486 0 .88-.56.88-1.25s-.394-1.249-.88-1.249-.88.56-.88 1.25.394 1.249.88 1.249z" stroke="#2B2A29" stroke-width=".57" stroke-miterlimit="22.93"/><path fill-rule="evenodd" clip-rule="evenodd" d="M74.812 21.387c.486 0 .88-.56.88-1.249 0 0 1.031.14 2.362.193a6.176 6.176 0 0 0 2.102-.193c0 .69.386 1.25.88 1.25H62.68v-2.246s1.545.566 2.765.88a3.862 3.862 0 0 0 2.284-.144 1.757 1.757 0 0 0-.019.262c0 .69.386 1.25.88 1.25.495 0 .881-.56.881-1.25 0-.07-.004-.14-.012-.21.751.275 1.54.433 2.339.469a5.478 5.478 0 0 0 2.156-.533 1.772 1.772 0 0 0-.02.278c0 .69.385 1.25.88 1.25l-.002-.007zm-32.477 0c-.486 0-.88-.56-.88-1.249 0 0-1.031.14-2.361.193a6.176 6.176 0 0 1-2.103-.193c0 .69-.386 1.25-.88 1.25h18.354v-2.246s-1.545.566-2.765.88a3.863 3.863 0 0 1-2.284-.144c.013.086.019.174.019.262 0 .69-.386 1.25-.88 1.25-.495 0-.881-.56-.881-1.25 0-.07.004-.14.012-.21a7.793 7.793 0 0 1-2.34.469 5.48 5.48 0 0 1-2.153-.533c.014.092.021.185.02.278 0 .69-.385 1.25-.88 1.25l.002-.007zm16.239-4.906c-.08-.015-.334-.023-.987.272a4.778 4.778 0 0 0-1.385.966c.017.097.025.195.026.293a1.35 1.35 0 0 1-.506 1.132h.505v2.247h4.692v-2.25h.506a1.352 1.352 0 0 1-.506-1.13 1.7 1.7 0 0 1 .026-.294 4.774 4.774 0 0 0-1.385-.965c-.653-.296-.907-.288-.986-.273v.002zm-.024 3.995c-.475-.017-.855-.58-.855-1.25s.386-1.23.855-1.248h.049c.475.017.855.579.855 1.249 0 .67-.386 1.23-.855 1.249h-.049z" fill="#D8D9D9" stroke="#2B2A29" stroke-width=".57" stroke-miterlimit="22.93"/><path d="M73.872 28.435h-1.636v4.908h1.636v-4.908zm-3.084 0h-1.636v4.908h1.636v-4.908zm-3.361 0h-1.635v4.908h1.635v-4.908zm-3.081 0h-1.635v4.908h1.635v-4.908zm-3.362 0h-1.635v4.908h1.635v-4.908zm19.335 0h-1.635v4.908h1.635v-4.908zm-3.084 0H75.6v4.908h1.635v-4.908zm2.29 8.808H76.32v7.291h3.206v-7.29z" stroke="#2B2A29" stroke-width=".57" stroke-miterlimit="22.93"/><path fill-rule="evenodd" clip-rule="evenodd" d="M75.44 35.484h4.997v3.771h-.911v-2.012h-3.205v2.012h-.88v-3.77z" fill="#FDFDFD" stroke="#2B2A29" stroke-width=".57" stroke-miterlimit="22.93"/><path d="M79.525 37.243h-1.602v7.291h1.602v-7.29z" stroke="#2B2A29" stroke-width=".57" stroke-miterlimit="22.93"/><path d="M79.525 37.243H76.32v3.018h3.206v-3.018z" stroke="#2B2A29" stroke-width=".57" stroke-miterlimit="22.93"/><path d="M79.525 37.243H76.32v1.508h3.206v-1.508zm-6.378 0H69.94v7.291h3.206v-7.29z" stroke="#2B2A29" stroke-width=".57" stroke-miterlimit="22.93"/><path fill-rule="evenodd" clip-rule="evenodd" d="M69.06 35.484h4.998v3.771h-.912v-2.012h-3.205v2.012h-.88v-3.77z" fill="#FDFDFD" stroke="#2B2A29" stroke-width=".57" stroke-miterlimit="22.93"/><path d="M73.147 37.243h-1.603v7.291h1.603v-7.29z" stroke="#2B2A29" stroke-width=".57" stroke-miterlimit="22.93"/><path d="M73.147 37.243H69.94v3.018h3.206v-3.018z" stroke="#2B2A29" stroke-width=".57" stroke-miterlimit="22.93"/><path d="M73.147 37.243H69.94v1.508h3.206v-1.508zm-6.382 0H63.56v7.291h3.205v-7.29z" stroke="#2B2A29" stroke-width=".57" stroke-miterlimit="22.93"/><path fill-rule="evenodd" clip-rule="evenodd" d="M62.68 35.484h4.997v3.771h-.912v-2.012h-3.207v2.012h-.878v-3.77z" fill="#FDFDFD" stroke="#2B2A29" stroke-width=".57" stroke-miterlimit="22.93"/><path d="M66.766 37.243h-1.603v7.291h1.603v-7.29z" stroke="#2B2A29" stroke-width=".57" stroke-miterlimit="22.93"/><path d="M66.765 37.243H63.56v3.018h3.205v-3.018z" stroke="#2B2A29" stroke-width=".57" stroke-miterlimit="22.93"/><path d="M66.765 37.243H63.56v1.508h3.205v-1.508zm-6.665 0h-3.205v7.291h3.206v-7.29z" stroke="#2B2A29" stroke-width=".57" stroke-miterlimit="22.93"/><path fill-rule="evenodd" clip-rule="evenodd" d="M56.019 35.484h4.997v3.771h-.912v-2.012h-3.207v2.012h-.878v-3.77z" fill="#FDFDFD" stroke="#2B2A29" stroke-width=".57" stroke-miterlimit="22.93"/><path d="M60.104 37.243H58.5v7.291h1.603v-7.29z" stroke="#2B2A29" stroke-width=".57" stroke-miterlimit="22.93"/><path d="M60.1 37.243h-3.205v3.018h3.206v-3.018z" stroke="#2B2A29" stroke-width=".57" stroke-miterlimit="22.93"/><path d="M60.1 37.243h-3.205v1.508h3.206v-1.508z" stroke="#2B2A29" stroke-width=".57" stroke-miterlimit="22.93"/><path fill-rule="evenodd" clip-rule="evenodd" d="M75 26.369h5.918v3.205h-.599v-1.14h-1.635v1.14h-1.448v-1.14H75.6v1.14H75v-3.205zm-6.448 0h5.918v3.205h-.6v-1.14h-1.636v1.14h-1.446v-1.14h-1.636v1.14h-.6v-3.205zm-6.447 0h5.918v3.205h-.6v-1.14h-1.636v1.14h-1.446v-1.14h-1.637v1.14h-.599v-3.205zm-6.448 0h5.918v3.205h-.598v-1.14H59.34v1.14h-1.448v-1.14h-1.635v1.14h-.6v-3.205z" fill="#FDFDFD" stroke="#2B2A29" stroke-width=".57" stroke-miterlimit="22.93"/><path d="M91.65 28.004h-1.226v5.468h1.226v-5.468z" stroke="#2B2A29" stroke-width=".57" stroke-miterlimit="22.93"/><path clip-rule="evenodd" d="M88.84 28.004h-1.226v5.468h1.226v-5.468z" stroke="#2B2A29" stroke-width=".57" stroke-miterlimit="22.93"/><path d="M86.033 28.004h-1.226v5.468h1.226v-5.468z" stroke="#2B2A29" stroke-width=".57" stroke-miterlimit="22.93"/><path fill-rule="evenodd" clip-rule="evenodd" d="M84.053 25.992h8.343v3.582h-.746v-1.572h-1.226v1.572h-1.583v-1.572h-1.226v1.572h-1.583v-1.572h-1.226v1.572h-.753v-3.582z" fill="#FDFDFD" stroke="#2B2A29" stroke-width=".57" stroke-miterlimit="22.93"/><path d="M90.525 16.595h-4.463v9.397h4.463v-9.397z" stroke="#2B2A29" stroke-width=".57" stroke-miterlimit="22.93"/><path d="M92.396 18.7h-8.343v7.29h8.343V18.7zm2.139 35.64H81.913v2.453h12.622V54.34zm-12.622-.501H69.29v2.452h12.622v-2.452zm10.483-18.104h-8.343v3.584h8.343v-3.584z" stroke="#2B2A29" stroke-width=".57" stroke-miterlimit="22.93"/><path clip-rule="evenodd" d="M91.375 37.496h-2.006v5.793h2.011v-5.793h-.005zm-4.557 0h-1.98v5.721h1.98v-5.72z" stroke="#2B2A29" stroke-width=".57" stroke-miterlimit="22.93"/><path d="M92.397 47.206h-3.85v7.135h3.85v-7.135zm-4.494 0h-3.85v7.135h3.85v-7.135z" stroke="#2B2A29" stroke-width=".57" stroke-miterlimit="22.93"/><path d="M92.396 47.206H90.47v7.135h1.925v-7.135zm-4.493 0h-1.925v7.135h1.925v-7.135z" stroke="#2B2A29" stroke-width=".57" stroke-miterlimit="22.93"/><path d="M92.397 49.47h-3.85v4.87h3.85v-4.87zm-4.494 0h-3.85v4.87h3.85v-4.87z" stroke="#2B2A29" stroke-width=".57" stroke-miterlimit="22.93"/><path fill-rule="evenodd" clip-rule="evenodd" d="M38.314 71.69l-.42-28.075c-.58.228-.966.42-.966.42V72.98h2.703s5.155-.848 7.916-2.168c2.761-1.321 6.16-1.447 7.795-.756 1.635.692 3.251 1.257 3.251 1.257s-1.22-1.177-2.058-1.507c-6.707-2.66-12.876 2.316-18.22 1.886z" fill="#C2292D" stroke="#2B2A29" stroke-width=".57" stroke-miterlimit="22.93"/><path fill-rule="evenodd" clip-rule="evenodd" d="M77.126 69.052c-5.924.476-15.767-6.307-18.536 1.505V44.662s2.811-1.32 4.634-1.067c1.822.253 4.085.816 6.789.816 2.703 0 4.715-2.071 6.348-2.071.39.006.779.054 1.159.142l-.394 26.57z" fill="url(#paint2_linear)" stroke="#2B2A29" stroke-width=".57" stroke-miterlimit="22.93"/><path fill-rule="evenodd" clip-rule="evenodd" d="M58.597 70.558c2.76-7.813 12.602-1.028 18.535-1.507l.398-26.57c.259.058.518.128.773.205l-.41 27.433c-5.344.43-10.56-4.56-17.273-1.902-.851.332-2.023 2.34-2.023 2.34z" fill="#EAEBEB" stroke="#2B2A29" stroke-width=".57" stroke-miterlimit="22.93"/><path fill-rule="evenodd" clip-rule="evenodd" d="M77.878 70.12l.41-27.434c.368.114.716.242 1.015.36l-.42 28.08c-5.344.43-11.515-4.546-18.228-1.887-.836.332-2.058 1.508-2.058 1.508v-.193s1.17-2.008 2.006-2.338c6.715-2.657 11.93 2.334 17.275 1.903z" fill="#D8D9D9" stroke="#2B2A29" stroke-width=".57" stroke-miterlimit="22.93"/><path fill-rule="evenodd" clip-rule="evenodd" d="M78.885 71.125l.419-28.08c.58.228.965.421.965.421v28.947h-2.703s-5.155-.848-7.916-2.168c-2.761-1.321-6.16-1.447-7.795-.755a62.87 62.87 0 0 1-3.252 1.257s1.22-1.178 2.059-1.508c6.707-2.659 12.875 2.317 18.223 1.886z" fill="#C2292D" stroke="#2B2A29" stroke-width=".57" stroke-miterlimit="22.93"/><path fill-rule="evenodd" clip-rule="evenodd" d="M39.975 68.926c5.924.477 15.767-6.306 18.536 1.506V44.536s-2.812-1.32-4.634-1.068c-1.823.253-4.09.817-6.793.817-2.703 0-4.715-2.072-6.348-2.072a5.46 5.46 0 0 0-1.159.143l.398 26.57z" fill="url(#paint3_linear)" stroke="#2B2A29" stroke-width=".57" stroke-miterlimit="22.93"/><path fill-rule="evenodd" clip-rule="evenodd" d="M58.5 70.43c-2.761-7.812-12.603-1.027-18.536-1.506l-.398-26.568a10.78 10.78 0 0 0-.772.205l.41 27.433c5.344.43 10.559-4.56 17.272-1.902.854.332 2.024 2.338 2.024 2.338z" fill="#EAEBEB" stroke="#2B2A29" stroke-width=".57" stroke-miterlimit="22.93"/><path fill-rule="evenodd" clip-rule="evenodd" d="M39.219 69.994l-.41-27.433c-.368.114-.716.241-1.015.359L38.213 71c5.344.43 11.515-4.545 18.229-1.887.836.332 2.058 1.508 2.058 1.508v-.193s-1.17-2.008-2.006-2.338c-6.708-2.657-11.93 2.334-17.275 1.904z" fill="#D8D9D9" stroke="#2B2A29" stroke-width=".57" stroke-miterlimit="22.93"/><path fill-rule="evenodd" clip-rule="evenodd" d="M59.21 51.628l-5.561-1.107c-1.1.018-2.008.894-1.402 2.032.217.403.666.608 1.093.708.294.07.602.03.896.097 2.203.506 4.356 1.2 6.322 2.346.947.552 2.14 1.614 1.47 2.84-.501.917-1.824 1.215-2.755 1.404-1.23.25-2.934.193-4.043.886-.295.193-.36.89-.177 1.183.278.448 1.22.36 1.544.371 1.192.043 1.91 0 2.98.562a6.267 6.267 0 0 1 2.293 2.006l-.044.022a7.22 7.22 0 0 0-2.98-2.078c-1.19-.434-2.41.025-3.62-.295-.822-.217-.73-1.31-.447-1.89.171-.354.745-.51 1.065-.596l4.582-1.048c.659-.266 1.408-.718 1.159-1.533-.386-1.28-2.393-1.898-3.476-2.305l-4.406-1.192c-1.108-.162-2.193-.637-2.334-1.874-.135-1.184.49-2.144 1.69-2.389.849-.174 6.581-.071 6.581 1.417a.43.43 0 0 1-.43.433z" fill="#009746" stroke="#2B2A29" stroke-width=".57" stroke-miterlimit="22.93"/><path fill-rule="evenodd" clip-rule="evenodd" d="M50.69 53.713s3.018 2.923 4.117 3.553c.815.439 1.666.807 2.545 1.1l.386 5.793-3.364 1.413s3.016.031 4.132 0c1.116.031 4.132 0 4.132 0l-3.363-1.413.386-5.793a16.143 16.143 0 0 0 2.547-1.1c1.1-.63 4.116-3.55 4.116-3.55l-15.634-.003z" fill="#FBD4A5" stroke="#2B2A29" stroke-width=".57" stroke-miterlimit="22.93"/><path fill-rule="evenodd" clip-rule="evenodd" d="M38.214 71l-.42-28.08c-.579.228-.965.42-.965.42v28.948h2.703s5.156-.848 7.917-2.169c2.76-1.32 6.159-1.446 7.794-.755 1.636.691 3.252 1.257 3.252 1.257s-1.22-1.177-2.058-1.508C49.729 66.455 43.558 71.43 38.214 71z" fill="#C2292D" stroke="#2B2A29" stroke-width=".57" stroke-miterlimit="22.93"/><path fill-rule="evenodd" clip-rule="evenodd" d="M35.234 23.527h23.26v-2.14h-23.26v2.14zm23.263.007H35.234v30.314h1.597V43.343s.313-.157.792-.354v-3.734h-.912v-3.77h4.997v3.77h-.88v2.96c.921.046 1.96.71 3.174 1.274v-4.234h-.911v-3.77h4.997v3.77h-.88v5.02a23.67 23.67 0 0 0 3.174-.253v-4.767h-.912v-3.77h4.997v3.77h-.88v4.248l.278-.04c.92-.128 2.095.146 3.031.45v-4.658h-.88v-3.77h5.113v3.77h-.88v4.771a8.642 8.642 0 0 1 2.494-.465c.163 0 .325.01.486.033l.328.048v-4.387h-.88v-3.77h.722a298.13 298.13 0 0 0-.181-2.144h-.512v-4.906 1.141h-.6v-3.205h.397a143.5 143.5 0 0 0-.359-2.837h-3.647zm-2.838 2.843h5.918v3.205h-.591v3.761H59.35v-4.908 1.141h-1.533v-1.141 4.908H56.16v-3.767h-.58v-3.205l.08.006zm-6.532 0h5.918v3.205h-.6V28.44v4.902h-1.636v-3.767h-1.443v-1.141 4.908h-1.635v-3.767h-.595V26.37l-.01.006zm-6.447 0h5.918v3.205h-.6v3.761h-1.636v-3.767h-1.447v3.767H43.28v-3.767h-.6v-3.205.006zm-6.447 0h5.918v3.205h-.6v3.761h-1.636v-3.767h-1.447v3.767h-1.635v-3.767h-.6v-3.2zm22.418-4.99v2.147h3.493c-.082-.603-.167-1.206-.255-1.809v-.33h-3.238v-.008z" fill="#F7EEC4" stroke="#2B2A29" stroke-width=".57" stroke-miterlimit="22.93"/><path fill-rule="evenodd" clip-rule="evenodd" d="M62.144 23.534c.128.947.25 1.894.363 2.843h5.52v3.205h-.595v3.761h-1.64v-4.908 1.141h-1.447v3.767H63.22c.063.713.123 1.427.181 2.143h4.277v3.771h-.911v4.908a23.5 23.5 0 0 0 3.174.245v-5.155h-.88v-3.77h4.995v3.77h-.908v4.337c1.215-.57 2.254-1.23 3.174-1.253v-3.09h-.88v-3.765h4.997v3.771h-.92v3.88c.45.192.742.331.742.331v10.382h1.647V23.534H62.144zm6.412 2.843h5.918v3.205h-.6v3.761h-1.636v-3.767h-1.446v3.767h-1.636v-3.767h-.6v-3.205.006zm6.447 0h5.918v3.205h-.6v3.761h-1.636v-3.767h-1.446v3.767h-1.636v-3.767h-.6v-3.2zm6.91-2.85V54.34h2.14V17.864h-2.14v5.663z" fill="#F7EEC4" stroke="#2B2A29" stroke-width=".57" stroke-miterlimit="22.93"/><path d="M86.063 18.7h-2.01v7.29h2.01V18.7z" fill="#F7EEC4" stroke="#2B2A29" stroke-width=".57" stroke-miterlimit="22.93"/><path d="M90.525 18.7h-4.463v7.29h4.463V18.7zm1.871 0h-1.869v7.29h1.87V18.7z" fill="#F7EEC4" stroke="#2B2A29" stroke-width=".57" stroke-miterlimit="22.93"/><path d="M90.525 16.595h-4.463v2.107h4.463v-2.107z" fill="#F7EEC4" stroke="#2B2A29" stroke-width=".57" stroke-miterlimit="22.93"/><path fill-rule="evenodd" clip-rule="evenodd" d="M92.395 18.7v35.64h2.14V17.864h-2.14v.836z" fill="#F7EEC4" stroke="#2B2A29" stroke-width=".57" stroke-miterlimit="22.93"/><path fill-rule="evenodd" clip-rule="evenodd" d="M90.424 33.472v-3.898h-1.583v3.898h-1.226v-3.898h-1.583v3.898h-1.226v-3.898h-.753v6.161h8.343v-6.161h-.746v3.898h-1.226zm-57.33 2.263v-6.161h-.753v3.898h-1.226v-3.898h-1.583v3.898h-1.226v-3.898h-1.584v3.898h-1.226v-3.898h-.745v6.161h8.343zm.001-6.161v24.767h2.14V17.864h-2.14v11.71z" fill="#F7EEC4" stroke="#2B2A29" stroke-width=".57" stroke-miterlimit="22.93"/><path d="M33.094 18.7h-2.01v7.29h2.01V18.7zm-2.011 0h-4.462v7.29h4.462V18.7zm-4.463 0h-1.869v7.29h1.869V18.7z" fill="#F7EEC4" stroke="#2B2A29" stroke-width=".57" stroke-miterlimit="22.93"/><path d="M31.083 16.595h-4.462v2.107h4.462v-2.107z" fill="#F7EEC4" stroke="#2B2A29" stroke-width=".57" stroke-miterlimit="22.93"/><path fill-rule="evenodd" clip-rule="evenodd" d="M24.752 25.992v-8.128h-2.14V54.34h2.14V25.992z" fill="#F7EEC4" stroke="#2B2A29" stroke-width=".57" stroke-miterlimit="22.93"/><path fill-rule="evenodd" clip-rule="evenodd" d="M30.33 39.319h-2.548v3.96h-2.01v-3.96h-1.021v7.887h3.85v7.135h.643v-7.135h3.85V39.32h-.786v3.896H30.33V39.32zm53.723 0v7.887h3.85v7.135h.643v-7.135h3.85V39.32h-1.022v3.96h-2.011v-3.96h-2.545v3.896h-1.981V39.32h-.784z" fill="#F7EEC4" stroke="#2B2A29" stroke-width=".57" stroke-miterlimit="22.93"/><path fill-rule="evenodd" clip-rule="evenodd" d="M33.095 54.34H22.612v2.453h12.622V54.34h-2.14zm2.139 0v1.95h1.597v-2.45h-1.597v.502zm46.679 0v2.453h12.622V54.34H81.913z" fill="#F7EEC4" stroke="#2B2A29" stroke-width=".57" stroke-miterlimit="22.93"/><path d="M104.44 27.564h-9.905v29.229h9.905V27.564z" stroke="#2B2A29" stroke-width=".57" stroke-miterlimit="22.93"/><path d="M104.44 27.564h-9.905v2.012h9.905v-2.012z" fill="#D8D9D9" stroke="#2B2A29" stroke-width=".57" stroke-miterlimit="22.93"/><path d="M100.647 34.164h-3.206v7.29h3.206v-7.29z" stroke="#2B2A29" stroke-width=".57" stroke-miterlimit="22.93"/><path d="M100.647 34.164h-1.603v7.29h1.603v-7.29z" stroke="#2B2A29" stroke-width=".57" stroke-miterlimit="22.93"/><path d="M100.647 34.164h-3.206v3.017h3.206v-3.017z" stroke="#2B2A29" stroke-width=".57" stroke-miterlimit="22.93"/><path d="M100.647 34.164h-3.206v1.508h3.206v-1.508z" stroke="#2B2A29" stroke-width=".57" stroke-miterlimit="22.93"/><path d="M101.799 39.16h-5.437v2.924h5.437V39.16z" fill="#FDFDFD" stroke="#2B2A29" stroke-width=".57" stroke-miterlimit="22.93"/><path clip-rule="evenodd" d="M99.488 42.713c2.734 0 4.952 1.584 4.952 3.536v.046h-9.903v-.046c-.002-1.953 2.217-3.536 4.95-3.536z" stroke="#2B2A29" stroke-width=".57" stroke-miterlimit="22.93"/><path clip-rule="evenodd" d="M99.487 43.123c2.11 0 3.823 1.222 3.823 2.73v.036h-7.646v-.036c0-1.508 1.713-2.73 3.823-2.73z" stroke="#2B2A29" stroke-width=".57" stroke-miterlimit="22.93"/><path d="M100.647 48.934h-3.206v5.407h3.206v-5.407z" stroke="#2B2A29" stroke-width=".57" stroke-miterlimit="22.93"/><path d="M100.647 48.934h-1.603v5.407h1.603v-5.407z" stroke="#2B2A29" stroke-width=".57" stroke-miterlimit="22.93"/><path d="M100.647 48.934h-3.206v3.018h3.206v-3.018z" stroke="#2B2A29" stroke-width=".57" stroke-miterlimit="22.93"/><path d="M100.647 48.934h-3.206v1.508h3.206v-1.508zm3.793 6.633h-9.905v1.226h9.905v-1.226z" stroke="#2B2A29" stroke-width=".57" stroke-miterlimit="22.93"/><path fill-rule="evenodd" clip-rule="evenodd" d="M100.646 39.162h1.159v2.924h-5.441v-2.924h1.077v-4.998h3.205v4.998zm-1.158 3.551c2.734 0 4.952 1.584 4.952 3.535V29.576h-9.905v16.672c0-1.951 2.219-3.535 4.953-3.535zm4.952 3.584h-9.903v9.268h9.905v-9.268h-.002zm-3.792 2.64v5.406h-3.205v-5.407h3.205z" fill="#F7EEC4" stroke="#2B2A29" stroke-width=".57" stroke-miterlimit="22.93"/><path fill-rule="evenodd" clip-rule="evenodd" d="M99.488 43.123c2.11 0 3.823 1.222 3.823 2.73v.036h-7.646v-.036c0-1.508 1.712-2.73 3.823-2.73zm-4.95 3.174h9.902v-.046c0-1.953-2.218-3.536-4.952-3.536s-4.953 1.583-4.953 3.535l.002.047z" fill="#F7EEC4" stroke="#2B2A29" stroke-width=".57" stroke-miterlimit="22.93"/><path fill-rule="evenodd" clip-rule="evenodd" d="M103.31 45.85c0-1.507-1.713-2.73-3.823-2.73s-3.823 1.223-3.823 2.73v.038h7.644l.002-.037z" fill="#F7EEC4" stroke="#2B2A29" stroke-width=".57" stroke-miterlimit="22.93"/><path d="M104.44 55.567h-9.905v1.226h9.905v-1.226z" fill="#F7EEC4" stroke="#2B2A29" stroke-width=".57" stroke-miterlimit="22.93"/><defs><linearGradient id="paint0_linear" x1="39.675" y1="57.013" x2="58.599" y2="57.013" gradientUnits="userSpaceOnUse"><stop stop-color="#fff"/><stop offset=".26" stop-color="#E6E7E8"/><stop offset=".79" stop-color="#D1D3D4"/><stop offset="1" stop-color="#fff"/></linearGradient><linearGradient id="paint1_linear" x1="16.434" y1="54.694" x2="54.291" y2="34.135" gradientUnits="userSpaceOnUse"><stop stop-color="#E6E7E8"/><stop offset="1" stop-color="#fff"/></linearGradient><linearGradient id="paint2_linear" x1="7812.97" y1="14249.7" x2="5957.48" y2="14249.6" gradientUnits="userSpaceOnUse"><stop stop-color="#fff"/><stop offset=".26" stop-color="#E6E7E8"/><stop offset=".79" stop-color="#D1D3D4"/><stop offset="1" stop-color="#fff"/></linearGradient><linearGradient id="paint3_linear" x1="4074.71" y1="14231" x2="5930.39" y2="14231" gradientUnits="userSpaceOnUse"><stop stop-color="#fff"/><stop offset=".26" stop-color="#E6E7E8"/><stop offset=".79" stop-color="#D1D3D4"/><stop offset="1" stop-color="#fff"/></linearGradient></defs></svg>