<svg width="28" height="30" fill="none" xmlns="http://www.w3.org/2000/svg"><path d="M15.885 25.56a1.608 1.608 0 0 1-.883.62l-1.776.485a1.572 1.572 0 0 1-1.338-.228 1.584 1.584 0 0 1-.675-1.167l-.156-1.833a1.57 1.57 0 0 1 .278-1.055l.065-.095H5.068a.931.931 0 1 1 0-1.864h7.665l1.713-2.445H5.068a.931.931 0 0 1-.925-.933c0-.51.415-.932.925-.932l10.697-.027 4.01-5.751V6.076c0-.7-.541-1.265-1.239-1.265h-3.07v2.43c0 1.147-.938 2.055-2.084 2.055H7.207A2.038 2.038 0 0 1 5.154 7.24V4.81H2.05c-.7 0-1.265.566-1.265 1.265v21.73c0 .7.566 1.296 1.265 1.296h16.485c.7 0 1.24-.596 1.24-1.296v-7.77l-3.89 5.524zM5.068 11.802h10.45a.931.931 0 1 1 0 1.864H5.068a.931.931 0 0 1 0-1.864z" fill="#fff"/><path d="M7.224 8.074h6.17c.467 0 .846-.38.846-.848V3.678a.847.847 0 0 0-.846-.848h-.93a2.172 2.172 0 0 0-4.343 0h-.897a.847.847 0 0 0-.847.848v3.547c0 .469.379.849.847.849zm3.07-6.2c.53 0 .961.427.967.957H9.323a.97.97 0 0 1 .97-.958zM27.58 6.382a.603.603 0 0 0-.25-.387l-1.544-1.077a.596.596 0 0 0-.834.149L14.009 20.759l2.528 1.763L27.48 6.83a.605.605 0 0 0 .1-.448zM12.286 23.32l.159 1.843a.354.354 0 0 0 .15.262.365.365 0 0 0 .204.067.333.333 0 0 0 .094-.014l1.784-.488a.362.362 0 0 0 .2-.14l.67-.961-2.53-1.764-.67.961a.348.348 0 0 0-.06.235z" fill="#fff"/></svg>