<svg width="11" height="20" fill="none" xmlns="http://www.w3.org/2000/svg"><path d="M1.118 10.475h2v8.308c0 .164.132.297.294.297h3.39a.296.296 0 0 0 .295-.297v-8.27h2.298c.15 0 .275-.112.292-.262l.35-3.06a.299.299 0 0 0-.073-.23.293.293 0 0 0-.22-.1H7.097V4.943c0-.578.308-.87.916-.87h1.731a.296.296 0 0 0 .294-.298V.968A.296.296 0 0 0 9.744.67H7.36L7.249.668c-.414 0-1.853.082-2.99 1.138-1.258 1.17-1.083 2.57-1.042 2.813V6.86H1.118a.296.296 0 0 0-.294.297v3.02c0 .164.132.297.294.297z" fill="#fff"/></svg>