<svg width="110" height="102" fill="none" xmlns="http://www.w3.org/2000/svg"><path fill-rule="evenodd" clip-rule="evenodd" d="M41.936 73.272c6.227.502 16.575-6.629 19.486 1.583V47.632s-2.956-1.388-4.872-1.122c-1.916.266-4.305.848-7.146.848-2.842 0-4.957-2.178-6.674-2.178-.41.007-.819.057-1.218.15l.424 27.942z" fill="url(#paint0_linear)" stroke="#2B2A29" stroke-width=".57" stroke-miterlimit="22.93"/><path fill-rule="evenodd" clip-rule="evenodd" d="M61.412 74.856c-2.902-8.213-13.248-1.08-19.486-1.584l-.418-27.93a12.14 12.14 0 0 0-.812.216l.43 28.839c5.619.453 11.101-4.794 18.159-2 .897.348 2.127 2.459 2.127 2.459z" fill="#EAEBEB" stroke="#2B2A29" stroke-width=".57" stroke-miterlimit="22.93"/><path fill-rule="evenodd" clip-rule="evenodd" d="M41.142 74.395l-.43-28.84c-.389.12-.754.254-1.068.378l.44 29.52c5.618.452 12.106-4.779 19.163-1.984.879.35 2.164 1.585 2.164 1.585v-.203s-1.23-2.11-2.11-2.458c-7.057-2.793-12.541 2.454-18.16 2.002z" fill="#D8D9D9" stroke="#2B2A29" stroke-width=".57" stroke-miterlimit="22.93"/><path fill-rule="evenodd" clip-rule="evenodd" d="M64.124 75.55c-1.263 2.738 1.798.846-.264 4.498-.35.608.264 6.59.264 7.672 0 2.395-3.21 0-3.573 2.779-.038.304-4.91 6.15-6.217 3.836-1.19-2.105-2.677 3.572-3.704 3.572-2.74 0-.666.67-1.588 2.513-.584 1.169-2.774.575-3.306-.406-1.74-3.178-6.256-.024-8.334.794-5.781 2.277-3.045-3.274-3.045-5.16 0-4.082 4.366-1.796 4.366-3.572 0-2.077-2.963.15-4.762 0-1.914-.16-5.756-5.09-7.936-2.91-.944.943 2.127 2.638-.794 2.638-.627 0-3.436 1.053-2.513-1.72.634-1.743.27-2.185-.28-3.61-.491-1.275-1.08 2.188-1.585 2.51-.658.42-1.928-1.469-2.18-1.916-.688-1.217-3.566-.696-3.436.991.048.641-1.854.99-2.312.99-1.571 0-.812-2.273-2.64-1.652-1.014.343-1.1 1.748-2.311.727-.986-.83-.794-2.233-.794-3.436 0-2.03 2.436.063 1.322-3.305-1.192-3.572 4.601-1.386 1.52-4.23-1.703-1.571-2.842-1.727-2.842-4.626.53-7.583-5.703-5.194-6.343-9.383-.203-1.291 2.01-1.852 2.775-2.578 1.003-.952-1.072-5.095-1.52-6.09-1.287-2.83 1.544-2.18 3.247-2.18 2.842 0 .662-5.074.662-5.815 0-3.298 4.07-2.695 4.559-4.163-.179-1.851-2.326-4.69-.595-4.69 4.383 0 7.088-.328 5.353-4.56-.583-1.42-2.073-1.814-2.907-3.172-.698-1.135-2.01-4.524-3.105-5.277-1.247-.867-2.907-.741-2.907 1.122 0 3.365-4.693-1.293-3.9-2.18.5-.56 2.964-2.263 2.964-2.493 0-1.057-.528-1.938-.528-3.304-.94-2.03-3.205-3.398-1.388-6.211.558-.865 1.244-2.012 1.851-2.775 1.624-2.042.067-7.6 4.494-7.6 6.869 0-1.167 8.855 4.69 8.855 1.568 0 6.612-.796 7.07.263.918 2.116 5.075 1.389 7.732 1.389 2.972-3.232 9.974-2.363 14.472-2.842.429-.045 3.226-.479 3.569-.662.793-.418 1.642-3.065 2.841-3.964.993-.753 2.511-2.17 3.833-1.983.544.077 3.495.317 3.044 1.058-1.924 3.128-2.783 5.78 1.257 8.062 2.874 1.624-.027 4.06 2.841 5.947 3.045 1.993 2.38 2.472 2.38 6.09 2.01 13.678 2.35 27.793 3.291 41.453.187 2.834 1.36 10.572-2.788 10.706z" fill="#2B2A29" stroke="#2B2A29" stroke-width=".57" stroke-miterlimit="22.93"/><path fill-rule="evenodd" clip-rule="evenodd" d="M65.38 75.087c-1.262 2.738 1.799.846-.263 4.498-.35.609.263 6.59.263 7.672 0 2.395-3.209 0-3.572 2.78-.039.303-4.91 6.15-6.217 3.835-1.19-2.105-2.678 3.573-3.705 3.573-2.74 0-.665.67-1.587 2.513-.584 1.169-2.774.574-3.306-.406-1.74-3.179-6.256-.025-8.335.793-5.78 2.278-3.044-3.274-3.044-5.16 0-4.081 4.366-1.796 4.366-3.572 0-2.076-2.964.15-4.762 0-1.914-.16-5.757-5.09-7.936-2.91-.944.943 2.127 2.638-.794 2.638-.627 0-3.436 1.054-2.513-1.719.633-1.744.27-2.186-.28-3.611-.491-1.275-1.08 2.188-1.585 2.51-.658.421-1.929-1.469-2.18-1.915-.688-1.218-3.567-.697-3.437.99.05.642-1.853.99-2.312.99-1.57 0-.811-2.272-2.638-1.651-1.015.343-1.1 1.747-2.312.726-.987-.83-.794-2.233-.794-3.436 0-2.03 2.436.063 1.322-3.305-1.192-3.572 4.601-1.386 1.52-4.23-1.703-1.57-2.842-1.727-2.842-4.626.53-7.583-5.703-5.194-6.343-9.383-.203-1.291 2.01-1.851 2.775-2.578 1.003-.952-1.072-5.095-1.52-6.09-1.287-2.829 1.544-2.18 3.247-2.18 2.842 0 .662-5.074.662-5.814 0-3.299 4.07-2.696 4.559-4.164-.179-1.85-2.326-4.69-.595-4.69 4.382 0 7.088-.327 5.353-4.56-.583-1.42-2.073-1.816-2.907-3.172-.698-1.134-2.01-4.524-3.106-5.277-1.246-.867-2.906-.741-2.906 1.122 0 3.366-4.693-1.293-3.9-2.18.514-.572 2.974-2.281 2.974-2.51 0-1.058-.528-1.939-.528-3.305-.94-2.03-3.205-3.398-1.388-6.211.558-.865 1.244-2.012 1.851-2.775 1.624-2.042.067-7.6 4.494-7.6 6.869 0-1.167 8.855 4.69 8.855 1.568 0 6.612-.796 7.07.263.918 2.116 5.075 1.389 7.732 1.389 2.972-3.232 9.974-2.363 14.472-2.842.428-.044 3.226-.479 3.569-.662.793-.418 1.642-3.064 2.841-3.964.993-.753 2.511-2.17 3.832-1.983.544.077 3.496.317 3.045 1.058-1.944 3.14-2.811 5.799 1.236 8.08 2.874 1.624-.026 4.06 2.842 5.947 3.045 1.994 2.379 2.473 2.379 6.09 2.011 13.678 2.35 27.793 3.292 41.454.197 2.833 1.368 10.581-2.779 10.705z" fill="url(#paint1_linear)" stroke="#2B2A29" stroke-width=".57" stroke-miterlimit="22.93"/><path fill-rule="evenodd" clip-rule="evenodd" d="M62.156 55.087l-5.84-1.163c-1.156.019-2.11.94-1.473 2.136.227.424.7.64 1.149.745.308.073.633.03.942.101 2.316.532 4.579 1.263 6.645 2.466.997.58 2.251 1.697 1.547 2.986-.528.964-1.918 1.277-2.897 1.476-1.293.264-3.085.203-4.25.931-.31.203-.38.936-.187 1.245.292.47 1.283.377 1.624.39 1.252.044 2.007 0 3.132.59a6.59 6.59 0 0 1 2.407 2.107l-.046.022a7.592 7.592 0 0 0-3.132-2.184c-1.253-.456-2.536.027-3.806-.31-.865-.228-.767-1.376-.471-1.987.18-.372.783-.536 1.12-.626l4.817-1.102c.692-.28 1.48-.755 1.218-1.611-.406-1.346-2.515-1.996-3.654-2.424l-4.626-1.246c-1.165-.17-2.305-.67-2.454-1.971-.142-1.244.516-2.253 1.776-2.51.892-.184 6.92-.076 6.92 1.489a.45.45 0 0 1-.46.45z" fill="#009746" stroke="#2B2A29" stroke-width=".57" stroke-miterlimit="22.93"/><path fill-rule="evenodd" clip-rule="evenodd" d="M53.203 57.28s3.173 3.073 4.328 3.732c.857.462 1.753.85 2.677 1.157l.406 6.09-3.536 1.487s3.17.033 4.344 0c1.173.033 4.343 0 4.343 0L62.23 68.26l.406-6.09a16.963 16.963 0 0 0 2.675-1.157c1.157-.661 4.327-3.733 4.327-3.733H53.203z" fill="#FBD4A5" stroke="#2B2A29" stroke-width=".57" stroke-miterlimit="22.93"/><path fill-rule="evenodd" clip-rule="evenodd" d="M32.498 79.126h1.13v4.658h2.193v-4.658h1.13v4.658h.467v2.162h-.94v-1.218H32.5v-5.602h-.002zm5.708 0h4.451v5.598h-1.13v-4.658h-2.193v4.658h-1.13v-5.598h.002zm5.624 0h1.13v2.383a.76.76 0 0 0 .512-.203 3.95 3.95 0 0 0 .406-.87c.234-.607.47-.984.707-1.131.235-.148.609-.222 1.134-.222h.165v.837h-.16a1.125 1.125 0 0 0-.508.085.65.65 0 0 0-.26.262 5.531 5.531 0 0 0-.294.723 2.666 2.666 0 0 1-.224.485c-.11.154-.256.28-.426.365.251.07.471.222.625.432.207.289.388.595.54.916l.764 1.534h-1.328l-.662-1.437c-.01-.02-.03-.06-.065-.118a5.489 5.489 0 0 1-.14-.264 1.681 1.681 0 0 0-.357-.515.728.728 0 0 0-.426-.108v2.452h-1.137v-5.606h.004zm6.928 5.598v-5.598h1.812c.45-.018.9.01 1.344.085.326.085.612.278.812.548.227.317.342.7.325 1.09.01.3-.054.598-.187.867-.114.221-.28.411-.483.554a1.637 1.637 0 0 1-.585.264c-.387.063-.78.09-1.173.081h-.737v2.111l-1.128-.002zm1.13-4.65v1.587h.61c.3.017.601-.012.893-.087a.745.745 0 0 0 .353-.274.757.757 0 0 0 .127-.434.725.725 0 0 0-.18-.504.78.78 0 0 0-.453-.247 5.372 5.372 0 0 0-.812-.039l-.538-.002zm3.812 3.164l1.038-.125a.98.98 0 0 0 .267.609.752.752 0 0 0 1.086-.043.975.975 0 0 0 .228-.68.908.908 0 0 0-.217-.641.69.69 0 0 0-.53-.238c-.167.004-.333.03-.493.08l.117-.874a.948.948 0 0 0 .664-.188.676.676 0 0 0 .23-.534.58.58 0 0 0-.61-.62.64.64 0 0 0-.468.192.887.887 0 0 0-.238.556l-.988-.167c.048-.288.154-.564.31-.812.147-.208.348-.373.58-.477.262-.119.547-.178.835-.174a1.663 1.663 0 0 1 1.268.505 1.312 1.312 0 0 1 .394.932c0 .491-.27.883-.812 1.175a1.305 1.305 0 0 1 1.058 1.33 1.685 1.685 0 0 1-.538 1.256 2.012 2.012 0 0 1-2.6.081 1.717 1.717 0 0 1-.58-1.143z" fill="#C2292D"/><path d="M25.83 18.866h-2.249v38.347h2.249V18.866zm11.02 0H34.6v38.347h2.25V18.866z" stroke="#2B2A29" stroke-width=".57" stroke-miterlimit="22.93"/><path d="M61.469 22.57h-24.62v2.25h24.62v-2.25z" stroke="#2B2A29" stroke-width=".57" stroke-miterlimit="22.93"/><path d="M37.773 22.57c.511 0 .926-.587.926-1.313 0-.725-.415-1.313-.926-1.313-.511 0-.925.588-.925 1.313 0 .726.414 1.314.925 1.314zm6.542 0c.511 0 .926-.587.926-1.313 0-.725-.415-1.313-.926-1.313-.511 0-.925.588-.925 1.313 0 .726.414 1.314.925 1.314zm6.542 0c.511 0 .926-.587.926-1.313 0-.725-.415-1.313-.926-1.313-.511 0-.925.588-.925 1.313 0 .726.414 1.314.925 1.314zm8.063-2.362h-1.852v2.362h1.852v-2.362z" stroke="#2B2A29" stroke-width=".57" stroke-miterlimit="22.93"/><path d="M57.993 20.332c.51 0 .923-.588.923-1.313 0-.726-.413-1.314-.923-1.314s-.924.588-.924 1.314c0 .725.414 1.313.924 1.313zm3.392 1.283c.51 0 .925-.588.925-1.314 0-.725-.414-1.313-.925-1.313-.512 0-.926.588-.926 1.313 0 .726.414 1.314.926 1.314zM47.022 29.98h-1.72v5.159h1.72v-5.16zm3.24 0h-1.719v5.159h1.72v-5.16zm3.533 0h-1.719v5.159h1.72v-5.16zm3.244 0h-1.72v5.159h1.72v-5.16zm3.533 0h-1.72v5.159h1.72v-5.16zm-20.326 0h-1.72v5.159h1.72v-5.16zm3.241 0h-1.72v5.159h1.72v-5.16zm-.758 9.259h-3.37v7.664h3.37V39.24z" stroke="#2B2A29" stroke-width=".57" stroke-miterlimit="22.93"/><path fill-rule="evenodd" clip-rule="evenodd" d="M43.653 37.39H38.4v3.964h.958v-2.115h3.372v2.115h.923V37.39z" fill="#FDFDFD" stroke="#2B2A29" stroke-width=".57" stroke-miterlimit="22.93"/><path d="M41.044 39.239H39.36v7.664h1.685V39.24z" stroke="#2B2A29" stroke-width=".57" stroke-miterlimit="22.93"/><path d="M42.729 39.239h-3.37v3.172h3.37V39.24z" stroke="#2B2A29" stroke-width=".57" stroke-miterlimit="22.93"/><path d="M42.729 39.239h-3.37v1.585h3.37V39.24zm6.706 0h-3.37v7.664h3.37V39.24z" stroke="#2B2A29" stroke-width=".57" stroke-miterlimit="22.93"/><path fill-rule="evenodd" clip-rule="evenodd" d="M50.362 37.39H45.11v3.964h.958v-2.115h3.37v2.115h.925V37.39z" fill="#FDFDFD" stroke="#2B2A29" stroke-width=".57" stroke-miterlimit="22.93"/><path d="M47.75 39.239h-1.685v7.664h1.685V39.24z" stroke="#2B2A29" stroke-width=".57" stroke-miterlimit="22.93"/><path d="M49.435 39.239h-3.37v3.172h3.37V39.24z" stroke="#2B2A29" stroke-width=".57" stroke-miterlimit="22.93"/><path d="M49.435 39.239h-3.37v1.585h3.37V39.24zm6.708 0h-3.37v7.664h3.37V39.24z" stroke="#2B2A29" stroke-width=".57" stroke-miterlimit="22.93"/><path fill-rule="evenodd" clip-rule="evenodd" d="M57.069 37.39h-5.254v3.964h.959v-2.115h3.369v2.115h.925V37.39z" fill="#FDFDFD" stroke="#2B2A29" stroke-width=".57" stroke-miterlimit="22.93"/><path d="M54.458 39.239h-1.685v7.664h1.685V39.24z" stroke="#2B2A29" stroke-width=".57" stroke-miterlimit="22.93"/><path d="M56.143 39.239h-3.37v3.172h3.37V39.24z" stroke="#2B2A29" stroke-width=".57" stroke-miterlimit="22.93"/><path d="M56.143 39.239h-3.37v1.585h3.37V39.24zm7.004 0h-3.37v7.664h3.37V39.24z" stroke="#2B2A29" stroke-width=".57" stroke-miterlimit="22.93"/><path fill-rule="evenodd" clip-rule="evenodd" d="M64.073 37.39H58.82v3.964h.958v-2.115h3.37v2.115h.925V37.39z" fill="#FDFDFD" stroke="#2B2A29" stroke-width=".57" stroke-miterlimit="22.93"/><path d="M61.462 39.239h-1.685v7.664h1.685V39.24z" stroke="#2B2A29" stroke-width=".57" stroke-miterlimit="22.93"/><path d="M63.147 39.239h-3.37v3.172h3.37V39.24z" stroke="#2B2A29" stroke-width=".57" stroke-miterlimit="22.93"/><path d="M63.147 39.239h-3.37v1.585h3.37V39.24z" stroke="#2B2A29" stroke-width=".57" stroke-miterlimit="22.93"/><path fill-rule="evenodd" clip-rule="evenodd" d="M44.116 27.807h-6.221v3.37h.63v-1.198h1.72v1.198h1.52v-1.198h1.721v1.198h.63v-3.37zm6.779 0h-6.221v3.37h.63v-1.198h1.718v1.198h1.523v-1.198h1.719v1.198h.631v-3.37zm6.777 0h-6.22v3.37h.628v-1.198h1.722v1.198h1.52v-1.198h1.72v1.198h.63v-3.37zm6.778 0h-6.222v3.37h.632v-1.198h1.719v1.198h1.522v-1.198h1.72v1.198h.629v-3.37z" fill="#FDFDFD" stroke="#2B2A29" stroke-width=".57" stroke-miterlimit="22.93"/><path d="M27.902 29.527h-1.289v5.748h1.29v-5.748z" stroke="#2B2A29" stroke-width=".57" stroke-miterlimit="22.93"/><path clip-rule="evenodd" d="M29.566 29.527h1.29v5.748h-1.29v-5.748z" stroke="#2B2A29" stroke-width=".57" stroke-miterlimit="22.93"/><path d="M33.81 29.527h-1.29v5.748h1.29v-5.748z" stroke="#2B2A29" stroke-width=".57" stroke-miterlimit="22.93"/><path fill-rule="evenodd" clip-rule="evenodd" d="M34.6 27.412h-8.77v3.765h.783v-1.652H27.9v1.652h1.665v-1.652h1.289v1.652h1.664v-1.652h1.29v1.652h.79v-3.765z" fill="#FDFDFD" stroke="#2B2A29" stroke-width=".57" stroke-miterlimit="22.93"/><path d="M32.486 17.533h-4.691v9.879h4.69v-9.88z" stroke="#2B2A29" stroke-width=".57" stroke-miterlimit="22.93"/><path d="M34.6 19.745h-8.77v7.665h8.77v-7.665zm2.25 37.468H23.58v2.578h13.27v-2.578zm13.268-.528H36.85v2.578h13.268v-2.578zM34.6 37.654h-8.77v3.767h8.77v-3.767z" stroke="#2B2A29" stroke-width=".57" stroke-miterlimit="22.93"/><path clip-rule="evenodd" d="M26.903 39.505h2.105v6.09h-2.105v-6.09zm4.79 0h2.081v6.014h-2.08v-6.014z" stroke="#2B2A29" stroke-width=".57" stroke-miterlimit="22.93"/><path d="M29.877 49.713h-4.048v7.5h4.047v-7.5zm4.723 0h-4.047v7.5H34.6v-7.5z" stroke="#2B2A29" stroke-width=".57" stroke-miterlimit="22.93"/><path d="M27.853 49.713h-2.024v7.5h2.024v-7.5zm4.723 0h-2.023v7.5h2.023v-7.5z" stroke="#2B2A29" stroke-width=".57" stroke-miterlimit="22.93"/><path d="M29.877 52.092h-4.048v5.12h4.047v-5.12zm4.723 0h-4.047v5.12H34.6v-5.12zm64.59-33.226h-2.249v38.347h2.25V18.866zm-11.02 0h-2.25v38.347h2.25V18.866z" stroke="#2B2A29" stroke-width=".57" stroke-miterlimit="22.93"/><path d="M85.923 22.57h-24.62v2.25h24.62v-2.25z" stroke="#2B2A29" stroke-width=".57" stroke-miterlimit="22.93"/><path d="M84.998 22.57c.511 0 .925-.587.925-1.313 0-.725-.414-1.313-.925-1.313-.511 0-.926.588-.926 1.313 0 .726.415 1.314.926 1.314zm-6.542 0c.511 0 .925-.587.925-1.313 0-.725-.414-1.313-.925-1.313-.511 0-.926.588-.926 1.313 0 .726.415 1.314.926 1.314zm-6.542 0c.511 0 .925-.587.925-1.313 0-.725-.414-1.313-.925-1.313-.511 0-.926.588-.926 1.313 0 .726.415 1.314.926 1.314zm-6.211-2.362h-1.851v2.362h1.85v-2.362z" stroke="#2B2A29" stroke-width=".57" stroke-miterlimit="22.93"/><path d="M64.777 20.332c.511 0 .926-.588.926-1.313 0-.726-.415-1.314-.926-1.314-.511 0-.925.588-.925 1.314 0 .725.414 1.313.925 1.313zm-3.392 1.283c.51 0 .925-.588.925-1.314 0-.725-.414-1.313-.925-1.313-.512 0-.926.588-.926 1.313 0 .726.414 1.314.926 1.314z" stroke="#2B2A29" stroke-width=".57" stroke-miterlimit="22.93"/><path fill-rule="evenodd" clip-rule="evenodd" d="M78.455 22.57c.512 0 .926-.588.926-1.313 0 0 1.084.146 2.482.203.743.06 1.49-.009 2.21-.203 0 .725.407 1.313.926 1.313H65.702v-2.36s1.624.595 2.907.925a4.06 4.06 0 0 0 2.401-.152 1.83 1.83 0 0 0-.02.276c0 .725.406 1.314.925 1.314.52 0 .926-.59.926-1.314a1.86 1.86 0 0 0-.012-.221c.789.29 1.618.456 2.458.493a5.759 5.759 0 0 0 2.267-.56 1.858 1.858 0 0 0-.022.292c0 .725.406 1.314.925 1.314l-.002-.007zm-34.14 0c-.512 0-.926-.588-.926-1.313 0 0-1.084.146-2.483.203a6.494 6.494 0 0 1-2.21-.203c0 .725-.406 1.313-.925 1.313h19.294v-2.36s-1.623.595-2.906.925a4.06 4.06 0 0 1-2.401-.152c.013.092.02.184.02.276 0 .725-.406 1.314-.926 1.314s-.925-.59-.925-1.314c0-.074.004-.148.012-.221a8.19 8.19 0 0 1-2.46.493 5.758 5.758 0 0 1-2.263-.56c.015.097.022.195.022.292 0 .725-.406 1.314-.925 1.314l.002-.007zm17.07-5.157c-.083-.016-.351-.024-1.037.286a5.02 5.02 0 0 0-1.456 1.015c.018.102.026.205.027.309a1.421 1.421 0 0 1-.532 1.189h.532v2.363h4.932V20.21h.532a1.422 1.422 0 0 1-.532-1.19c0-.103.009-.206.026-.308a5.022 5.022 0 0 0-1.455-1.015c-.686-.31-.954-.302-1.037-.286v.002zm-.024 4.2c-.5-.019-.9-.61-.9-1.314 0-.704.406-1.293.9-1.313h.05c.5.018.9.609.9 1.313s-.407 1.293-.9 1.314h-.05z" fill="#D8D9D9" stroke="#2B2A29" stroke-width=".57" stroke-miterlimit="22.93"/><path d="M77.467 29.98h-1.719v5.159h1.72v-5.16zm-3.241 0h-1.72v5.159h1.72v-5.16zm-3.534 0h-1.72v5.159h1.72v-5.16zm-3.238 0h-1.72v5.159h1.72v-5.16zm-3.534 0H62.2v5.159h1.72v-5.16zm20.325 0h-1.72v5.159h1.72v-5.16zm-3.242 0h-1.719v5.159h1.72v-5.16zm2.408 9.259h-3.369v7.664h3.37V39.24z" stroke="#2B2A29" stroke-width=".57" stroke-miterlimit="22.93"/><path fill-rule="evenodd" clip-rule="evenodd" d="M79.116 37.39h5.253v3.964h-.958v-2.115h-3.37v2.115h-.925V37.39z" fill="#FDFDFD" stroke="#2B2A29" stroke-width=".57" stroke-miterlimit="22.93"/><path d="M83.41 39.239h-1.684v7.664h1.684V39.24z" stroke="#2B2A29" stroke-width=".57" stroke-miterlimit="22.93"/><path d="M83.411 39.239h-3.369v3.172h3.37V39.24z" stroke="#2B2A29" stroke-width=".57" stroke-miterlimit="22.93"/><path d="M83.411 39.239h-3.369v1.585h3.37V39.24zm-6.707 0h-3.369v7.664h3.37V39.24z" stroke="#2B2A29" stroke-width=".57" stroke-miterlimit="22.93"/><path fill-rule="evenodd" clip-rule="evenodd" d="M72.41 37.39h5.253v3.964h-.958v-2.115h-3.37v2.115h-.925V37.39z" fill="#FDFDFD" stroke="#2B2A29" stroke-width=".57" stroke-miterlimit="22.93"/><path d="M76.704 39.239H75.02v7.664h1.684V39.24z" stroke="#2B2A29" stroke-width=".57" stroke-miterlimit="22.93"/><path d="M76.704 39.239h-3.369v3.172h3.37V39.24z" stroke="#2B2A29" stroke-width=".57" stroke-miterlimit="22.93"/><path d="M76.704 39.239h-3.369v1.585h3.37V39.24zm-6.708 0h-3.369v7.664h3.37V39.24z" stroke="#2B2A29" stroke-width=".57" stroke-miterlimit="22.93"/><path fill-rule="evenodd" clip-rule="evenodd" d="M65.702 37.39h5.253v3.964h-.958v-2.115h-3.371v2.115h-.924V37.39z" fill="#FDFDFD" stroke="#2B2A29" stroke-width=".57" stroke-miterlimit="22.93"/><path d="M69.997 39.239h-1.684v7.664h1.684V39.24z" stroke="#2B2A29" stroke-width=".57" stroke-miterlimit="22.93"/><path d="M69.996 39.239h-3.369v3.172h3.37V39.24z" stroke="#2B2A29" stroke-width=".57" stroke-miterlimit="22.93"/><path d="M69.996 39.239h-3.369v1.585h3.37V39.24zm-7.006 0h-3.369v7.664h3.37V39.24z" stroke="#2B2A29" stroke-width=".57" stroke-miterlimit="22.93"/><path fill-rule="evenodd" clip-rule="evenodd" d="M58.698 37.39h5.253v3.964h-.958v-2.115h-3.371v2.115h-.924V37.39z" fill="#FDFDFD" stroke="#2B2A29" stroke-width=".57" stroke-miterlimit="22.93"/><path d="M62.993 39.239H61.31v7.664h1.684V39.24z" stroke="#2B2A29" stroke-width=".57" stroke-miterlimit="22.93"/><path d="M62.99 39.239h-3.369v3.172h3.37V39.24z" stroke="#2B2A29" stroke-width=".57" stroke-miterlimit="22.93"/><path d="M62.99 39.239h-3.369v1.585h3.37V39.24z" stroke="#2B2A29" stroke-width=".57" stroke-miterlimit="22.93"/><path fill-rule="evenodd" clip-rule="evenodd" d="M78.652 27.807h6.222v3.37h-.63v-1.198h-1.719v1.198h-1.522v-1.198h-1.72v1.198h-.63v-3.37zm-6.777 0h6.221v3.37h-.631v-1.198h-1.72v1.198h-1.52v-1.198h-1.719v1.198h-.631v-3.37zm-6.777 0h6.22v3.37h-.63v-1.198h-1.72v1.198h-1.52v-1.198h-1.721v1.198h-.63v-3.37zm-6.78 0h6.222v3.37h-.63v-1.198h-1.719v1.198H60.67v-1.198h-1.72v1.198h-.63v-3.37z" fill="#FDFDFD" stroke="#2B2A29" stroke-width=".57" stroke-miterlimit="22.93"/><path d="M96.157 29.527h-1.289v5.748h1.29v-5.748z" stroke="#2B2A29" stroke-width=".57" stroke-miterlimit="22.93"/><path clip-rule="evenodd" d="M93.203 29.527h-1.289v5.748h1.289v-5.748z" stroke="#2B2A29" stroke-width=".57" stroke-miterlimit="22.93"/><path d="M90.25 29.527h-1.288v5.748h1.289v-5.748z" stroke="#2B2A29" stroke-width=".57" stroke-miterlimit="22.93"/><path fill-rule="evenodd" clip-rule="evenodd" d="M88.17 27.412h8.772v3.765h-.784v-1.652h-1.289v1.652h-1.664v-1.652h-1.29v1.652h-1.664v-1.652h-1.288v1.652h-.792v-3.765z" fill="#FDFDFD" stroke="#2B2A29" stroke-width=".57" stroke-miterlimit="22.93"/><path d="M94.974 17.533h-4.69v9.879h4.69v-9.88z" stroke="#2B2A29" stroke-width=".57" stroke-miterlimit="22.93"/><path d="M96.942 19.745H88.17v7.665h8.77v-7.665zm2.248 37.468H85.92v2.578h13.27v-2.578z" stroke="#2B2A29" stroke-width=".57" stroke-miterlimit="22.93"/><path d="M85.92 56.685H72.653v2.578h13.269v-2.578zm11.022-19.031H88.17v3.767h8.77v-3.767z" stroke="#2B2A29" stroke-width=".57" stroke-miterlimit="22.93"/><path clip-rule="evenodd" d="M95.867 39.505h-2.11v6.09h2.116v-6.09h-.006zm-4.79 0h-2.08v6.014h2.08v-6.014z" stroke="#2B2A29" stroke-width=".57" stroke-miterlimit="22.93"/><path d="M96.942 49.713h-4.047v7.5h4.047v-7.5zm-4.724 0h-4.047v7.5h4.047v-7.5z" stroke="#2B2A29" stroke-width=".57" stroke-miterlimit="22.93"/><path d="M96.94 49.713h-2.023v7.5h2.024v-7.5zm-4.722 0h-2.024v7.5h2.024v-7.5z" stroke="#2B2A29" stroke-width=".57" stroke-miterlimit="22.93"/><path d="M96.942 52.092h-4.047v5.12h4.047v-5.12zm-4.724 0h-4.047v5.12h4.047v-5.12z" stroke="#2B2A29" stroke-width=".57" stroke-miterlimit="22.93"/><path fill-rule="evenodd" clip-rule="evenodd" d="M40.087 75.452l-.442-29.515c-.61.24-1.015.443-1.015.443v30.426h2.842s5.419-.891 8.322-2.28c2.902-1.388 6.475-1.52 8.194-.793a66.058 66.058 0 0 0 3.418 1.321s-1.283-1.238-2.164-1.585c-7.051-2.795-13.536 2.436-19.155 1.983z" fill="#C2292D" stroke="#2B2A29" stroke-width=".57" stroke-miterlimit="22.93"/><path fill-rule="evenodd" clip-rule="evenodd" d="M80.888 72.677c-6.227.502-16.575-6.629-19.486 1.583V47.037s2.956-1.388 4.872-1.122c1.916.266 4.295.858 7.136.858 2.842 0 4.957-2.178 6.674-2.178.41.007.819.057 1.218.15l-.414 27.932z" fill="url(#paint2_linear)" stroke="#2B2A29" stroke-width=".57" stroke-miterlimit="22.93"/><path fill-rule="evenodd" clip-rule="evenodd" d="M61.41 74.26c2.902-8.212 13.248-1.08 19.485-1.583l.418-27.931c.272.06.544.134.812.215l-.43 28.839c-5.619.453-11.101-4.794-18.159-2-.895.35-2.127 2.46-2.127 2.46z" fill="#EAEBEB" stroke="#2B2A29" stroke-width=".57" stroke-miterlimit="22.93"/><path fill-rule="evenodd" clip-rule="evenodd" d="M81.678 73.8l.43-28.839c.388.12.754.254 1.068.378l-.44 29.519c-5.618.452-12.106-4.778-19.163-1.983-.879.349-2.164 1.585-2.164 1.585v-.203s1.23-2.111 2.11-2.458c7.059-2.793 12.541 2.454 18.16 2.001z" fill="#D8D9D9" stroke="#2B2A29" stroke-width=".57" stroke-miterlimit="22.93"/><path fill-rule="evenodd" clip-rule="evenodd" d="M82.737 74.858l.44-29.52c.61.24 1.015.443 1.015.443v30.43H81.35s-5.42-.89-8.322-2.279c-2.902-1.388-6.475-1.52-8.194-.794-1.72.727-3.418 1.322-3.418 1.322s1.283-1.238 2.164-1.585c7.051-2.796 13.534 2.435 19.157 1.983z" fill="#C2292D" stroke="#2B2A29" stroke-width=".57" stroke-miterlimit="22.93"/><path fill-rule="evenodd" clip-rule="evenodd" d="M41.833 72.546c6.227.5 16.575-6.63 19.486 1.583V46.905s-2.955-1.388-4.872-1.122c-1.916.266-4.299.859-7.14.859-2.842 0-4.957-2.178-6.674-2.178-.41.006-.819.056-1.218.15l.418 27.932z" fill="url(#paint3_linear)" stroke="#2B2A29" stroke-width=".57" stroke-miterlimit="22.93"/><path fill-rule="evenodd" clip-rule="evenodd" d="M61.308 74.127c-2.903-8.213-13.249-1.08-19.486-1.584l-.418-27.93a12.14 12.14 0 0 0-.812.216l.43 28.839c5.619.453 11.1-4.794 18.158-2 .898.35 2.128 2.459 2.128 2.459z" fill="#EAEBEB" stroke="#2B2A29" stroke-width=".57" stroke-miterlimit="22.93"/><path fill-rule="evenodd" clip-rule="evenodd" d="M41.038 73.668l-.43-28.84c-.388.12-.753.255-1.068.378l.44 29.52c5.619.452 12.106-4.779 19.164-1.984.879.35 2.163 1.585 2.163 1.585v-.203s-1.23-2.11-2.109-2.457c-7.051-2.793-12.542 2.454-18.16 2z" fill="#D8D9D9" stroke="#2B2A29" stroke-width=".57" stroke-miterlimit="22.93"/><path fill-rule="evenodd" clip-rule="evenodd" d="M62.053 54.36l-5.846-1.162c-1.157.018-2.11.94-1.473 2.135.227.424.7.64 1.148.745.309.073.634.03.942.101 2.316.532 4.58 1.263 6.646 2.466.996.581 2.25 1.697 1.546 2.986-.527.964-1.918 1.277-2.896 1.476-1.293.264-3.085.203-4.25.932-.31.203-.38.935-.187 1.244.292.47 1.283.377 1.624.39 1.252.044 2.007 0 3.132.59a6.588 6.588 0 0 1 2.411 2.11l-.047.021a7.591 7.591 0 0 0-3.132-2.184c-1.252-.456-2.535.027-3.805-.31-.865-.228-.768-1.376-.471-1.987.18-.372.783-.536 1.12-.625l4.817-1.103c.692-.28 1.48-.755 1.218-1.611-.406-1.346-2.515-1.995-3.654-2.424l-4.632-1.252c-1.165-.17-2.306-.67-2.454-1.971-.142-1.244.516-2.253 1.776-2.51.893-.184 6.92-.076 6.92 1.489a.45.45 0 0 1-.453.455z" fill="#009746" stroke="#2B2A29" stroke-width=".57" stroke-miterlimit="22.93"/><path fill-rule="evenodd" clip-rule="evenodd" d="M53.099 56.553s3.172 3.073 4.327 3.735c.857.461 1.752.849 2.675 1.157l.406 6.089-3.536 1.486s3.17.032 4.344 0c1.173.032 4.344 0 4.344 0l-3.536-1.486.406-6.09c.924-.307 1.82-.695 2.677-1.156 1.157-.662 4.328-3.733 4.328-3.733l-16.435-.002z" fill="#FBD4A5" stroke="#2B2A29" stroke-width=".57" stroke-miterlimit="22.93"/><path fill-rule="evenodd" clip-rule="evenodd" d="M39.982 74.725l-.44-29.518c-.61.24-1.016.442-1.016.442v30.43h2.842s5.42-.89 8.322-2.28c2.903-1.387 6.475-1.52 8.194-.793 1.72.727 3.418 1.322 3.418 1.322s-1.282-1.239-2.163-1.586c-7.052-2.795-13.539 2.436-19.157 1.983z" fill="#C2292D" stroke="#2B2A29" stroke-width=".57" stroke-miterlimit="22.93"/><path fill-rule="evenodd" clip-rule="evenodd" d="M36.85 24.82h24.452v-2.25H36.85v2.25zm24.454.008H36.85v31.867h1.678V45.651s.33-.164.832-.371v-3.926h-.958V37.39h5.253v3.964h-.925v3.112c.968.048 2.06.747 3.337 1.34v-4.452h-.958V37.39h5.253v3.964h-.926v5.277a24.87 24.87 0 0 0 3.337-.266v-5.011h-.958V37.39h5.253v3.964h-.925v4.465l.292-.042c.968-.134 2.202.154 3.187.473v-4.896h-.926V37.39h5.375v3.964h-.926v5.016a9.084 9.084 0 0 1 2.623-.49c.17 0 .342.012.511.035l.345.05v-4.611H65.7V37.39h.759c-.061-.751-.125-1.502-.19-2.253h-.539v-5.158 1.2h-.631v-3.37h.418a150.99 150.99 0 0 0-.378-2.981h-3.834zm-2.983 2.988h6.22v3.369h-.62v3.954H62.2v-5.16 1.2h-1.61v-1.2 5.16h-1.744v-3.96h-.609v-3.37l.084.006zm-6.867 0h6.221v3.369h-.631v-1.2 5.154h-1.72v-3.96h-1.516v-1.2 5.16H52.09v-3.96h-.625v-3.37l-.01.006zm-6.778 0h6.222v3.369h-.632v3.954h-1.719v-3.96h-1.52v3.96h-1.72v-3.96h-.63v-3.37.006zm-6.777 0h6.221v3.369h-.631v3.954h-1.72v-3.96h-1.52v3.96H38.53v-3.96h-.63v-3.363z" fill="#F7EEC4" stroke="#2B2A29" stroke-width=".57" stroke-miterlimit="22.93"/><path fill-rule="evenodd" clip-rule="evenodd" d="M61.466 22.57v2.258h3.672a218.51 218.51 0 0 0-.268-1.902v-.347h-3.404v-.008zm3.673 2.258c.135.994.262 1.99.381 2.988h5.803v3.369h-.625v3.954h-1.723v-5.16 1.2h-1.522v3.96H66.27c.067.75.13 1.5.191 2.253h4.496v3.964H70v5.16c1.105.161 2.22.247 3.337.258v-5.42h-.926V37.39h5.251v3.964h-.954v4.559c1.277-.599 2.37-1.293 3.337-1.317v-3.248h-.925V37.39h5.253v3.964h-.966v4.078c.472.203.779.349.779.349v10.914h1.731V24.828H65.14zm6.74 2.988h6.222v3.369h-.632v3.954H75.75v-3.96h-1.52v3.96h-1.72v-3.96h-.63v-3.37.006zm6.778 0h6.221v3.369h-.631v3.954h-1.72v-3.96h-1.52v3.96h-1.719v-3.96h-.631v-3.363zm7.263-2.996v32.393h2.25V18.866h-2.25v5.954z" fill="#F7EEC4" stroke="#2B2A29" stroke-width=".57" stroke-miterlimit="22.93"/><path d="M90.284 19.745H88.17v7.665h2.113v-7.665zm4.69 0h-4.69v7.665h4.69v-7.665zm1.967 0h-1.964v7.665h1.964v-7.665z" fill="#F7EEC4" stroke="#2B2A29" stroke-width=".57" stroke-miterlimit="22.93"/><path d="M94.974 17.533h-4.69v2.214h4.69v-2.214z" fill="#F7EEC4" stroke="#2B2A29" stroke-width=".57" stroke-miterlimit="22.93"/><path fill-rule="evenodd" clip-rule="evenodd" d="M96.941 19.745v37.467h2.25V18.867h-2.25v.88zm-2.071 15.53v-4.098h-1.665v4.098h-1.29v-4.098h-1.664v4.098h-1.288v-4.098h-.792v6.477h8.77v-6.477h-.783v4.098h-1.289zM34.6 37.654v-6.477h-.792v4.098H32.52v-4.098h-1.664v4.098h-1.29v-4.098h-1.664v4.098h-1.288v-4.098h-.784v6.477h8.77zm0-6.477v26.035h2.25V18.868H34.6v12.31z" fill="#F7EEC4" stroke="#2B2A29" stroke-width=".57" stroke-miterlimit="22.93"/><path d="M34.6 19.745h-2.113v7.665H34.6v-7.665zm-2.114 0h-4.691v7.665h4.69v-7.665zm-4.692 0h-1.965v7.665h1.965v-7.665z" fill="#F7EEC4" stroke="#2B2A29" stroke-width=".57" stroke-miterlimit="22.93"/><path d="M32.486 17.533h-4.691v2.214h4.69v-2.214z" fill="#F7EEC4" stroke="#2B2A29" stroke-width=".57" stroke-miterlimit="22.93"/><path fill-rule="evenodd" clip-rule="evenodd" d="M25.83 27.412v-8.546h-2.249v38.347h2.249V27.412z" fill="#F7EEC4" stroke="#2B2A29" stroke-width=".57" stroke-miterlimit="22.93"/><path fill-rule="evenodd" clip-rule="evenodd" d="M31.693 41.421h-2.677v4.163h-2.113v-4.163h-1.074v8.292h4.047v7.499h.676v-7.5H34.6v-8.29h-.826v4.095h-2.08v-4.096zm56.477 0v8.292h4.048v7.499h.676v-7.5h4.047v-8.29h-1.073v4.162h-2.115v-4.163h-2.675v4.096h-2.083v-4.096h-.824zM34.6 57.213H23.582v2.578H36.85v-2.578H34.6zm2.25 0v2.05h1.678v-2.578H36.85v.528zm49.07 0v2.578h13.27v-2.578H85.92z" fill="#F7EEC4" stroke="#2B2A29" stroke-width=".57" stroke-miterlimit="22.93"/><path d="M109.603 29.064H99.19V59.79h10.413V29.064z" stroke="#2B2A29" stroke-width=".57" stroke-miterlimit="22.93"/><path d="M109.603 29.064H99.19v2.115h10.413v-2.115z" fill="#D8D9D9" stroke="#2B2A29" stroke-width=".57" stroke-miterlimit="22.93"/><path d="M105.614 36.002h-3.37v7.664h3.37v-7.664z" stroke="#2B2A29" stroke-width=".57" stroke-miterlimit="22.93"/><path d="M105.614 36.002h-1.684v7.664h1.684v-7.664z" stroke="#2B2A29" stroke-width=".57" stroke-miterlimit="22.93"/><path d="M105.614 36.002h-3.37v3.172h3.37v-3.172z" stroke="#2B2A29" stroke-width=".57" stroke-miterlimit="22.93"/><path d="M105.614 36.002h-3.37v1.585h3.37V36z" stroke="#2B2A29" stroke-width=".57" stroke-miterlimit="22.93"/><path d="M106.826 41.254h-5.716v3.074h5.716v-3.074z" fill="#FDFDFD" stroke="#2B2A29" stroke-width=".57" stroke-miterlimit="22.93"/><path clip-rule="evenodd" d="M104.396 44.99c2.874 0 5.206 1.664 5.206 3.716v.049h-10.41v-.049c-.003-2.052 2.33-3.717 5.204-3.717z" stroke="#2B2A29" stroke-width=".57" stroke-miterlimit="22.93"/><path clip-rule="evenodd" d="M104.396 45.42c2.218 0 4.019 1.285 4.019 2.87v.038h-8.038v-.038c0-1.585 1.8-2.87 4.019-2.87z" stroke="#2B2A29" stroke-width=".57" stroke-miterlimit="22.93"/><path d="M105.614 51.53h-3.37v5.683h3.37v-5.684z" stroke="#2B2A29" stroke-width=".57" stroke-miterlimit="22.93"/><path d="M105.614 51.53h-1.684v5.683h1.684v-5.684z" stroke="#2B2A29" stroke-width=".57" stroke-miterlimit="22.93"/><path d="M105.614 51.53h-3.37v3.172h3.37v-3.173z" stroke="#2B2A29" stroke-width=".57" stroke-miterlimit="22.93"/><path d="M105.614 51.53h-3.37v1.584h3.37V51.53zm3.989 6.972H99.19v1.288h10.413v-1.288z" stroke="#2B2A29" stroke-width=".57" stroke-miterlimit="22.93"/><path fill-rule="evenodd" clip-rule="evenodd" d="M105.615 41.257h1.218v3.073h-5.72v-3.073h1.132v-5.255h3.37v5.255zm-1.218 3.733c2.874 0 5.206 1.664 5.206 3.716V31.179H99.19v17.527c0-2.052 2.333-3.717 5.207-3.717zm5.205 3.767h-10.41V58.5h10.412v-9.743h-.002zm-3.986 2.775v5.683h-3.37V51.53h3.37z" fill="#F7EEC4" stroke="#2B2A29" stroke-width=".57" stroke-miterlimit="22.93"/><path fill-rule="evenodd" clip-rule="evenodd" d="M104.397 45.42c2.218 0 4.019 1.285 4.019 2.87v.038h-8.038v-.038c0-1.585 1.8-2.87 4.019-2.87zm-5.205 3.337h10.411v-.049c0-2.052-2.332-3.716-5.206-3.716-2.874 0-5.207 1.664-5.207 3.716l.002.049z" fill="#F7EEC4" stroke="#2B2A29" stroke-width=".57" stroke-miterlimit="22.93"/><path fill-rule="evenodd" clip-rule="evenodd" d="M108.415 48.288c0-1.585-1.801-2.87-4.019-2.87-2.219 0-4.019 1.285-4.019 2.87v.038h8.036l.002-.038z" fill="#F7EEC4" stroke="#2B2A29" stroke-width=".57" stroke-miterlimit="22.93"/><path d="M109.603 58.502H99.19v1.288h10.413v-1.288z" fill="#F7EEC4" stroke="#2B2A29" stroke-width=".57" stroke-miterlimit="22.93"/><defs><linearGradient id="paint0_linear" x1="41.518" y1="60.022" x2="61.412" y2="60.022" gradientUnits="userSpaceOnUse"><stop stop-color="#fff"/><stop offset=".26" stop-color="#E6E7E8"/><stop offset=".79" stop-color="#D1D3D4"/><stop offset="1" stop-color="#fff"/></linearGradient><linearGradient id="paint1_linear" x1="17.086" y1="57.584" x2="56.884" y2="35.971" gradientUnits="userSpaceOnUse"><stop stop-color="#E6E7E8"/><stop offset="1" stop-color="#fff"/></linearGradient><linearGradient id="paint2_linear" x1="8213.19" y1="14980.1" x2="6262.6" y2="14979.9" gradientUnits="userSpaceOnUse"><stop stop-color="#fff"/><stop offset=".26" stop-color="#E6E7E8"/><stop offset=".79" stop-color="#D1D3D4"/><stop offset="1" stop-color="#fff"/></linearGradient><linearGradient id="paint3_linear" x1="4283.34" y1="14960.4" x2="6234.12" y2="14960.4" gradientUnits="userSpaceOnUse"><stop stop-color="#fff"/><stop offset=".26" stop-color="#E6E7E8"/><stop offset=".79" stop-color="#D1D3D4"/><stop offset="1" stop-color="#fff"/></linearGradient></defs></svg>