<svg width="21" height="20" fill="none" xmlns="http://www.w3.org/2000/svg"><path d="M14.36 9.786c-.113-2.12-1.751-3.397-3.73-3.397h-.075c-2.283 0-3.55 1.726-3.55 3.687 0 2.195 1.532 3.582 3.542 3.582 2.24 0 3.712-1.577 3.819-3.442l-.005-.43zM10.567 4.49c1.526 0 2.96.649 4.014 1.664v.004c0-.487.341-.855.815-.855h.12c.74 0 .893.673.893.886l.003 7.577c-.052.496.533.752.857.434 1.266-1.25 2.78-6.428-.787-9.427-3.324-2.796-7.784-2.336-10.156-.764C3.804 5.68 2.191 9.38 3.758 12.856c1.708 3.79 6.597 4.92 9.503 3.793 1.471-.57 2.15 1.34.622 1.966-2.308.945-8.735.85-11.737-4.15C.118 11.09.226 5.151 5.606 2.075 9.72-.28 15.145.372 18.417 3.656c3.42 3.434 3.22 9.864-.115 12.363-1.512 1.136-3.757.031-3.743-1.624l-.015-.54a5.73 5.73 0 0 1-3.979 1.589c-3.014 0-5.667-2.55-5.667-5.448 0-2.926 2.653-5.506 5.667-5.506" fill="#fff"/></svg>