<svg width="12" height="20" fill="none" xmlns="http://www.w3.org/2000/svg"><path d="M5.103 13.637c-1.388-.149-2.64-.5-3.71-1.362-.133-.107-.27-.21-.392-.33-.469-.464-.516-.994-.145-1.54.317-.469.85-.594 1.404-.325.107.052.21.117.307.187 1.997 1.41 4.74 1.45 6.744.063a1.81 1.81 0 0 1 .657-.35 1.02 1.02 0 0 1 1.18.486c.294.491.29.97-.07 1.353a5.432 5.432 0 0 1-1.962 1.303c-.7.28-1.468.42-2.227.513.115.129.169.192.24.266 1.031 1.065 2.067 2.126 3.094 3.194.35.364.423.816.23 1.239-.21.463-.682.767-1.145.735-.293-.021-.521-.171-.724-.381-.778-.806-1.57-1.596-2.333-2.416-.222-.239-.328-.194-.524.014-.783.828-1.578 1.644-2.378 2.455-.36.364-.787.43-1.203.222-.443-.22-.725-.686-.703-1.153.015-.316.166-.557.377-.774 1.02-1.048 2.037-2.098 3.055-3.147.067-.07.13-.144.228-.252z" fill="#fff"/><path d="M5.949 9.988c-2.476-.009-4.506-2.12-4.492-4.67C1.471 2.739 3.503.66 6.003.668c2.505.007 4.516 2.115 4.504 4.72-.013 2.546-2.057 4.609-4.558 4.6zm2.25-4.664c-.004-1.266-.985-2.274-2.214-2.276-1.239-.001-2.228 1.025-2.219 2.303.01 1.262.998 2.263 2.23 2.258C7.227 7.605 8.204 6.59 8.2 5.324z" fill="#fff"/></svg>