<svg width="20" height="17" fill="none" xmlns="http://www.w3.org/2000/svg"><path d="M18.62 2.508c-.29.13-.587.24-.891.33a4.03 4.03 0 0 0 .802-1.434.305.305 0 0 0-.098-.329.293.293 0 0 0-.337-.023c-.646.39-1.342.67-2.073.833a3.942 3.942 0 0 0-2.77-1.148c-2.18 0-3.955 1.805-3.955 4.023 0 .175.01.349.032.52a10.08 10.08 0 0 1-6.95-3.75.295.295 0 0 0-.488.038 4.073 4.073 0 0 0-.535 2.023c0 .97.34 1.89.941 2.608a3.323 3.323 0 0 1-.53-.24.293.293 0 0 0-.291.002.303.303 0 0 0-.15.255v.054c0 1.447.766 2.75 1.936 3.46a3.36 3.36 0 0 1-.3-.045.294.294 0 0 0-.279.096.306.306 0 0 0-.06.293 3.98 3.98 0 0 0 2.897 2.697 6.913 6.913 0 0 1-3.74 1.085c-.28 0-.563-.017-.838-.05a.297.297 0 0 0-.315.199.305.305 0 0 0 .12.356 10.54 10.54 0 0 0 5.768 1.72c4.028 0 6.548-1.932 7.952-3.552 1.751-2.02 2.756-4.695 2.756-7.337 0-.11-.002-.222-.005-.333a7.77 7.77 0 0 0 1.77-1.907.306.306 0 0 0-.02-.362.294.294 0 0 0-.348-.082z" fill="#fff"/></svg>