<svg width="20" height="12" fill="none" xmlns="http://www.w3.org/2000/svg"><path fill-rule="evenodd" clip-rule="evenodd" d="M16.684 7.1c.612.615 1.257 1.194 1.805 1.87.242.3.472.611.647.96.249.496.024 1.042-.408 1.072L16.043 11c-.692.06-1.245-.227-1.71-.715-.371-.39-.715-.805-1.073-1.208a2.53 2.53 0 0 0-.483-.442c-.366-.245-.684-.17-.894.223-.213.4-.261.844-.282 1.29-.03.651-.22.822-.855.852-1.357.066-2.645-.145-3.842-.85-1.055-.622-1.873-1.5-2.585-2.493C2.933 5.723 1.871 3.597.917 1.412.703.92.86.656 1.387.646a70.752 70.752 0 0 1 2.628 0c.356.004.592.215.73.561a16.946 16.946 0 0 0 1.78 3.4c.195.282.392.563.674.762.311.22.548.146.695-.21.093-.227.133-.471.154-.714.07-.834.079-1.667-.043-2.499-.075-.519-.359-.855-.861-.953-.257-.05-.219-.149-.095-.3.216-.26.42-.422.824-.422h3.034c.478.098.584.319.65.814l.002 3.47c-.005.192.093.76.428.888.268.09.445-.131.606-.306.726-.794 1.245-1.733 1.708-2.704.205-.428.382-.871.553-1.315.127-.329.327-.49.686-.483l2.92.002c.087 0 .175.002.259.016.492.087.627.305.474.8-.239.776-.705 1.423-1.16 2.073-.487.694-1.008 1.364-1.491 2.062-.444.638-.409.959.142 1.513z" fill="#fff"/></svg>