<svg width="11" height="20" viewBox="0 0 11 20" fill="none" xmlns="http://www.w3.org/2000/svg">
<path d="M1.11842 10.4746H3.1179V18.7834C3.1179 18.9474 3.24959 19.0803 3.41211 19.0803H6.8023C6.96482 19.0803 7.09651 18.9474 7.09651 18.7834V10.5138H9.39508C9.54453 10.5138 9.67028 10.4006 9.68734 10.2507L10.0364 7.19184C10.046 7.10768 10.0196 7.0234 9.96384 6.96027C9.908 6.89707 9.82809 6.8609 9.74424 6.8609H7.09662V4.94345C7.09662 4.36544 7.40495 4.07234 8.01313 4.07234C8.09981 4.07234 9.74424 4.07234 9.74424 4.07234C9.90676 4.07234 10.0384 3.93935 10.0384 3.77537V0.96762C10.0384 0.803576 9.90676 0.670655 9.74424 0.670655H7.35853C7.3417 0.669823 7.30433 0.668457 7.24926 0.668457C6.83531 0.668457 5.39647 0.750479 4.25989 1.80589C3.00058 2.97546 3.17563 4.37583 3.21746 4.61863V6.86084H1.11842C0.955905 6.86084 0.824219 6.99376 0.824219 7.15781V10.1776C0.824219 10.3416 0.955905 10.4746 1.11842 10.4746Z" fill="white"/>
</svg>
