<svg width="110" height="102" viewBox="0 0 110 102" fill="none" xmlns="http://www.w3.org/2000/svg">
<path fill-rule="evenodd" clip-rule="evenodd" d="M41.9359 73.2722C48.1633 73.7736 58.511 66.643 61.4217 74.8554V47.6321C61.4217 47.6321 58.4664 46.2438 56.5503 46.5097C54.6342 46.7756 52.2451 47.3581 49.4035 47.3581C46.5618 47.3581 44.4468 45.1802 42.7296 45.1802C42.3194 45.1866 41.9111 45.2369 41.5117 45.3304L41.9359 73.2722Z" fill="url(#paint0_linear)" stroke="#2B2A29" stroke-width="0.57" stroke-miterlimit="22.93"/>
<path fill-rule="evenodd" clip-rule="evenodd" d="M61.4121 74.8556C58.5096 66.6432 48.1638 73.7758 41.9263 73.2724L41.5082 45.3428C41.2362 45.4037 40.9642 45.4767 40.6963 45.5579L41.1266 74.3969C46.745 74.8495 52.2274 69.6026 59.2849 72.3976C60.1821 72.7447 61.4121 74.8556 61.4121 74.8556Z" fill="#EAEBEB" stroke="#2B2A29" stroke-width="0.57" stroke-miterlimit="22.93"/>
<path fill-rule="evenodd" clip-rule="evenodd" d="M41.1415 74.3946L40.7112 45.5557C40.3235 45.6754 39.9582 45.8094 39.6436 45.9332L40.084 75.4522C45.7024 75.9048 52.1896 70.6741 59.2471 73.4691C60.126 73.8182 61.4108 75.0543 61.4108 75.0543V74.8513C61.4108 74.8513 60.1808 72.7404 59.3019 72.3933C52.2444 69.6003 46.7599 74.8473 41.1415 74.3946Z" fill="#D8D9D9" stroke="#2B2A29" stroke-width="0.57" stroke-miterlimit="22.93"/>
<path fill-rule="evenodd" clip-rule="evenodd" d="M64.1235 75.5495C62.861 78.2877 65.9219 76.3959 63.8597 80.0475C63.5106 80.6564 64.1235 86.6381 64.1235 87.72C64.1235 90.1151 60.9145 87.72 60.5511 90.4987C60.5126 90.8032 55.6411 96.649 54.334 94.335C53.1445 92.2301 51.6567 97.9074 50.6296 97.9074C47.8894 97.9074 49.9639 98.5772 49.0423 100.42C48.4578 101.589 46.2676 100.995 45.7358 100.014C43.9963 96.8357 39.4801 99.99 37.4016 100.808C31.6208 103.085 34.3569 97.5339 34.3569 95.6483C34.3569 91.5664 38.723 93.8519 38.723 92.0759C38.723 89.9994 35.7595 92.2261 33.9611 92.0759C32.0471 91.9155 28.2047 86.9852 26.0247 89.1652C25.0809 90.109 28.1519 91.8039 25.2311 91.8039C24.6039 91.8039 21.7947 92.8573 22.7182 90.0847C23.3515 88.3411 22.9882 87.8986 22.4381 86.4737C21.9469 85.199 21.3583 88.6618 20.8529 88.9846C20.1952 89.4047 18.9246 87.515 18.6729 87.0684C17.9848 85.8506 15.1066 86.3722 15.2365 88.059C15.2852 88.7004 13.3833 89.0495 12.9246 89.0495C11.3536 89.0495 12.1127 86.7762 10.2859 87.3973C9.27101 87.7403 9.18576 89.1449 7.97399 88.1239C6.98752 87.2938 7.18035 85.8912 7.18035 84.6875C7.18035 82.6577 9.61607 84.7505 8.50173 81.3831C7.31025 77.8107 13.1032 79.9967 10.022 77.153C8.31905 75.582 7.18035 75.4257 7.18035 72.5272C7.71012 64.9439 1.47669 67.333 0.837313 63.1435C0.634336 61.8526 2.84679 61.2924 3.61201 60.5657C4.61472 59.6138 2.54029 55.471 2.09171 54.4764C0.804837 51.6469 3.63637 52.2964 5.33934 52.2964C8.18102 52.2964 6.00105 47.222 6.00105 46.4812C6.00105 43.1828 10.0707 43.7856 10.5599 42.3181C10.3813 40.4669 8.2338 37.6273 9.96519 37.6273C14.3475 37.6273 17.0532 37.3005 15.3177 33.0684C14.7352 31.6476 13.2453 31.2538 12.4111 29.8959C11.7128 28.7613 10.4016 25.3715 9.30552 24.6185C8.05924 23.7518 6.39889 23.8776 6.39889 25.741C6.39889 29.1063 1.70606 24.448 2.4997 23.561C2.99902 23.0008 5.46316 21.2978 5.46316 21.0684C5.46316 20.0109 4.93542 19.13 4.93542 17.764C3.99564 15.7342 1.73041 14.3661 3.54706 11.5529C4.10524 10.6882 4.79131 9.54136 5.39821 8.77817C7.02203 6.73622 5.46519 1.17871 9.89212 1.17871C16.7609 1.17871 8.725 10.0326 14.5829 10.0326C16.1499 10.0326 21.1939 9.2369 21.6526 10.2964C22.5701 12.4115 26.727 11.6848 29.384 11.6848C32.3556 8.45341 39.3583 9.32215 43.8563 8.84312C44.2846 8.79847 47.0816 8.3641 47.4246 8.18142C48.2183 7.76329 49.0667 5.11647 50.2663 4.21728C51.2589 3.46423 52.7771 2.04745 54.0985 2.23419C54.6425 2.31132 57.5938 2.55083 57.1432 3.2917C55.2189 6.41958 54.3603 9.07249 58.3996 11.3539C61.2737 12.9778 58.3732 15.4135 61.2413 17.3012C64.2859 19.2944 63.6202 19.7734 63.6202 23.3905C65.6317 37.0691 65.9706 51.1841 66.9124 64.8445C67.0992 67.6781 68.2724 75.4155 64.1235 75.5495Z" fill="#2B2A29" stroke="#2B2A29" stroke-width="0.57" stroke-miterlimit="22.93"/>
<path fill-rule="evenodd" clip-rule="evenodd" d="M65.3804 75.0868C64.1179 77.825 67.1788 75.9332 65.1165 79.5848C64.7674 80.1937 65.3804 86.1754 65.3804 87.2573C65.3804 89.6524 62.1713 87.2573 61.808 90.0361C61.7694 90.3405 56.898 96.1863 55.5908 93.8723C54.4013 91.7674 52.9135 97.4447 51.8865 97.4447C49.1463 97.4447 51.2207 98.1145 50.2992 99.9576C49.7146 101.127 47.5245 100.532 46.9927 99.5516C45.2532 96.373 40.7369 99.5273 38.6584 100.345C32.8777 102.623 35.6138 97.0712 35.6138 95.1856C35.6138 91.1037 39.9798 93.3892 39.9798 91.6132C39.9798 89.5367 37.0164 91.7634 35.218 91.6132C33.3039 91.4528 29.4615 86.5225 27.2816 88.7025C26.3377 89.6463 29.4088 91.3412 26.4879 91.3412C25.8607 91.3412 23.0515 92.3946 23.9751 89.622C24.6084 87.8784 24.245 87.4359 23.695 86.011C23.2038 84.7363 22.6151 88.1991 22.1097 88.5219C21.4521 88.942 20.1814 87.0523 19.9297 86.6057C19.2417 85.3879 16.3634 85.9095 16.4933 87.5963C16.5421 88.2377 14.6402 88.5868 14.1814 88.5868C12.6104 88.5868 13.3695 86.3135 11.5427 86.9346C10.5278 87.2776 10.4426 88.6822 9.23082 87.6612C8.24435 86.8311 8.43718 85.4285 8.43718 84.2248C8.43718 82.1951 10.8729 84.2877 9.75856 80.9204C8.56709 77.348 14.3601 79.534 11.2789 76.6903C9.57588 75.1193 8.43718 74.963 8.43718 72.0645C8.96695 64.4812 2.73353 66.8703 2.09415 62.6808C1.89117 61.3899 4.10362 60.8297 4.86885 60.103C5.87155 59.1511 3.79713 55.0083 3.34855 54.0137C2.06167 51.1842 4.8932 51.8338 6.59618 51.8338C9.43786 51.8338 7.25789 46.7593 7.25789 46.0185C7.25789 42.7201 11.3276 43.3229 11.8168 41.8554C11.6381 40.0043 9.49063 37.1646 11.222 37.1646C15.6043 37.1646 18.31 36.8378 16.5745 32.6057C15.992 31.1849 14.5021 30.7891 13.6679 29.4332C12.9697 28.2986 11.6584 24.9089 10.5624 24.1558C9.31607 23.2891 7.65572 23.4149 7.65572 25.2783C7.65572 28.6436 2.96289 23.9853 3.75653 23.0983C4.27006 22.5259 6.73015 20.8168 6.73015 20.5875C6.73015 19.53 6.2024 18.649 6.2024 17.283C5.26262 15.2532 2.9974 13.8852 4.81404 11.0719C5.37223 10.2072 6.05829 9.06041 6.66519 8.29721C8.28901 6.25527 6.73217 0.697754 11.1591 0.697754C18.0278 0.697754 9.99199 9.55161 15.8499 9.55161C17.4169 9.55161 22.4609 8.75594 22.9196 9.81548C23.8371 11.9305 27.994 11.2038 30.651 11.2038C33.6226 7.97245 40.6253 8.84119 45.1233 8.36217C45.5515 8.31751 48.3486 7.88314 48.6916 7.70046C49.4852 7.28233 50.3337 4.63551 51.5333 3.73632C52.5258 2.98328 54.0441 1.5665 55.3655 1.75324C55.9095 1.83037 58.8608 2.06988 58.4101 2.81075C56.4656 5.9508 55.5989 8.6098 59.6463 10.8913C62.5204 12.5151 59.6199 14.9508 62.4879 16.8385C65.5326 18.8317 64.8668 19.3108 64.8668 22.9278C66.8783 36.6064 67.2173 50.7214 68.1591 64.3818C68.356 67.2154 69.5272 74.963 65.3804 75.0868Z" fill="url(#paint1_linear)" stroke="#2B2A29" stroke-width="0.57" stroke-miterlimit="22.93"/>
<path fill-rule="evenodd" clip-rule="evenodd" d="M62.1562 55.0875L56.3165 53.9245C55.1596 53.9427 54.2056 54.8642 54.8429 56.0598C55.0703 56.484 55.5432 56.6992 55.9918 56.8047C56.3003 56.8778 56.6251 56.8352 56.9336 56.9062C59.2496 57.438 61.5128 58.1687 63.5791 59.3724C64.5757 59.9529 65.8301 61.0693 65.1258 62.3582C64.598 63.3223 63.2076 63.6349 62.2293 63.8338C60.9363 64.0977 59.144 64.0368 57.9789 64.7655C57.6684 64.9684 57.5994 65.7012 57.7922 66.0097C58.0845 66.4806 59.075 66.3872 59.416 66.3994C60.6684 66.4441 61.4234 66.3994 62.5479 66.9901C63.5113 67.484 64.3381 68.2076 64.9553 69.097L64.9086 69.1193C64.0677 68.1364 62.9896 67.3846 61.7766 66.9353C60.5243 66.4786 59.2414 66.9617 57.9708 66.6247C57.1061 66.3974 57.2036 65.2485 57.4999 64.6376C57.6806 64.2661 58.2834 64.1017 58.6203 64.0124L63.437 62.9102C64.1291 62.6301 64.9167 62.1552 64.6548 61.2986C64.2489 59.9529 62.14 59.3033 61.0013 58.8751L56.3754 57.6288C55.2103 57.4583 54.0696 56.959 53.9214 55.6579C53.7793 54.4136 54.437 53.4048 55.6975 53.1471C56.5885 52.9644 62.617 53.072 62.617 54.6369C62.617 54.6969 62.605 54.7564 62.5817 54.8117C62.5584 54.8671 62.5243 54.9172 62.4814 54.9592C62.4385 55.0012 62.3876 55.0341 62.3318 55.0562C62.2759 55.0782 62.2162 55.0889 62.1562 55.0875Z" fill="#009746" stroke="#2B2A29" stroke-width="0.57" stroke-miterlimit="22.93"/>
<path fill-rule="evenodd" clip-rule="evenodd" d="M53.2031 57.2795C53.2031 57.2795 56.3757 60.3526 57.5306 61.0123C58.3882 61.4741 59.2839 61.8612 60.2079 62.1693L60.6138 68.2586L57.078 69.7464C57.078 69.7464 60.2485 69.7789 61.4217 69.7464C62.5949 69.7789 65.7654 69.7464 65.7654 69.7464L62.2295 68.2586L62.6355 62.1693C63.5588 61.8611 64.4538 61.474 65.3107 61.0123C66.4677 60.3506 69.6382 57.2795 69.6382 57.2795H53.2031Z" fill="#FBD4A5" stroke="#2B2A29" stroke-width="0.57" stroke-miterlimit="22.93"/>
<path fill-rule="evenodd" clip-rule="evenodd" d="M32.498 79.1261H33.6286V83.7845H35.8208V79.1261H36.9514V83.7845H37.4182V85.9461H36.4784V84.7283H32.5001V79.1261H32.498ZM38.2058 79.1261H42.657V84.7242H41.5265V80.0659H39.3343V84.7242H38.2037V79.1261H38.2058ZM43.8303 79.1261H44.9608V81.5091C45.1507 81.5078 45.3332 81.4353 45.4723 81.3061C45.6426 81.0334 45.7789 80.741 45.8783 80.4353C46.1124 79.8291 46.3478 79.4522 46.5847 79.3047C46.8201 79.1566 47.1936 79.0835 47.7193 79.0835H47.8837V79.9198H47.7234C47.5499 79.9086 47.3762 79.9378 47.2159 80.005C47.1056 80.0651 47.0153 80.1561 46.9561 80.2669C46.8411 80.5005 46.7428 80.742 46.6618 80.9895C46.6038 81.1582 46.529 81.3208 46.4385 81.4746C46.3284 81.6293 46.182 81.7548 46.0123 81.8399C46.263 81.9104 46.483 82.0625 46.6374 82.2723C46.8445 82.5606 47.0252 82.867 47.1773 83.1877L47.9405 84.7222H46.6131L45.9514 83.2851C45.9412 83.2648 45.9209 83.2242 45.8864 83.1674C45.8742 83.1471 45.8255 83.0598 45.7464 82.9035C45.6607 82.7108 45.5395 82.5359 45.3891 82.388C45.2615 82.3091 45.1126 82.2715 44.9629 82.2804V84.7324H43.8262V79.1261H43.8303ZM50.7579 84.7242V79.1261H52.5704C53.0201 79.1083 53.4704 79.1369 53.9142 79.2114C54.2396 79.2955 54.5263 79.489 54.7261 79.7594C54.9534 80.0761 55.0678 80.4599 55.0508 80.8494C55.0607 81.1493 54.9966 81.4469 54.8641 81.7161C54.7503 81.9372 54.5845 82.1273 54.381 82.2702C54.2054 82.3959 54.0068 82.4855 53.7964 82.5341C53.4087 82.5969 53.0159 82.6241 52.6232 82.6153H51.8864V84.7263L50.7579 84.7242ZM51.8884 80.074V81.6613H52.4974C52.7978 81.6783 53.099 81.6489 53.3905 81.574C53.5335 81.521 53.6568 81.4253 53.7437 81.3C53.8296 81.1716 53.8742 81.0201 53.8715 80.8656C53.8777 80.6809 53.8131 80.5009 53.6909 80.3622C53.5725 80.2307 53.4129 80.1434 53.2382 80.1146C52.969 80.0813 52.6976 80.0684 52.4263 80.0761L51.8884 80.074ZM55.7004 83.2384L56.7376 83.1126C56.753 83.3406 56.8478 83.5561 57.0055 83.7215C57.0786 83.792 57.1652 83.8469 57.2601 83.883C57.3549 83.9191 57.4561 83.9357 57.5575 83.9317C57.659 83.9277 57.7586 83.9033 57.8503 83.8598C57.9421 83.8164 58.0241 83.7548 58.0914 83.6789C58.2507 83.4893 58.332 83.2462 58.3188 82.9989C58.3319 82.7651 58.254 82.5353 58.1016 82.3575C58.0358 82.2818 57.9544 82.2214 57.8629 82.1804C57.7714 82.1393 57.6721 82.1188 57.5718 82.12C57.4046 82.1243 57.2387 82.1509 57.0786 82.1992L57.1963 81.3264C57.4334 81.3491 57.6704 81.2817 57.86 81.1376C57.9355 81.0713 57.9953 80.989 58.035 80.8966C58.0747 80.8043 58.0933 80.7042 58.0894 80.6038C58.0953 80.5218 58.0836 80.4396 58.0553 80.3625C58.0269 80.2854 57.9824 80.2152 57.9248 80.1567C57.8672 80.0981 57.7978 80.0525 57.7212 80.0228C57.6445 79.9932 57.5625 79.9802 57.4805 79.9847C57.3934 79.983 57.307 79.9991 57.2264 80.0319C57.1458 80.0647 57.0727 80.1136 57.0116 80.1755C56.8697 80.3274 56.7857 80.5242 56.7741 80.7317L55.7856 80.5652C55.8342 80.2767 55.9398 80.0007 56.0962 79.7533C56.2429 79.5447 56.4436 79.3798 56.6767 79.2763C56.9385 79.1574 57.2234 79.0978 57.5109 79.1018C57.7461 79.0914 57.9808 79.1311 58.1995 79.2182C58.4182 79.3053 58.6159 79.4379 58.7795 79.6072C58.9034 79.7288 59.002 79.8737 59.0695 80.0337C59.1371 80.1936 59.1724 80.3652 59.1733 80.5388C59.1733 81.03 58.9027 81.4218 58.3614 81.7141C58.6645 81.7725 58.937 81.9365 59.1307 82.1769C59.3251 82.4232 59.4271 82.7299 59.4189 83.0436C59.422 83.279 59.3757 83.5124 59.2831 83.7288C59.1904 83.9452 59.0535 84.1398 58.881 84.3C58.5274 84.6192 58.072 84.8026 57.5958 84.8175C57.1197 84.8324 56.6537 84.6778 56.2809 84.3812C55.9471 84.0895 55.7391 83.68 55.7004 83.2384Z" fill="#C2292D"/>
<path d="M25.83 18.8662H23.5811V57.2126H25.83V18.8662Z" stroke="#2B2A29" stroke-width="0.57" stroke-miterlimit="22.93"/>
<path d="M36.8496 18.8662H34.6006V57.2126H36.8496V18.8662Z" stroke="#2B2A29" stroke-width="0.57" stroke-miterlimit="22.93"/>
<path d="M61.4687 22.5708H36.8496V24.8198H61.4687V22.5708Z" stroke="#2B2A29" stroke-width="0.57" stroke-miterlimit="22.93"/>
<path d="M37.7732 22.5706C38.2844 22.5706 38.6988 21.9826 38.6988 21.2574C38.6988 20.5321 38.2844 19.9441 37.7732 19.9441C37.262 19.9441 36.8477 20.5321 36.8477 21.2574C36.8477 21.9826 37.262 22.5706 37.7732 22.5706Z" stroke="#2B2A29" stroke-width="0.57" stroke-miterlimit="22.93"/>
<path d="M44.3152 22.5706C44.8264 22.5706 45.2408 21.9826 45.2408 21.2574C45.2408 20.5321 44.8264 19.9441 44.3152 19.9441C43.804 19.9441 43.3896 20.5321 43.3896 21.2574C43.3896 21.9826 43.804 22.5706 44.3152 22.5706Z" stroke="#2B2A29" stroke-width="0.57" stroke-miterlimit="22.93"/>
<path d="M50.8572 22.5706C51.3684 22.5706 51.7828 21.9826 51.7828 21.2574C51.7828 20.5321 51.3684 19.9441 50.8572 19.9441C50.346 19.9441 49.9316 20.5321 49.9316 21.2574C49.9316 21.9826 50.346 22.5706 50.8572 22.5706Z" stroke="#2B2A29" stroke-width="0.57" stroke-miterlimit="22.93"/>
<path d="M58.9195 20.2078H57.0684V22.5704H58.9195V20.2078Z" stroke="#2B2A29" stroke-width="0.57" stroke-miterlimit="22.93"/>
<path d="M57.9929 20.3318C58.5029 20.3318 58.9164 19.7439 58.9164 19.0186C58.9164 18.2933 58.5029 17.7053 57.9929 17.7053C57.4828 17.7053 57.0693 18.2933 57.0693 19.0186C57.0693 19.7439 57.4828 20.3318 57.9929 20.3318Z" stroke="#2B2A29" stroke-width="0.57" stroke-miterlimit="22.93"/>
<path d="M61.3846 21.6146C61.8957 21.6146 62.3101 21.0266 62.3101 20.3013C62.3101 19.576 61.8957 18.988 61.3846 18.988C60.8734 18.988 60.459 19.576 60.459 20.3013C60.459 21.0266 60.8734 21.6146 61.3846 21.6146Z" stroke="#2B2A29" stroke-width="0.57" stroke-miterlimit="22.93"/>
<path d="M47.022 29.9792H45.3027V35.1389H47.022V29.9792Z" stroke="#2B2A29" stroke-width="0.57" stroke-miterlimit="22.93"/>
<path d="M50.2622 29.9792H48.543V35.1389H50.2622V29.9792Z" stroke="#2B2A29" stroke-width="0.57" stroke-miterlimit="22.93"/>
<path d="M53.7954 29.9792H52.0762V35.1389H53.7954V29.9792Z" stroke="#2B2A29" stroke-width="0.57" stroke-miterlimit="22.93"/>
<path d="M57.0386 29.9792H55.3193V35.1389H57.0386V29.9792Z" stroke="#2B2A29" stroke-width="0.57" stroke-miterlimit="22.93"/>
<path d="M60.5718 29.9792H58.8525V35.1389H60.5718V29.9792Z" stroke="#2B2A29" stroke-width="0.57" stroke-miterlimit="22.93"/>
<path d="M40.2456 29.9792H38.5264V35.1389H40.2456V29.9792Z" stroke="#2B2A29" stroke-width="0.57" stroke-miterlimit="22.93"/>
<path d="M43.4868 29.9792H41.7676V35.1389H43.4868V29.9792Z" stroke="#2B2A29" stroke-width="0.57" stroke-miterlimit="22.93"/>
<path d="M42.7288 39.239H39.3594V46.9034H42.7288V39.239Z" stroke="#2B2A29" stroke-width="0.57" stroke-miterlimit="22.93"/>
<path fill-rule="evenodd" clip-rule="evenodd" d="M43.6534 37.3899H38.4004V41.354H39.3584V39.239H42.7299V41.354H43.6534V37.3899Z" fill="#FDFDFD" stroke="#2B2A29" stroke-width="0.57" stroke-miterlimit="22.93"/>
<path d="M41.0441 39.239H39.3594V46.9034H41.0441V39.239Z" stroke="#2B2A29" stroke-width="0.57" stroke-miterlimit="22.93"/>
<path d="M42.7288 39.239H39.3594V42.4115H42.7288V39.239Z" stroke="#2B2A29" stroke-width="0.57" stroke-miterlimit="22.93"/>
<path d="M42.7288 39.239H39.3594V40.8243H42.7288V39.239Z" stroke="#2B2A29" stroke-width="0.57" stroke-miterlimit="22.93"/>
<path d="M49.4348 39.239H46.0654V46.9034H49.4348V39.239Z" stroke="#2B2A29" stroke-width="0.57" stroke-miterlimit="22.93"/>
<path fill-rule="evenodd" clip-rule="evenodd" d="M50.3624 37.3899H45.1094V41.354H46.0674V39.239H49.4368V41.354H50.3624V37.3899Z" fill="#FDFDFD" stroke="#2B2A29" stroke-width="0.57" stroke-miterlimit="22.93"/>
<path d="M47.7501 39.239H46.0654V46.9034H47.7501V39.239Z" stroke="#2B2A29" stroke-width="0.57" stroke-miterlimit="22.93"/>
<path d="M49.4348 39.239H46.0654V42.4115H49.4348V39.239Z" stroke="#2B2A29" stroke-width="0.57" stroke-miterlimit="22.93"/>
<path d="M49.4348 39.239H46.0654V40.8243H49.4348V39.239Z" stroke="#2B2A29" stroke-width="0.57" stroke-miterlimit="22.93"/>
<path d="M56.1429 39.239H52.7734V46.9034H56.1429V39.239Z" stroke="#2B2A29" stroke-width="0.57" stroke-miterlimit="22.93"/>
<path fill-rule="evenodd" clip-rule="evenodd" d="M57.0685 37.3899H51.8154V41.354H52.7735V39.239H56.1429V41.354H57.0685V37.3899Z" fill="#FDFDFD" stroke="#2B2A29" stroke-width="0.57" stroke-miterlimit="22.93"/>
<path d="M54.4581 39.239H52.7734V46.9034H54.4581V39.239Z" stroke="#2B2A29" stroke-width="0.57" stroke-miterlimit="22.93"/>
<path d="M56.1429 39.239H52.7734V42.4115H56.1429V39.239Z" stroke="#2B2A29" stroke-width="0.57" stroke-miterlimit="22.93"/>
<path d="M56.1429 39.239H52.7734V40.8243H56.1429V39.239Z" stroke="#2B2A29" stroke-width="0.57" stroke-miterlimit="22.93"/>
<path d="M63.1468 39.239H59.7773V46.9034H63.1468V39.239Z" stroke="#2B2A29" stroke-width="0.57" stroke-miterlimit="22.93"/>
<path fill-rule="evenodd" clip-rule="evenodd" d="M64.0734 37.3899H58.8203V41.354H59.7784V39.239H63.1478V41.354H64.0734V37.3899Z" fill="#FDFDFD" stroke="#2B2A29" stroke-width="0.57" stroke-miterlimit="22.93"/>
<path d="M61.4621 39.239H59.7773V46.9034H61.4621V39.239Z" stroke="#2B2A29" stroke-width="0.57" stroke-miterlimit="22.93"/>
<path d="M63.1468 39.239H59.7773V42.4115H63.1468V39.239Z" stroke="#2B2A29" stroke-width="0.57" stroke-miterlimit="22.93"/>
<path d="M63.1468 39.239H59.7773V40.8243H63.1468V39.239Z" stroke="#2B2A29" stroke-width="0.57" stroke-miterlimit="22.93"/>
<path fill-rule="evenodd" clip-rule="evenodd" d="M44.1158 27.8071H37.8945V31.1765H38.5258V29.979H40.245V31.1765H41.7653V29.979H43.4865V31.1765H44.1158V27.8071Z" fill="#FDFDFD" stroke="#2B2A29" stroke-width="0.57" stroke-miterlimit="22.93"/>
<path fill-rule="evenodd" clip-rule="evenodd" d="M50.8951 27.8071H44.6738V31.1765H45.3031V29.979H47.0223V31.1765H48.5446V29.979H50.2638V31.1765H50.8951V27.8071Z" fill="#FDFDFD" stroke="#2B2A29" stroke-width="0.57" stroke-miterlimit="22.93"/>
<path fill-rule="evenodd" clip-rule="evenodd" d="M57.6724 27.8071H51.4512V31.1765H52.0804V29.979H53.8016V31.1765H55.3219V29.979H57.0412V31.1765H57.6724V27.8071Z" fill="#FDFDFD" stroke="#2B2A29" stroke-width="0.57" stroke-miterlimit="22.93"/>
<path fill-rule="evenodd" clip-rule="evenodd" d="M64.4498 27.8071H58.2285V31.1765H58.8598V29.979H60.579V31.1765H62.1013V29.979H63.8205V31.1765H64.4498V27.8071Z" fill="#FDFDFD" stroke="#2B2A29" stroke-width="0.57" stroke-miterlimit="22.93"/>
<path d="M27.9022 29.5266H26.6133V35.2749H27.9022V29.5266Z" stroke="#2B2A29" stroke-width="0.57" stroke-miterlimit="22.93"/>
<path fill-rule="evenodd" clip-rule="evenodd" d="M29.5664 29.5266H30.8553V35.2749H29.5664V29.5266Z" stroke="#2B2A29" stroke-width="0.57" stroke-miterlimit="22.93"/>
<path d="M33.8094 29.5266H32.5205V35.2749H33.8094V29.5266Z" stroke="#2B2A29" stroke-width="0.57" stroke-miterlimit="22.93"/>
<path fill-rule="evenodd" clip-rule="evenodd" d="M34.5997 27.4116H25.8291V31.1768H26.6126V29.5246H27.9015V31.1768H29.5659V29.5246H30.8548V31.1768H32.5192V29.5246H33.8081V31.1768H34.5997V27.4116Z" fill="#FDFDFD" stroke="#2B2A29" stroke-width="0.57" stroke-miterlimit="22.93"/>
<path d="M32.4857 17.5327H27.7949V27.4116H32.4857V17.5327Z" stroke="#2B2A29" stroke-width="0.57" stroke-miterlimit="22.93"/>
<path d="M34.5997 19.7451H25.8291V27.4095H34.5997V19.7451Z" stroke="#2B2A29" stroke-width="0.57" stroke-miterlimit="22.93"/>
<path d="M36.8497 57.2126H23.5811V59.7905H36.8497V57.2126Z" stroke="#2B2A29" stroke-width="0.57" stroke-miterlimit="22.93"/>
<path d="M50.1182 56.6851H36.8496V59.2629H50.1182V56.6851Z" stroke="#2B2A29" stroke-width="0.57" stroke-miterlimit="22.93"/>
<path d="M34.5997 37.6538H25.8291V41.4211H34.5997V37.6538Z" stroke="#2B2A29" stroke-width="0.57" stroke-miterlimit="22.93"/>
<path fill-rule="evenodd" clip-rule="evenodd" d="M26.9033 39.5049H29.0082V45.5942H26.9033V39.5049ZM31.6936 39.5049H33.7741V45.5191H31.6936V39.5049Z" stroke="#2B2A29" stroke-width="0.57" stroke-miterlimit="22.93"/>
<path d="M29.8765 49.7126H25.8291V57.2127H29.8765V49.7126Z" stroke="#2B2A29" stroke-width="0.57" stroke-miterlimit="22.93"/>
<path d="M34.6001 49.7126H30.5527V57.2127H34.6001V49.7126Z" stroke="#2B2A29" stroke-width="0.57" stroke-miterlimit="22.93"/>
<path d="M27.8528 49.7126H25.8291V57.2127H27.8528V49.7126Z" stroke="#2B2A29" stroke-width="0.57" stroke-miterlimit="22.93"/>
<path d="M32.5764 49.7126H30.5527V57.2127H32.5764V49.7126Z" stroke="#2B2A29" stroke-width="0.57" stroke-miterlimit="22.93"/>
<path d="M29.8765 52.0916H25.8291V57.2127H29.8765V52.0916Z" stroke="#2B2A29" stroke-width="0.57" stroke-miterlimit="22.93"/>
<path d="M34.6001 52.0916H30.5527V57.2127H34.6001V52.0916Z" stroke="#2B2A29" stroke-width="0.57" stroke-miterlimit="22.93"/>
<path d="M99.1904 18.8662H96.9414V57.2126H99.1904V18.8662Z" stroke="#2B2A29" stroke-width="0.57" stroke-miterlimit="22.93"/>
<path d="M88.1699 18.8662H85.9209V57.2126H88.1699V18.8662Z" stroke="#2B2A29" stroke-width="0.57" stroke-miterlimit="22.93"/>
<path d="M85.9228 22.5708H61.3037V24.8198H85.9228V22.5708Z" stroke="#2B2A29" stroke-width="0.57" stroke-miterlimit="22.93"/>
<path d="M84.9978 22.5706C85.509 22.5706 85.9234 21.9826 85.9234 21.2574C85.9234 20.5321 85.509 19.9441 84.9978 19.9441C84.4867 19.9441 84.0723 20.5321 84.0723 21.2574C84.0723 21.9826 84.4867 22.5706 84.9978 22.5706Z" stroke="#2B2A29" stroke-width="0.57" stroke-miterlimit="22.93"/>
<path d="M78.4558 22.5706C78.967 22.5706 79.3814 21.9826 79.3814 21.2574C79.3814 20.5321 78.967 19.9441 78.4558 19.9441C77.9447 19.9441 77.5303 20.5321 77.5303 21.2574C77.5303 21.9826 77.9447 22.5706 78.4558 22.5706Z" stroke="#2B2A29" stroke-width="0.57" stroke-miterlimit="22.93"/>
<path d="M71.9139 22.5706C72.425 22.5706 72.8394 21.9826 72.8394 21.2574C72.8394 20.5321 72.425 19.9441 71.9139 19.9441C71.4027 19.9441 70.9883 20.5321 70.9883 21.2574C70.9883 21.9826 71.4027 22.5706 71.9139 22.5706Z" stroke="#2B2A29" stroke-width="0.57" stroke-miterlimit="22.93"/>
<path d="M65.7027 20.2078H63.8516V22.5704H65.7027V20.2078Z" stroke="#2B2A29" stroke-width="0.57" stroke-miterlimit="22.93"/>
<path d="M64.7771 20.3318C65.2883 20.3318 65.7027 19.7439 65.7027 19.0186C65.7027 18.2933 65.2883 17.7053 64.7771 17.7053C64.266 17.7053 63.8516 18.2933 63.8516 19.0186C63.8516 19.7439 64.266 20.3318 64.7771 20.3318Z" stroke="#2B2A29" stroke-width="0.57" stroke-miterlimit="22.93"/>
<path d="M61.3846 21.6146C61.8957 21.6146 62.3101 21.0266 62.3101 20.3013C62.3101 19.576 61.8957 18.988 61.3846 18.988C60.8734 18.988 60.459 19.576 60.459 20.3013C60.459 21.0266 60.8734 21.6146 61.3846 21.6146Z" stroke="#2B2A29" stroke-width="0.57" stroke-miterlimit="22.93"/>
<path fill-rule="evenodd" clip-rule="evenodd" d="M78.4552 22.5705C78.9667 22.5705 79.3808 21.9819 79.3808 21.2572C79.3808 21.2572 80.4647 21.4034 81.8632 21.4602C82.6062 21.5199 83.3539 21.4512 84.0736 21.2572C84.0736 21.9819 84.4796 22.5705 84.9992 22.5705H65.7022V20.2099C65.7022 20.2099 67.326 20.8046 68.6088 21.1355C69.4062 21.3285 70.2434 21.2754 71.01 20.9832C70.9964 21.0746 70.9896 21.1669 70.9897 21.2593C70.9897 21.9839 71.3957 22.5725 71.9153 22.5725C72.4349 22.5725 72.8409 21.9839 72.8409 21.2593C72.8412 21.1854 72.8372 21.1115 72.8287 21.038C73.6179 21.3276 74.4469 21.4939 75.2868 21.5313C76.0728 21.5013 76.8445 21.3107 77.554 20.971C77.5389 21.0677 77.5314 21.1655 77.5317 21.2633C77.5317 21.988 77.9376 22.5766 78.4572 22.5766L78.4552 22.5705ZM44.3145 22.5705C43.803 22.5705 43.3889 21.9819 43.3889 21.2572C43.3889 21.2572 42.305 21.4034 40.9065 21.4602C40.1635 21.5199 39.4158 21.4512 38.6961 21.2572C38.6961 21.9819 38.2901 22.5705 37.7705 22.5705H57.0655V20.2099C57.0655 20.2099 55.4417 20.8046 54.1589 21.1355C53.3615 21.3285 52.5243 21.2754 51.7577 20.9832C51.7713 21.0746 51.7781 21.1669 51.778 21.2593C51.778 21.9839 51.372 22.5725 50.8524 22.5725C50.3328 22.5725 49.9268 21.9839 49.9268 21.2593C49.9265 21.1854 49.9305 21.1115 49.939 21.038C49.1491 21.3278 48.3194 21.4942 47.4789 21.5313C46.6942 21.5008 45.924 21.3102 45.2157 20.971C45.2308 21.0677 45.2383 21.1655 45.238 21.2633C45.238 21.988 44.8321 22.5766 44.3125 22.5766L44.3145 22.5705ZM61.3849 17.4129C61.3016 17.3966 61.0337 17.3885 60.3476 17.6991C59.8061 17.9483 59.3133 18.2919 58.8923 18.7139C58.9097 18.8159 58.9185 18.9191 58.9187 19.0225C58.9313 19.2488 58.8897 19.4748 58.7972 19.6817C58.7046 19.8887 58.564 20.0704 58.3869 20.2119H58.9187V22.5746H63.851V20.2099H64.3828C64.2057 20.0684 64.0651 19.8866 63.9725 19.6797C63.88 19.4728 63.8384 19.2467 63.851 19.0204C63.8512 18.917 63.86 18.8138 63.8774 18.7119C63.4564 18.2899 62.9636 17.9463 62.4221 17.697C61.736 17.3865 61.4681 17.3946 61.3849 17.4108V17.4129ZM61.3605 21.6125C60.8612 21.5942 60.4613 21.0035 60.4613 20.2992C60.4613 19.5949 60.8673 19.0062 61.3605 18.9859H61.4112C61.9106 19.0042 62.3104 19.5949 62.3104 20.2992C62.3104 21.0035 61.9045 21.5922 61.4112 21.6125H61.3605Z" fill="#D8D9D9" stroke="#2B2A29" stroke-width="0.57" stroke-miterlimit="22.93"/>
<path d="M77.4673 29.9792H75.748V35.1389H77.4673V29.9792Z" stroke="#2B2A29" stroke-width="0.57" stroke-miterlimit="22.93"/>
<path d="M74.2261 29.9792H72.5068V35.1389H74.2261V29.9792Z" stroke="#2B2A29" stroke-width="0.57" stroke-miterlimit="22.93"/>
<path d="M70.6919 29.9792H68.9727V35.1389H70.6919V29.9792Z" stroke="#2B2A29" stroke-width="0.57" stroke-miterlimit="22.93"/>
<path d="M67.4536 29.9792H65.7344V35.1389H67.4536V29.9792Z" stroke="#2B2A29" stroke-width="0.57" stroke-miterlimit="22.93"/>
<path d="M63.9194 29.9792H62.2002V35.1389H63.9194V29.9792Z" stroke="#2B2A29" stroke-width="0.57" stroke-miterlimit="22.93"/>
<path d="M84.2446 29.9792H82.5254V35.1389H84.2446V29.9792Z" stroke="#2B2A29" stroke-width="0.57" stroke-miterlimit="22.93"/>
<path d="M81.0034 29.9792H79.2842V35.1389H81.0034V29.9792Z" stroke="#2B2A29" stroke-width="0.57" stroke-miterlimit="22.93"/>
<path d="M83.4114 39.239H80.042V46.9034H83.4114V39.239Z" stroke="#2B2A29" stroke-width="0.57" stroke-miterlimit="22.93"/>
<path fill-rule="evenodd" clip-rule="evenodd" d="M79.1162 37.3899H84.3693V41.354H83.4112V39.239H80.0418V41.354H79.1162V37.3899Z" fill="#FDFDFD" stroke="#2B2A29" stroke-width="0.57" stroke-miterlimit="22.93"/>
<path d="M83.4103 39.239H81.7256V46.9034H83.4103V39.239Z" stroke="#2B2A29" stroke-width="0.57" stroke-miterlimit="22.93"/>
<path d="M83.4114 39.239H80.042V42.4115H83.4114V39.239Z" stroke="#2B2A29" stroke-width="0.57" stroke-miterlimit="22.93"/>
<path d="M83.4114 39.239H80.042V40.8243H83.4114V39.239Z" stroke="#2B2A29" stroke-width="0.57" stroke-miterlimit="22.93"/>
<path d="M76.7044 39.239H73.335V46.9034H76.7044V39.239Z" stroke="#2B2A29" stroke-width="0.57" stroke-miterlimit="22.93"/>
<path fill-rule="evenodd" clip-rule="evenodd" d="M72.4102 37.3899H77.6632V41.354H76.7052V39.239H73.3357V41.354H72.4102V37.3899Z" fill="#FDFDFD" stroke="#2B2A29" stroke-width="0.57" stroke-miterlimit="22.93"/>
<path d="M76.7042 39.239H75.0195V46.9034H76.7042V39.239Z" stroke="#2B2A29" stroke-width="0.57" stroke-miterlimit="22.93"/>
<path d="M76.7044 39.239H73.335V42.4115H76.7044V39.239Z" stroke="#2B2A29" stroke-width="0.57" stroke-miterlimit="22.93"/>
<path d="M76.7044 39.239H73.335V40.8243H76.7044V39.239Z" stroke="#2B2A29" stroke-width="0.57" stroke-miterlimit="22.93"/>
<path d="M69.9964 39.239H66.627V46.9034H69.9964V39.239Z" stroke="#2B2A29" stroke-width="0.57" stroke-miterlimit="22.93"/>
<path fill-rule="evenodd" clip-rule="evenodd" d="M65.7021 37.3899H70.9552V41.354H69.9971V39.239H66.6257V41.354H65.7021V37.3899Z" fill="#FDFDFD" stroke="#2B2A29" stroke-width="0.57" stroke-miterlimit="22.93"/>
<path d="M69.9972 39.239H68.3125V46.9034H69.9972V39.239Z" stroke="#2B2A29" stroke-width="0.57" stroke-miterlimit="22.93"/>
<path d="M69.9964 39.239H66.627V42.4115H69.9964V39.239Z" stroke="#2B2A29" stroke-width="0.57" stroke-miterlimit="22.93"/>
<path d="M69.9964 39.239H66.627V40.8243H69.9964V39.239Z" stroke="#2B2A29" stroke-width="0.57" stroke-miterlimit="22.93"/>
<path d="M62.9905 39.239H59.6211V46.9034H62.9905V39.239Z" stroke="#2B2A29" stroke-width="0.57" stroke-miterlimit="22.93"/>
<path fill-rule="evenodd" clip-rule="evenodd" d="M58.6982 37.3899H63.9513V41.354H62.9932V39.239H59.6218V41.354H58.6982V37.3899Z" fill="#FDFDFD" stroke="#2B2A29" stroke-width="0.57" stroke-miterlimit="22.93"/>
<path d="M62.9933 39.239H61.3086V46.9034H62.9933V39.239Z" stroke="#2B2A29" stroke-width="0.57" stroke-miterlimit="22.93"/>
<path d="M62.9905 39.239H59.6211V42.4115H62.9905V39.239Z" stroke="#2B2A29" stroke-width="0.57" stroke-miterlimit="22.93"/>
<path d="M62.9905 39.239H59.6211V40.8243H62.9905V39.239Z" stroke="#2B2A29" stroke-width="0.57" stroke-miterlimit="22.93"/>
<path fill-rule="evenodd" clip-rule="evenodd" d="M78.6523 27.8071H84.8736V31.1765H84.2444V29.979H82.5251V31.1765H81.0028V29.979H79.2836V31.1765H78.6523V27.8071Z" fill="#FDFDFD" stroke="#2B2A29" stroke-width="0.57" stroke-miterlimit="22.93"/>
<path fill-rule="evenodd" clip-rule="evenodd" d="M71.875 27.8071H78.0962V31.1765H77.465V29.979H75.7458V31.1765H74.2255V29.979H72.5063V31.1765H71.875V27.8071Z" fill="#FDFDFD" stroke="#2B2A29" stroke-width="0.57" stroke-miterlimit="22.93"/>
<path fill-rule="evenodd" clip-rule="evenodd" d="M65.0977 27.8071H71.3189V31.1765H70.6876V29.979H68.9684V31.1765H67.4481V29.979H65.7269V31.1765H65.0977V27.8071Z" fill="#FDFDFD" stroke="#2B2A29" stroke-width="0.57" stroke-miterlimit="22.93"/>
<path fill-rule="evenodd" clip-rule="evenodd" d="M58.3184 27.8071H64.5396V31.1765H63.9104V29.979H62.1912V31.1765H60.6688V29.979H58.9496V31.1765H58.3184V27.8071Z" fill="#FDFDFD" stroke="#2B2A29" stroke-width="0.57" stroke-miterlimit="22.93"/>
<path d="M96.1571 29.5266H94.8682V35.2749H96.1571V29.5266Z" stroke="#2B2A29" stroke-width="0.57" stroke-miterlimit="22.93"/>
<path fill-rule="evenodd" clip-rule="evenodd" d="M93.203 29.5266H91.9141V35.2749H93.203V29.5266Z" stroke="#2B2A29" stroke-width="0.57" stroke-miterlimit="22.93"/>
<path d="M90.2508 29.5266H88.9619V35.2749H90.2508V29.5266Z" stroke="#2B2A29" stroke-width="0.57" stroke-miterlimit="22.93"/>
<path fill-rule="evenodd" clip-rule="evenodd" d="M88.1709 27.4116H96.9415V31.1768H96.158V29.5246H94.8691V31.1768H93.2047V29.5246H91.9158V31.1768H90.2514V29.5246H88.9625V31.1768H88.1709V27.4116Z" fill="#FDFDFD" stroke="#2B2A29" stroke-width="0.57" stroke-miterlimit="22.93"/>
<path d="M94.974 17.5327H90.2832V27.4116H94.974V17.5327Z" stroke="#2B2A29" stroke-width="0.57" stroke-miterlimit="22.93"/>
<path d="M96.9415 19.7451H88.1709V27.4095H96.9415V19.7451Z" stroke="#2B2A29" stroke-width="0.57" stroke-miterlimit="22.93"/>
<path d="M99.1895 57.2126H85.9209V59.7905H99.1895V57.2126Z" stroke="#2B2A29" stroke-width="0.57" stroke-miterlimit="22.93"/>
<path d="M85.9209 56.6851H72.6523V59.2629H85.9209V56.6851Z" stroke="#2B2A29" stroke-width="0.57" stroke-miterlimit="22.93"/>
<path d="M96.9415 37.6538H88.1709V41.4211H96.9415V37.6538Z" stroke="#2B2A29" stroke-width="0.57" stroke-miterlimit="22.93"/>
<path fill-rule="evenodd" clip-rule="evenodd" d="M95.8669 39.5049H93.7579V45.5942H95.873V39.5049H95.8669ZM91.0766 39.5049H88.9961V45.5191H91.0766V39.5049Z" stroke="#2B2A29" stroke-width="0.57" stroke-miterlimit="22.93"/>
<path d="M96.9419 49.7126H92.8945V57.2127H96.9419V49.7126Z" stroke="#2B2A29" stroke-width="0.57" stroke-miterlimit="22.93"/>
<path d="M92.2183 49.7126H88.1709V57.2127H92.2183V49.7126Z" stroke="#2B2A29" stroke-width="0.57" stroke-miterlimit="22.93"/>
<path d="M96.9407 49.7126H94.917V57.2127H96.9407V49.7126Z" stroke="#2B2A29" stroke-width="0.57" stroke-miterlimit="22.93"/>
<path d="M92.218 49.7126H90.1943V57.2127H92.218V49.7126Z" stroke="#2B2A29" stroke-width="0.57" stroke-miterlimit="22.93"/>
<path d="M96.9419 52.0916H92.8945V57.2127H96.9419V52.0916Z" stroke="#2B2A29" stroke-width="0.57" stroke-miterlimit="22.93"/>
<path d="M92.2183 52.0916H88.1709V57.2127H92.2183V52.0916Z" stroke="#2B2A29" stroke-width="0.57" stroke-miterlimit="22.93"/>
<path fill-rule="evenodd" clip-rule="evenodd" d="M40.0873 75.4521L39.6448 45.9373C39.0358 46.1768 38.6299 46.3797 38.6299 46.3797V76.806H41.4716C41.4716 76.806 46.891 75.9149 49.7936 74.5266C52.6962 73.1382 56.2686 73.0063 57.9878 73.7329C59.707 74.4596 61.4059 75.0543 61.4059 75.0543C61.4059 75.0543 60.1231 73.8162 59.2422 73.4691C52.1908 70.6741 45.7057 75.9048 40.0873 75.4521Z" fill="#C2292D" stroke="#2B2A29" stroke-width="0.57" stroke-miterlimit="22.93"/>
<path fill-rule="evenodd" clip-rule="evenodd" d="M80.8881 72.6773C74.6608 73.1787 64.313 66.0481 61.4023 74.2605V47.0373C61.4023 47.0373 64.3577 45.6489 66.2738 45.9148C68.1899 46.1807 70.5688 46.7734 73.4105 46.7734C76.2521 46.7734 78.3672 44.5955 80.0844 44.5955C80.4945 44.6019 80.9028 44.6523 81.3022 44.7457L80.8881 72.6773Z" fill="url(#paint2_linear)" stroke="#2B2A29" stroke-width="0.57" stroke-miterlimit="22.93"/>
<path fill-rule="evenodd" clip-rule="evenodd" d="M61.4092 74.2607C64.3118 66.0483 74.6575 73.1809 80.895 72.6775L81.3131 44.7458C81.5851 44.8067 81.8571 44.8798 82.125 44.961L81.6947 73.8C76.0763 74.2526 70.5939 69.0057 63.5364 71.8007C62.6412 72.1498 61.4092 74.2607 61.4092 74.2607Z" fill="#EAEBEB" stroke="#2B2A29" stroke-width="0.57" stroke-miterlimit="22.93"/>
<path fill-rule="evenodd" clip-rule="evenodd" d="M81.6785 73.8002L82.1088 44.9612C82.4965 45.0809 82.8618 45.2149 83.1764 45.3387L82.736 74.8577C77.1176 75.3103 70.6304 70.0796 63.5729 72.8746C62.694 73.2237 61.4092 74.4598 61.4092 74.4598V74.2569C61.4092 74.2569 62.6392 72.1459 63.5181 71.7988C70.5776 69.0058 76.0601 74.2528 81.6785 73.8002Z" fill="#D8D9D9" stroke="#2B2A29" stroke-width="0.57" stroke-miterlimit="22.93"/>
<path fill-rule="evenodd" clip-rule="evenodd" d="M82.7367 74.8576L83.1772 45.3386C83.7861 45.5781 84.1921 45.7811 84.1921 45.7811V76.2114H81.3504C81.3504 76.2114 75.9309 75.3204 73.0283 73.932C70.1258 72.5436 66.5534 72.4117 64.8341 73.1384C63.1149 73.865 61.416 74.4597 61.416 74.4597C61.416 74.4597 62.6988 73.2216 63.5798 72.8745C70.6312 70.0795 77.1143 75.3102 82.7367 74.8576Z" fill="#C2292D" stroke="#2B2A29" stroke-width="0.57" stroke-miterlimit="22.93"/>
<path fill-rule="evenodd" clip-rule="evenodd" d="M41.8332 72.5455C48.0605 73.0469 58.4083 65.9163 61.319 74.1287V46.9054C61.319 46.9054 58.3636 45.5171 56.4475 45.783C54.5314 46.0489 52.1485 46.6416 49.3068 46.6416C46.4651 46.6416 44.3501 44.4636 42.6329 44.4636C42.2227 44.47 41.8145 44.5204 41.415 44.6138L41.8332 72.5455Z" fill="url(#paint3_linear)" stroke="#2B2A29" stroke-width="0.57" stroke-miterlimit="22.93"/>
<path fill-rule="evenodd" clip-rule="evenodd" d="M61.3076 74.1266C58.4051 65.9142 48.0593 73.0468 41.8218 72.5434L41.4037 44.6138C41.1317 44.6747 40.8597 44.7477 40.5918 44.8289L41.0221 73.6679C46.6405 74.1205 52.1229 68.8736 59.1804 71.6686C60.0776 72.0177 61.3076 74.1266 61.3076 74.1266Z" fill="#EAEBEB" stroke="#2B2A29" stroke-width="0.57" stroke-miterlimit="22.93"/>
<path fill-rule="evenodd" clip-rule="evenodd" d="M41.038 73.6678L40.6077 44.8289C40.22 44.9486 39.8547 45.0826 39.54 45.2064L39.9805 74.7254C45.5989 75.178 52.0861 69.9473 59.1436 72.7423C60.0225 73.0914 61.3073 74.3275 61.3073 74.3275V74.1245C61.3073 74.1245 60.0773 72.0136 59.1984 71.6665C52.1469 68.8735 46.6564 74.1205 41.038 73.6678Z" fill="#D8D9D9" stroke="#2B2A29" stroke-width="0.57" stroke-miterlimit="22.93"/>
<path fill-rule="evenodd" clip-rule="evenodd" d="M62.053 54.3606L56.2072 53.1976C55.0503 53.2158 54.0963 54.1373 54.7336 55.3329C54.961 55.7571 55.4339 55.9722 55.8825 56.0778C56.191 56.1509 56.5158 56.1082 56.8243 56.1793C59.1403 56.7111 61.4035 57.4418 63.4698 58.6455C64.4664 59.226 65.7208 60.3423 65.0164 61.6313C64.4887 62.5954 63.0983 62.908 62.12 63.1069C60.827 63.3708 59.0347 63.3099 57.8696 64.0386C57.5591 64.2415 57.4901 64.9743 57.6829 65.2828C57.9752 65.7537 58.9657 65.6603 59.3067 65.6725C60.5591 65.7172 61.3142 65.6725 62.4386 66.2632C63.4037 66.7571 64.232 67.4815 64.85 68.3721L64.8033 68.3944C63.9625 67.4115 62.8844 66.6597 61.6714 66.2104C60.419 65.7537 59.1362 66.2368 57.8656 65.8999C57.0009 65.6725 57.0983 64.5237 57.3947 63.9127C57.5753 63.5413 58.1782 63.3768 58.5151 63.2875L63.3317 62.1854C64.0239 61.9053 64.8114 61.4303 64.5496 60.5737C64.1436 59.228 62.0347 58.5785 60.896 58.1502L56.2641 56.8978C55.099 56.7273 53.9583 56.228 53.8101 54.9269C53.668 53.6827 54.3257 52.6739 55.5861 52.4161C56.4792 52.2334 62.5056 52.341 62.5056 53.9059C62.5062 53.9656 62.4948 54.0248 62.4723 54.0801C62.4498 54.1354 62.4165 54.1856 62.3744 54.2279C62.3323 54.2702 62.2822 54.3037 62.227 54.3265C62.1718 54.3493 62.1127 54.3609 62.053 54.3606Z" fill="#009746" stroke="#2B2A29" stroke-width="0.57" stroke-miterlimit="22.93"/>
<path fill-rule="evenodd" clip-rule="evenodd" d="M53.0986 56.553C53.0986 56.553 56.2712 59.6261 57.4261 60.2878C58.283 60.7494 59.1781 61.1365 60.1013 61.4447L60.5073 67.534L56.9714 69.0198C56.9714 69.0198 60.1419 69.0523 61.3151 69.0198C62.4884 69.0523 65.6589 69.0198 65.6589 69.0198L62.123 67.534L62.5289 61.4447C63.4529 61.1366 64.3486 60.7495 65.2062 60.2878C66.3632 59.6261 69.5337 56.555 69.5337 56.555L53.0986 56.553Z" fill="#FBD4A5" stroke="#2B2A29" stroke-width="0.57" stroke-miterlimit="22.93"/>
<path fill-rule="evenodd" clip-rule="evenodd" d="M39.9817 74.7255L39.5413 45.2065C38.9323 45.4461 38.5264 45.649 38.5264 45.649V76.0794H41.368C41.368 76.0794 46.7875 75.1883 49.6901 73.7999C52.5927 72.4116 56.1651 72.2796 57.8843 73.0063C59.6035 73.7329 61.3024 74.3277 61.3024 74.3277C61.3024 74.3277 60.0196 73.0895 59.1387 72.7424C52.0873 69.9474 45.6001 75.1781 39.9817 74.7255Z" fill="#C2292D" stroke="#2B2A29" stroke-width="0.57" stroke-miterlimit="22.93"/>
<path fill-rule="evenodd" clip-rule="evenodd" d="M36.8496 24.8198H61.3023V22.5708H58.9193H57.0682H50.8571H44.3151H37.7732H36.8496V24.8198Z" fill="#F7EEC4" stroke="#2B2A29" stroke-width="0.57" stroke-miterlimit="22.93"/>
<path fill-rule="evenodd" clip-rule="evenodd" d="M61.3043 24.8276H36.8496V56.695H38.5282V45.6511C38.5282 45.6511 38.8571 45.4866 39.3604 45.2796V41.354H38.4024V37.3899H43.6554V41.354H42.7299V44.4657C43.6981 44.5144 44.7901 45.2126 46.0668 45.8053V41.354H45.1087V37.3899H50.3618V41.354H49.4362V46.6314C50.5532 46.6178 51.6681 46.529 52.7732 46.3655V41.354H51.8151V37.3899H57.0681V41.354H56.1426V45.8195L56.4349 45.7769C57.4031 45.6429 58.6372 45.9312 59.6216 46.2498V41.354H58.696V37.3899H64.0709V41.354H63.1453V46.3696C63.9906 46.0784 64.8743 45.9135 65.7677 45.8804C65.9388 45.8804 66.1097 45.892 66.2792 45.9149L66.6243 45.9657V41.354H65.6987V37.3899H66.4579C66.397 36.6389 66.3334 35.8879 66.2671 35.1368H65.7292V29.9792V31.1788H65.0979V27.8094H65.5161C65.3997 26.8107 65.2738 25.8168 65.1385 24.8276H61.3043ZM58.3205 27.8155H64.5418V31.1849H63.9207V35.1389H62.2014V29.9792V31.1788H60.5898V29.9792V35.1389H58.8462V31.1788H58.2373V27.8094L58.3205 27.8155ZM51.4538 27.8155H57.6751V31.1849H57.0438V29.9853V35.1389H55.3246V31.1788H53.8083V29.9792V35.1389H52.0891V31.1788H51.464V27.8094L51.4538 27.8155ZM44.6764 27.8155H50.8976V31.1849H50.2664V35.1389H48.5472V31.1788H47.0269V35.1389H45.3077V31.1788H44.6764V27.8094V27.8155ZM37.899 27.8155H44.1202V31.1849H43.489V35.1389H41.7698V31.1788H40.2495V35.1389H38.5303V31.1788H37.899V27.8155Z" fill="#F7EEC4" stroke="#2B2A29" stroke-width="0.57" stroke-miterlimit="22.93"/>
<path fill-rule="evenodd" clip-rule="evenodd" d="M61.4658 22.5708V24.8279H65.1377C65.0511 24.1933 64.9618 23.5593 64.8697 22.926C64.8697 22.8069 64.8697 22.6912 64.8697 22.5789H61.4658V22.5708Z" fill="#F7EEC4" stroke="#2B2A29" stroke-width="0.57" stroke-miterlimit="22.93"/>
<path fill-rule="evenodd" clip-rule="evenodd" d="M65.1387 24.8276C65.274 25.8222 65.4012 26.8182 65.5203 27.8155H71.3234V31.1849H70.6982V35.1389H68.9749V29.9792V31.1788H67.4526V35.1389H66.2713C66.3376 35.8885 66.4012 36.6395 66.4621 37.3919H70.958V41.3561H70V46.5157C71.1052 46.677 72.2201 46.7631 73.3369 46.7735V41.354H72.4113V37.3899H77.6624V41.354H76.7084V45.9129C77.9851 45.3141 79.0771 44.6199 80.0453 44.5956V41.3479H79.1197V37.3899H84.3728V41.354H83.4066V45.4318C83.8795 45.6348 84.186 45.781 84.186 45.781V56.695H85.9174V24.8276H65.1387ZM71.8795 27.8155H78.1008V31.1849H77.4695V35.1389H75.7503V31.1788H74.23V35.1389H72.5108V31.1788H71.8795V27.8094V27.8155ZM78.6569 27.8155H84.8782V31.1849H84.2469V35.1389H82.5277V31.1788H81.0074V35.1389H79.2882V31.1788H78.6569V27.8155Z" fill="#F7EEC4" stroke="#2B2A29" stroke-width="0.57" stroke-miterlimit="22.93"/>
<path fill-rule="evenodd" clip-rule="evenodd" d="M85.9209 24.8195V56.6849V57.2126H88.1699V52.0915V49.7126V41.421V37.6538V31.1768V27.4115V19.7451V18.8662H85.9209V21.2573V22.5705V24.8195Z" fill="#F7EEC4" stroke="#2B2A29" stroke-width="0.57" stroke-miterlimit="22.93"/>
<path d="M90.2839 19.7451H88.1709V27.4095H90.2839V19.7451Z" fill="#F7EEC4" stroke="#2B2A29" stroke-width="0.57" stroke-miterlimit="22.93"/>
<path d="M94.974 19.7451H90.2832V27.4095H94.974V19.7451Z" fill="#F7EEC4" stroke="#2B2A29" stroke-width="0.57" stroke-miterlimit="22.93"/>
<path d="M96.9414 19.7451H94.9766V27.4095H96.9414V19.7451Z" fill="#F7EEC4" stroke="#2B2A29" stroke-width="0.57" stroke-miterlimit="22.93"/>
<path d="M94.974 17.5327H90.2832V19.7472H94.974V17.5327Z" fill="#F7EEC4" stroke="#2B2A29" stroke-width="0.57" stroke-miterlimit="22.93"/>
<path fill-rule="evenodd" clip-rule="evenodd" d="M96.9414 19.7451V27.4115V31.1768V37.6538V41.421V49.7126V52.0915V57.2126H99.1904V18.8662H96.9414V19.7451Z" fill="#F7EEC4" stroke="#2B2A29" stroke-width="0.57" stroke-miterlimit="22.93"/>
<path fill-rule="evenodd" clip-rule="evenodd" d="M94.8691 35.2749V31.1768H93.2047V35.2749H91.9158V31.1768H90.2514V35.2749H88.9625V31.1768H88.1709V37.6538H96.9415V31.1768H96.158V35.2749H94.8691Z" fill="#F7EEC4" stroke="#2B2A29" stroke-width="0.57" stroke-miterlimit="22.93"/>
<path fill-rule="evenodd" clip-rule="evenodd" d="M34.5997 37.6538V31.1768H33.8081V35.2749H32.5192V31.1768H30.8548V35.2749H29.5659V31.1768H27.9015V35.2749H26.6126V31.1768H25.8291V37.6538H34.5997Z" fill="#F7EEC4" stroke="#2B2A29" stroke-width="0.57" stroke-miterlimit="22.93"/>
<path fill-rule="evenodd" clip-rule="evenodd" d="M34.6006 31.1768V37.6538V41.421V49.7126V52.0915V57.2126H36.8496V56.6849V24.8195V22.5705V21.2573V18.8662H34.6006V19.7451V27.4115V31.1768Z" fill="#F7EEC4" stroke="#2B2A29" stroke-width="0.57" stroke-miterlimit="22.93"/>
<path d="M34.6003 19.7451H32.4873V27.4095H34.6003V19.7451Z" fill="#F7EEC4" stroke="#2B2A29" stroke-width="0.57" stroke-miterlimit="22.93"/>
<path d="M32.4857 19.7451H27.7949V27.4095H32.4857V19.7451Z" fill="#F7EEC4" stroke="#2B2A29" stroke-width="0.57" stroke-miterlimit="22.93"/>
<path d="M27.7939 19.7451H25.8291V27.4095H27.7939V19.7451Z" fill="#F7EEC4" stroke="#2B2A29" stroke-width="0.57" stroke-miterlimit="22.93"/>
<path d="M32.4857 17.5327H27.7949V19.7472H32.4857V17.5327Z" fill="#F7EEC4" stroke="#2B2A29" stroke-width="0.57" stroke-miterlimit="22.93"/>
<path fill-rule="evenodd" clip-rule="evenodd" d="M25.83 27.4115V19.7451V18.8662H23.5811V57.2126H25.83V52.0915V49.7126V41.421V37.6538V31.1768V27.4115Z" fill="#F7EEC4" stroke="#2B2A29" stroke-width="0.57" stroke-miterlimit="22.93"/>
<path fill-rule="evenodd" clip-rule="evenodd" d="M31.6931 41.4211H29.0158V45.5842H26.9029V41.4211H25.8291V49.7128H27.8528H29.8765V52.0916V57.2128H30.5524V52.0916V49.7128H32.5761H34.5997V41.4211H33.7736V45.5172H31.6931V41.4211Z" fill="#F7EEC4" stroke="#2B2A29" stroke-width="0.57" stroke-miterlimit="22.93"/>
<path fill-rule="evenodd" clip-rule="evenodd" d="M88.1709 41.4211V49.7128H90.1946H92.2183V52.0916V57.2128H92.8942V52.0916V49.7128H94.9179H96.9415V41.4211H95.8678V45.5842H93.7528V41.4211H91.0775V45.5172H88.995V41.4211H88.1709Z" fill="#F7EEC4" stroke="#2B2A29" stroke-width="0.57" stroke-miterlimit="22.93"/>
<path fill-rule="evenodd" clip-rule="evenodd" d="M34.6007 57.2126H32.577H30.5533H29.8774H27.8537H25.83H23.5811V59.7905H36.8497V59.2627V57.2126H34.6007Z" fill="#F7EEC4" stroke="#2B2A29" stroke-width="0.57" stroke-miterlimit="22.93"/>
<path fill-rule="evenodd" clip-rule="evenodd" d="M36.8496 57.2128V59.2629H38.5282V56.6851H36.8496V57.2128Z" fill="#F7EEC4" stroke="#2B2A29" stroke-width="0.57" stroke-miterlimit="22.93"/>
<path fill-rule="evenodd" clip-rule="evenodd" d="M85.9209 57.2126V59.2627V59.7905H99.1895V57.2126H96.9405H94.9168H92.8932H92.2172H90.1936H88.1699H85.9209Z" fill="#F7EEC4" stroke="#2B2A29" stroke-width="0.57" stroke-miterlimit="22.93"/>
<path d="M109.603 29.0637H99.1904V59.7904H109.603V29.0637Z" stroke="#2B2A29" stroke-width="0.57" stroke-miterlimit="22.93"/>
<path d="M109.603 29.0637H99.1904V31.1787H109.603V29.0637Z" fill="#D8D9D9" stroke="#2B2A29" stroke-width="0.57" stroke-miterlimit="22.93"/>
<path d="M105.614 36.0015H102.244V43.6659H105.614V36.0015Z" stroke="#2B2A29" stroke-width="0.57" stroke-miterlimit="22.93"/>
<path d="M105.614 36.0015H103.93V43.6659H105.614V36.0015Z" stroke="#2B2A29" stroke-width="0.57" stroke-miterlimit="22.93"/>
<path d="M105.614 36.0015H102.244V39.174H105.614V36.0015Z" stroke="#2B2A29" stroke-width="0.57" stroke-miterlimit="22.93"/>
<path d="M105.614 36.0015H102.244V37.5867H105.614V36.0015Z" stroke="#2B2A29" stroke-width="0.57" stroke-miterlimit="22.93"/>
<path d="M106.826 41.2544H101.11V44.3275H106.826V41.2544Z" fill="#FDFDFD" stroke="#2B2A29" stroke-width="0.57" stroke-miterlimit="22.93"/>
<path fill-rule="evenodd" clip-rule="evenodd" d="M104.396 44.9895C107.27 44.9895 109.602 46.6539 109.602 48.706V48.7547H99.1914V48.706C99.1894 46.6539 101.522 44.9895 104.396 44.9895Z" stroke="#2B2A29" stroke-width="0.57" stroke-miterlimit="22.93"/>
<path fill-rule="evenodd" clip-rule="evenodd" d="M104.396 45.4197C106.614 45.4197 108.415 46.7045 108.415 48.2898V48.3283H100.377V48.2898C100.377 46.7045 102.177 45.4197 104.396 45.4197Z" stroke="#2B2A29" stroke-width="0.57" stroke-miterlimit="22.93"/>
<path d="M105.614 51.5293H102.244V57.2127H105.614V51.5293Z" stroke="#2B2A29" stroke-width="0.57" stroke-miterlimit="22.93"/>
<path d="M105.614 51.5293H103.93V57.2127H105.614V51.5293Z" stroke="#2B2A29" stroke-width="0.57" stroke-miterlimit="22.93"/>
<path d="M105.614 51.5293H102.244V54.7018H105.614V51.5293Z" stroke="#2B2A29" stroke-width="0.57" stroke-miterlimit="22.93"/>
<path d="M105.614 51.5293H102.244V53.1145H105.614V51.5293Z" stroke="#2B2A29" stroke-width="0.57" stroke-miterlimit="22.93"/>
<path d="M109.603 58.5015H99.1904V59.7904H109.603V58.5015Z" stroke="#2B2A29" stroke-width="0.57" stroke-miterlimit="22.93"/>
<path fill-rule="evenodd" clip-rule="evenodd" d="M105.615 41.2568H106.833V44.3298H101.113V41.2568H102.245V36.0017H105.615V41.2547V41.2568ZM104.397 44.9895C107.271 44.9895 109.603 46.6539 109.603 48.706V31.179H99.1904V48.706C99.1904 46.6539 101.523 44.9895 104.397 44.9895Z" fill="#F7EEC4" stroke="#2B2A29" stroke-width="0.57" stroke-miterlimit="22.93"/>
<path fill-rule="evenodd" clip-rule="evenodd" d="M109.602 48.7568H99.1914V58.4997H109.604V48.7568H109.602ZM105.616 51.5315V57.2149H102.246V51.5315H105.616Z" fill="#F7EEC4" stroke="#2B2A29" stroke-width="0.57" stroke-miterlimit="22.93"/>
<path fill-rule="evenodd" clip-rule="evenodd" d="M104.397 45.4197C106.615 45.4197 108.416 46.7046 108.416 48.2898V48.3284H100.378V48.2898C100.378 46.7046 102.178 45.4197 104.397 45.4197ZM99.1925 48.7567H109.603V48.708C109.603 46.6559 107.271 44.9915 104.397 44.9915C101.523 44.9915 99.1904 46.6559 99.1904 48.708L99.1925 48.7567Z" fill="#F7EEC4" stroke="#2B2A29" stroke-width="0.57" stroke-miterlimit="22.93"/>
<path fill-rule="evenodd" clip-rule="evenodd" d="M108.415 48.2878C108.415 46.7026 106.614 45.4177 104.396 45.4177C102.177 45.4177 100.377 46.7026 100.377 48.2878V48.3264H108.413L108.415 48.2878Z" fill="#F7EEC4" stroke="#2B2A29" stroke-width="0.57" stroke-miterlimit="22.93"/>
<path d="M109.603 58.5015H99.1904V59.7904H109.603V58.5015Z" fill="#F7EEC4" stroke="#2B2A29" stroke-width="0.57" stroke-miterlimit="22.93"/>
<defs>
<linearGradient id="paint0_linear" x1="41.5178" y1="60.0219" x2="61.4116" y2="60.0219" gradientUnits="userSpaceOnUse">
<stop stop-color="white"/>
<stop offset="0.26" stop-color="#E6E7E8"/>
<stop offset="0.79" stop-color="#D1D3D4"/>
<stop offset="1" stop-color="white"/>
</linearGradient>
<linearGradient id="paint1_linear" x1="17.086" y1="57.5841" x2="56.8837" y2="35.9711" gradientUnits="userSpaceOnUse">
<stop stop-color="#E6E7E8"/>
<stop offset="1" stop-color="white"/>
</linearGradient>
<linearGradient id="paint2_linear" x1="8213.19" y1="14980.1" x2="6262.6" y2="14979.9" gradientUnits="userSpaceOnUse">
<stop stop-color="white"/>
<stop offset="0.26" stop-color="#E6E7E8"/>
<stop offset="0.79" stop-color="#D1D3D4"/>
<stop offset="1" stop-color="white"/>
</linearGradient>
<linearGradient id="paint3_linear" x1="4283.34" y1="14960.4" x2="6234.12" y2="14960.4" gradientUnits="userSpaceOnUse">
<stop stop-color="white"/>
<stop offset="0.26" stop-color="#E6E7E8"/>
<stop offset="0.79" stop-color="#D1D3D4"/>
<stop offset="1" stop-color="white"/>
</linearGradient>
</defs>
</svg>
