<svg width="21" height="20" viewBox="0 0 21 20" fill="none" xmlns="http://www.w3.org/2000/svg">
<path d="M14.3606 9.78646C14.2472 7.66516 12.6086 6.38924 10.6298 6.38924H10.5553C8.27188 6.38924 7.00569 8.1153 7.00569 10.0762C7.00569 12.2712 8.5375 13.658 10.5467 13.658C12.7861 13.658 14.259 12.0808 14.3656 10.2155L14.3606 9.78646H14.3606ZM10.5664 4.49041C12.0922 4.49041 13.5269 5.13874 14.58 6.15393V6.15772C14.58 5.67055 14.9213 5.30311 15.3948 5.30311L15.5147 5.30234C16.2553 5.30234 16.4078 5.97626 16.4078 6.18944L16.4111 13.7659C16.3588 14.2621 16.9438 14.5183 17.268 14.1997C18.5338 12.9495 20.0477 7.7722 16.4811 4.77317C13.1573 1.97651 8.69734 2.43717 6.32543 4.00884C3.8037 5.68051 2.19051 9.38084 3.75769 12.856C5.4663 16.6463 10.3551 17.7768 13.2608 16.649C14.7321 16.0782 15.4115 17.9899 13.8834 18.6147C11.5748 19.5598 5.14807 19.4645 2.14614 14.4654C0.117799 11.0903 0.225281 5.15148 5.60518 2.07478C9.72031 -0.279664 15.1462 0.371987 18.4179 3.6564C21.8377 7.08993 21.6379 13.5198 18.3027 16.0192C16.7913 17.1551 14.5463 16.0501 14.5605 14.3952L14.5451 13.8542C13.4928 14.8579 12.0921 15.4436 10.5664 15.4436C7.5519 15.4436 4.89931 12.8946 4.89931 9.99632C4.89931 7.0702 7.5519 4.49039 10.5664 4.49039" fill="white"/>
</svg>
