<svg width="12" height="20" viewBox="0 0 12 20" fill="none" xmlns="http://www.w3.org/2000/svg">
<path d="M5.10311 13.6371C3.71526 13.4882 2.46391 13.1367 1.39255 12.2749C1.25962 12.1677 1.12237 12.0644 1.00106 11.9446C0.532132 11.4814 0.484883 10.951 0.855939 10.4043C1.17337 9.93649 1.70624 9.81135 2.2601 10.08C2.36735 10.132 2.46953 10.197 2.56741 10.2668C4.56406 11.6777 7.30695 11.7167 9.3111 10.3303C9.50966 10.1737 9.7219 10.046 9.9679 9.98084C10.4462 9.85454 10.8923 10.0352 11.1489 10.4656C11.4422 10.9571 11.4384 11.4369 11.0771 11.8185C10.5229 12.4036 9.85634 12.8268 9.11573 13.1222C8.41543 13.4015 7.64838 13.542 6.8892 13.6354C7.00376 13.7636 7.05776 13.8266 7.12939 13.9007C8.16024 14.9659 9.1956 16.0266 10.2231 17.0951C10.5731 17.4592 10.6463 17.9106 10.4535 18.334C10.2428 18.7968 9.77103 19.1013 9.30847 19.0687C9.01541 19.0479 8.78686 18.8979 8.5838 18.6875C7.80587 17.8824 7.01333 17.0922 6.25115 16.2719C6.02934 16.0334 5.92266 16.0785 5.72691 16.2856C4.9443 17.1142 4.14894 17.9301 3.34889 18.7413C2.98965 19.1055 2.56216 19.1711 2.14554 18.963C1.70267 18.7423 1.42087 18.2773 1.44262 17.8101C1.45762 17.4941 1.60874 17.2526 1.81967 17.0361C2.83984 15.9885 3.8572 14.9381 4.87493 13.8887C4.94224 13.8189 5.00505 13.7449 5.10311 13.6371Z" fill="white"/>
<path d="M5.94878 9.98775C3.47288 9.97907 1.44267 7.86816 1.45711 5.31779C1.47136 2.73927 3.50288 0.661341 6.00315 0.668475C8.50848 0.675417 10.5194 2.78324 10.5068 5.38856C10.4941 7.93372 8.44979 9.99662 5.94878 9.98775ZM8.19892 5.32396C8.19461 4.05765 7.214 3.04954 5.98515 3.04838C4.74598 3.04703 3.75657 4.07346 3.76613 5.35135C3.77532 6.61284 4.76436 7.61382 5.99659 7.60919C7.22506 7.60475 8.20305 6.59009 8.19892 5.32396Z" fill="white"/>
</svg>
