<svg width="19" height="19" viewBox="0 0 19 19" fill="none" xmlns="http://www.w3.org/2000/svg">
<path fill-rule="evenodd" clip-rule="evenodd" d="M13.1368 11.6855H12.3428L12.0668 11.4115C13.0418 10.2745 13.6348 8.80051 13.6348 7.18551C13.6348 3.59551 10.7248 0.685514 7.13477 0.685514C3.54477 0.685514 0.634766 3.59551 0.634766 7.18551C0.634766 10.7755 3.54477 13.6855 7.13477 13.6855C8.74977 13.6855 10.2228 13.0935 11.3598 12.1195L11.6358 12.3935V13.1855L16.6338 18.1765L18.1248 16.6855L13.1368 11.6855ZM7.13477 11.6855C4.64877 11.6855 2.63477 9.67151 2.63477 7.18551C2.63477 4.70051 4.64877 2.68551 7.13477 2.68551C9.61977 2.68551 11.6348 4.70051 11.6348 7.18551C11.6348 9.67151 9.61977 11.6855 7.13477 11.6855Z" fill="white"/>
</svg>
