<svg width="20" height="17" viewBox="0 0 20 17" fill="none" xmlns="http://www.w3.org/2000/svg">
<path d="M18.6202 2.50802C18.3307 2.6386 18.033 2.7488 17.7289 2.83827C18.089 2.42417 18.3635 1.93692 18.5311 1.40373C18.5686 1.28422 18.5297 1.1534 18.4331 1.07523C18.3366 0.997009 18.2026 0.987639 18.0963 1.05166C17.4504 1.44121 16.7536 1.72117 16.023 1.88488C15.2869 1.15352 14.2873 0.737305 13.2539 0.737305C11.0725 0.737305 9.29778 2.54199 9.29778 4.76024C9.29778 4.93495 9.30866 5.10869 9.33018 5.28001C6.62329 5.03832 4.10674 3.68533 2.37863 1.52966C2.31705 1.45282 2.22217 1.41141 2.12503 1.41933C2.02784 1.42707 1.94051 1.48281 1.89141 1.56847C1.54091 2.18007 1.35562 2.87956 1.35562 3.59127C1.35562 4.56063 1.69595 5.48035 2.29713 6.19901C2.11433 6.13463 1.93695 6.05417 1.76764 5.95859C1.67675 5.90715 1.56582 5.90793 1.47552 5.96059C1.38516 6.01324 1.32851 6.11009 1.32613 6.21594C1.32572 6.23377 1.32572 6.25161 1.32572 6.26968C1.32572 7.71661 2.09151 9.0193 3.2623 9.72932C3.16172 9.7191 3.0612 9.70429 2.96133 9.68489C2.85837 9.66488 2.75249 9.70157 2.68306 9.78143C2.61351 9.86123 2.5905 9.97246 2.62254 10.074C3.05591 11.4499 4.17166 12.462 5.5205 12.7705C4.40177 13.4831 3.12243 13.8563 1.77941 13.8563C1.49918 13.8563 1.21735 13.8395 0.941515 13.8064C0.804491 13.7898 0.673471 13.8721 0.626805 14.0046C0.58014 14.1372 0.629599 14.285 0.746174 14.361C2.47149 15.4859 4.46645 16.0805 6.51527 16.0805C10.543 16.0805 13.0626 14.1491 14.4671 12.5288C16.2184 10.5084 17.2228 7.83413 17.2228 5.19181C17.2228 5.08142 17.2211 4.96995 17.2178 4.85884C17.9087 4.32946 18.5036 3.68878 18.9877 2.95241C19.0612 2.84057 19.0532 2.69276 18.9681 2.58981C18.883 2.4868 18.7412 2.45349 18.6202 2.50802Z" fill="white"/>
</svg>
