<svg width="20" height="12" viewBox="0 0 20 12" fill="none" xmlns="http://www.w3.org/2000/svg">
<path fill-rule="evenodd" clip-rule="evenodd" d="M16.6845 7.10063C17.2958 7.71527 17.941 8.29357 18.4893 8.97019C18.7315 9.27088 18.9608 9.58116 19.1362 9.93011C19.3847 10.4262 19.1596 10.972 18.7277 11.0016L16.043 11.0004C15.3506 11.0596 14.7982 10.7725 14.3337 10.2849C13.962 9.895 13.6178 9.48002 13.2604 9.07695C13.1139 8.9122 12.9605 8.75719 12.7773 8.63466C12.4108 8.38966 12.0927 8.46467 11.8832 8.85833C11.6699 9.25872 11.6215 9.70207 11.6006 10.1483C11.5718 10.7994 11.3807 10.9705 10.7457 11.0003C9.38859 11.0662 8.10061 10.8548 6.90412 10.1497C5.84924 9.52816 5.03124 8.65068 4.31925 7.65728C2.933 5.72293 1.87141 3.59738 0.917289 1.41229C0.702524 0.91999 0.859586 0.655724 1.38702 0.646371C2.26285 0.628849 3.13856 0.630096 4.01542 0.645124C4.37138 0.650487 4.60704 0.860752 4.74448 1.20708C5.21833 2.407 5.79814 3.54862 6.52593 4.60681C6.71975 4.88854 6.91738 5.17026 7.1988 5.36855C7.51014 5.58811 7.74719 5.51534 7.89366 5.15816C7.9866 4.93169 8.02729 4.68775 8.04823 4.44518C8.11762 3.61067 8.12677 2.77759 8.00506 1.946C7.93035 1.42701 7.6465 1.09103 7.14364 0.992823C6.88704 0.942751 6.92525 0.844415 7.04949 0.693575C7.26529 0.433424 7.46824 0.271484 7.87283 0.271484H10.907C11.3846 0.368573 11.4907 0.589564 11.5561 1.08455L11.5587 4.55549C11.5535 4.74711 11.6516 5.31574 11.9868 5.44257C12.255 5.53286 12.4318 5.31187 12.5927 5.13671C13.3192 4.34267 13.8377 3.40427 14.3009 2.43257C14.5064 2.0053 14.6832 1.56158 14.8545 1.11822C14.9814 0.789229 15.1805 0.627352 15.5404 0.634523L18.4605 0.637204C18.5471 0.637204 18.6347 0.638514 18.7186 0.653292C19.2107 0.739656 19.3455 0.957654 19.1935 1.45251C18.9541 2.22891 18.4881 2.87592 18.0326 3.52592C17.5456 4.21989 17.0248 4.89009 16.5418 5.58817C16.0981 6.22564 16.1334 6.54697 16.6845 7.10063Z" fill="white"/>
</svg>
